<svg viewBox="0 0 330 200" xmlns="http://www.w3.org/2000/svg"><g><g><g><g><g><line x1="85.578125" y1="176" x2="80.578125" y2="176" style="visibility: inherit;" fill="rgb(0, 0, 0)" stroke="rgb(204, 204, 204)" stroke-width="1px"></line><line x1="85.578125" y1="160" x2="80.578125" y2="160" style="visibility: inherit;" fill="rgb(0, 0, 0)" stroke="rgb(204, 204, 204)" stroke-width="1px"></line><line x1="85.578125" y1="144" x2="80.578125" y2="144" style="visibility: inherit;" fill="rgb(0, 0, 0)" stroke="rgb(204, 204, 204)" stroke-width="1px"></line><line x1="85.578125" y1="128" x2="80.578125" y2="128" style="visibility: inherit;" fill="rgb(0, 0, 0)" stroke="rgb(204, 204, 204)" stroke-width="1px"></line><line x1="85.578125" y1="112" x2="80.578125" y2="112" style="visibility: inherit;" fill="rgb(0, 0, 0)" stroke="rgb(204, 204, 204)" stroke-width="1px"></line><line x1="85.578125" y1="96" x2="80.578125" y2="96" style="visibility: inherit;" fill="rgb(0, 0, 0)" stroke="rgb(204, 204, 204)" stroke-width="1px"></line><line x1="85.578125" y1="80" x2="80.578125" y2="80" style="visibility: inherit;" fill="rgb(0, 0, 0)" stroke="rgb(204, 204, 204)" stroke-width="1px"></line><line x1="85.578125" y1="64" x2="80.578125" y2="64" style="visibility: inherit;" fill="rgb(0, 0, 0)" stroke="rgb(204, 204, 204)" stroke-width="1px"></line><line x1="85.578125" y1="48" x2="80.578125" y2="48" style="visibility: inherit;" fill="rgb(0, 0, 0)" stroke="rgb(204, 204, 204)" stroke-width="1px"></line><line x1="85.578125" y1="31.999999999999993" x2="80.578125" y2="31.999999999999993" style="visibility: inherit;" fill="rgb(0, 0, 0)" stroke="rgb(204, 204, 204)" stroke-width="1px"></line><line x1="85.578125" y1="16.000000000000007" x2="80.578125" y2="16.000000000000007" style="visibility: inherit;" fill="rgb(0, 0, 0)" stroke="rgb(204, 204, 204)" stroke-width="1px"></line><line x1="85.578125" y1="0" x2="80.578125" y2="0" style="visibility: inherit;" fill="rgb(0, 0, 0)" stroke="rgb(204, 204, 204)" stroke-width="1px"></line></g><g transform="translate(75.578125, 0)"><text x="0" y="176" dx="0em" dy="0.3em" style="text-anchor: end; visibility: hidden; font-family: Roboto, sans-serif; font-size: 12px; font-weight: 200;" fill="rgb(33, 33, 33)" stroke="none" stroke-width="1px">800</text><text x="0" y="160" dx="0em" dy="0.3em" style="text-anchor: end; visibility: inherit; font-family: Roboto, sans-serif; font-size: 12px; font-weight: 200;" fill="rgb(33, 33, 33)" stroke="none" stroke-width="1px">820</text><text x="0" y="144" dx="0em" dy="0.3em" style="text-anchor: end; visibility: hidden; font-family: Roboto, sans-serif; font-size: 12px; font-weight: 200;" fill="rgb(33, 33, 33)" stroke="none" stroke-width="1px">840</text><text x="0" y="128" dx="0em" dy="0.3em" style="text-anchor: end; visibility: inherit; font-family: Roboto, sans-serif; font-size: 12px; font-weight: 200;" fill="rgb(33, 33, 33)" stroke="none" stroke-width="1px">860</text><text x="0" y="112" dx="0em" dy="0.3em" style="text-anchor: end; visibility: hidden; font-family: Roboto, sans-serif; font-size: 12px; font-weight: 200;" fill="rgb(33, 33, 33)" stroke="none" stroke-width="1px">880</text><text x="0" y="96" dx="0em" dy="0.3em" style="text-anchor: end; visibility: inherit; font-family: Roboto, sans-serif; font-size: 12px; font-weight: 200;" fill="rgb(33, 33, 33)" stroke="none" stroke-width="1px">900</text><text x="0" y="80" dx="0em" dy="0.3em" style="text-anchor: end; visibility: hidden; font-family: Roboto, sans-serif; font-size: 12px; font-weight: 200;" fill="rgb(33, 33, 33)" stroke="none" stroke-width="1px">920</text><text x="0" y="64" dx="0em" dy="0.3em" style="text-anchor: end; visibility: inherit; font-family: Roboto, sans-serif; font-size: 12px; font-weight: 200;" fill="rgb(33, 33, 33)" stroke="none" stroke-width="1px">940</text><text x="0" y="48" dx="0em" dy="0.3em" style="text-anchor: end; visibility: hidden; font-family: Roboto, sans-serif; font-size: 12px; font-weight: 200;" fill="rgb(33, 33, 33)" stroke="none" stroke-width="1px">960</text><text x="0" y="31.999999999999993" dx="0em" dy="0.3em" style="text-anchor: end; visibility: inherit; font-family: Roboto, sans-serif; font-size: 12px; font-weight: 200;" fill="rgb(33, 33, 33)" stroke="none" stroke-width="1px">980</text><text x="0" y="16.000000000000007" dx="0em" dy="0.3em" style="text-anchor: end; visibility: hidden; font-family: Roboto, sans-serif; font-size: 12px; font-weight: 200;" fill="rgb(33, 33, 33)" stroke="none" stroke-width="1px">1e+3</text><text x="0" y="0" dx="0em" dy="0.3em" style="text-anchor: end; visibility: hidden; font-family: Roboto, sans-serif; font-size: 12px; font-weight: 200;" fill="rgb(33, 33, 33)" stroke="none" stroke-width="1px">1.02e+3</text></g><line x1="85.578125" y1="0" x2="85.578125" y2="176" fill="rgb(0, 0, 0)" stroke="rgb(204, 204, 204)" stroke-width="1px"></line></g></g><g transform="translate(85, 0)" clip-path="url(#clip_0)"><clipPath id="clip_0"><rect width="244" height="176"></rect></clipPath><g><g><g><line x1="0" y1="0" x2="0" y2="176" fill="rgb(0, 0, 0)" stroke="rgb(66, 66, 66)" stroke-width="1px" opacity="0.25"></line><line x1="20.368489583333332" y1="0" x2="20.368489583333332" y2="176" fill="rgb(0, 0, 0)" stroke="rgb(66, 66, 66)" stroke-width="1px" opacity="0.25"></line><line x1="40.736979166666664" y1="0" x2="40.736979166666664" y2="176" fill="rgb(0, 0, 0)" stroke="rgb(66, 66, 66)" stroke-width="1px" opacity="0.25"></line><line x1="61.10546875" y1="0" x2="61.10546875" y2="176" fill="rgb(0, 0, 0)" stroke="rgb(66, 66, 66)" stroke-width="1px" opacity="0.25"></line><line x1="81.47395833333333" y1="0" x2="81.47395833333333" y2="176" fill="rgb(0, 0, 0)" stroke="rgb(66, 66, 66)" stroke-width="1px" opacity="0.25"></line><line x1="101.84244791666667" y1="0" x2="101.84244791666667" y2="176" fill="rgb(0, 0, 0)" stroke="rgb(66, 66, 66)" stroke-width="1px" opacity="0.25"></line><line x1="122.2109375" y1="0" x2="122.2109375" y2="176" fill="rgb(0, 0, 0)" stroke="rgb(66, 66, 66)" stroke-width="1px" opacity="0.25"></line><line x1="142.57942708333334" y1="0" x2="142.57942708333334" y2="176" fill="rgb(0, 0, 0)" stroke="rgb(66, 66, 66)" stroke-width="1px" opacity="0.25"></line><line x1="162.94791666666666" y1="0" x2="162.94791666666666" y2="176" fill="rgb(0, 0, 0)" stroke="rgb(66, 66, 66)" stroke-width="1px" opacity="0.25"></line><line x1="183.31640625" y1="0" x2="183.31640625" y2="176" fill="rgb(0, 0, 0)" stroke="rgb(66, 66, 66)" stroke-width="1px" opacity="0.25"></line><line x1="203.68489583333334" y1="0" x2="203.68489583333334" y2="176" fill="rgb(0, 0, 0)" stroke="rgb(66, 66, 66)" stroke-width="1px" opacity="0.25"></line><line x1="224.05338541666666" y1="0" x2="224.05338541666666" y2="176" fill="rgb(0, 0, 0)" stroke="rgb(66, 66, 66)" stroke-width="1px" opacity="0.25"></line><line x1="244.421875" y1="0" x2="244.421875" y2="176" fill="rgb(0, 0, 0)" stroke="rgb(66, 66, 66)" stroke-width="1px" opacity="0.25"></line></g><g><line x1="0" y1="176" x2="244.421875" y2="176" fill="rgb(0, 0, 0)" stroke="rgb(66, 66, 66)" stroke-width="1px" opacity="0.25"></line><line x1="0" y1="160" x2="244.421875" y2="160" fill="rgb(0, 0, 0)" stroke="rgb(66, 66, 66)" stroke-width="1px" opacity="0.25"></line><line x1="0" y1="144" x2="244.421875" y2="144" fill="rgb(0, 0, 0)" stroke="rgb(66, 66, 66)" stroke-width="1px" opacity="0.25"></line><line x1="0" y1="128" x2="244.421875" y2="128" fill="rgb(0, 0, 0)" stroke="rgb(66, 66, 66)" stroke-width="1px" opacity="0.25"></line><line x1="0" y1="112" x2="244.421875" y2="112" fill="rgb(0, 0, 0)" stroke="rgb(66, 66, 66)" stroke-width="1px" opacity="0.25"></line><line x1="0" y1="96" x2="244.421875" y2="96" fill="rgb(0, 0, 0)" stroke="rgb(66, 66, 66)" stroke-width="1px" opacity="0.25"></line><line x1="0" y1="80" x2="244.421875" y2="80" fill="rgb(0, 0, 0)" stroke="rgb(66, 66, 66)" stroke-width="1px" opacity="0.25"></line><line x1="0" y1="64" x2="244.421875" y2="64" fill="rgb(0, 0, 0)" stroke="rgb(66, 66, 66)" stroke-width="1px" opacity="0.25"></line><line x1="0" y1="48" x2="244.421875" y2="48" fill="rgb(0, 0, 0)" stroke="rgb(66, 66, 66)" stroke-width="1px" opacity="0.25"></line><line x1="0" y1="31.999999999999993" x2="244.421875" y2="31.999999999999993" fill="rgb(0, 0, 0)" stroke="rgb(66, 66, 66)" stroke-width="1px" opacity="0.25"></line><line x1="0" y1="16.000000000000007" x2="244.421875" y2="16.000000000000007" fill="rgb(0, 0, 0)" stroke="rgb(66, 66, 66)" stroke-width="1px" opacity="0.25"></line><line x1="0" y1="0" x2="244.421875" y2="0" fill="rgb(0, 0, 0)" stroke="rgb(66, 66, 66)" stroke-width="1px" opacity="0.25"></line></g></g></g><g><g><line x1="0" y1="816" x2="244.421875" y2="816" fill="rgb(0, 0, 0)" stroke="rgb(153, 153, 153)" stroke-width="1.5px"></line></g></g><g><g><line x1="20.368489583333332" y1="0" x2="20.368489583333332" y2="176" fill="rgb(0, 0, 0)" stroke="rgb(153, 153, 153)" stroke-width="1.5px"></line></g></g><g><g><g><g><g><path stroke="rgb(204, 51, 17)" stroke-width="2px" d="M21.18404390625,15.19999999999999L21.999598229166665,15.199999999999912L22.815152552083333,15.199999999999912L23.630706875,15.19999999999999L24.446261197916666,15.19999999999999L25.261815520833334,15.199999999999912L26.07736984375,15.19999999999999L26.892924166666667,15.199999999999912L27.70847848958333,15.199999999999912L28.5240328125,15.199999999999815L29.337957656249998,15.842330355619925L29.339587135416668,15.584837707924631L30.153511979166666,15.430701311924254L30.155141458333333,15.338348415579276L30.969066302083334,15.282983017368778L30.970695781249997,15.249780443610225L31.784620625,15.22986489512896L31.78625010416667,15.217917723723252L32.60017494791667,15.210750197473677L32.60180442708333,15.206449961260665L33.41572927083333,15.203869920158287L33.417358750000005,15.202321931719961L34.06996515625,79.20189858303146L34.23128359375,53.60101784308345L34.78041807291666,143.5208663505693L34.87329838541667,160.99254961384085L34.88551947916667,102.67547008133523L35.04683791666667,67.68526056151568L35.424877083333335,155.17118857167117L35.595972395833336,99.1827007654082L35.68885270833333,65.58961600331205L35.862392239583336,45.43376799785165L36.21028604166667,45.1802607866054L36.41152671875,33.188156128375255L36.504407031250004,25.992893553333587L36.6779465625,21.675736087471165L37.02584036458333,19.085441636452202L37.227081041666665,17.53126497610028L37.319961354166665,16.59875898358269L37.493500885416665,16.039255389401667L37.78354817708333,153.94355334424716L37.84139468750001,98.44613197984127L38.04263536458333,65.14767917829012L38.309055208333334,45.16860750351279L38.5991025,33.181164500861726L38.65694901041667,25.98869870006847L38.8581896875,21.67321921987959L39.022767083333335,173.0039315353255L39.117276874999995,249.40235892222447L39.124609531249995,155.72141535257742L39.416286302083336,265.27284921207774L39.67374401041667,165.24370952695554L39.93283119791667,105.22622571606843L39.94016385416667,69.21573542960331L40.231840625,47.60944125774841L40.34020098958333,194.96566475470465L40.48929833333334,123.0593988528065L40.75571817708333,79.91563931167794L40.88526177083333,218.82938358701813L41.04576546875,180.57763015220908L41.04739494791667,114.42657809132342L41.26493041666667,245.93594685479638L41.5712725,153.64156811287677L41.63808114583333,272.0249408677268L41.77251317708333,204.17496452063588L41.86294927083333,128.58497871238123L41.9965665625,262.75098722742905L42.38682682291667,163.73059233645725L42.45037651041667,158.39835540187443L42.678503593749994,101.1190132411245L42.80967666666667,245.95140794467477L42.81212088541666,153.65084476680485L43.202381145833336,98.27050686008289L43.49405791666667,65.04230411604985L43.62523098958333,45.10538246962987L43.627675208333336,33.143229481777965L43.98779010416666,203.88593768906676L44.01793546875,128.41156261344003L44.30961223958333,83.12693756806402L44.345460781250004,235.7961625408384L44.44322953125,147.55769752450306L44.643655468750005,283.7346185147018L44.833489791666665,231.10446266529271L45.161015104166665,144.74267759917566L45.25796911458334,214.84560655950534L45.459209791666666,134.98736393570326L45.64904411458333,87.07241836142194L45.976569427083334,58.32345101685314L46.00427057291667,68.27407061011182L46.274764114583334,47.044442366067045L46.327722187499994,216.70666541964027L46.4645984375,136.10399925178416L46.64954432291667,281.66239955107045L46.81982489583333,175.07743973064225L47.0903184375,111.12646383838528L47.28015276041667,72.7558783030312L47.46509864583333,49.733526981818805L47.63537921875,35.920116189091274L47.90587276041667,27.632069713454808L48.09570708333333,22.659241828072844L48.20895588541667,220.9555450968437L48.280652968750005,138.65332705810616L48.450933541666664,89.27199623486368L48.911261406250006,59.6431977409182L49.02451020833333,41.865918644550945L49.096207291666666,31.199551186730602L49.26648786458333,24.799730712038407L49.72681572916667,20.95983842722308L49.84006453125,18.655903056333774L49.91176161458333,17.2735418338003L50.0820421875,16.444125100280143L50.49674463541667,78.34647506016809L50.542370052083335,53.08788503610086L50.7273159375,37.93273102166059L50.79412458333333,232.35963861299635L50.89759651041666,145.4957831677978L51.357924375,93.37746990067863L51.54287026041666,62.106481940407136L51.609678906250004,43.34388916424433L51.71315083333334,32.08633349854663L52.173478697916664,25.331800099127932L52.35842458333333,21.279080059476833L52.425233229166665,18.847448035686106L52.52870515625,17.388468821411692L52.98903302083333,16.51308129284699L53.17397890625,15.987848775708152L53.24078755208333,15.672709265424961L53.344259479166666,15.483625559255051L53.80458734375,15.370175335552988L53.98953322916667,15.302105201331875L54.056341875,15.261263120799047L54.159813802083335,15.236757872479389L54.61769744791667,115.06205472348766L54.62014166666667,75.11723283409265L54.805087552083336,51.15033970045552L54.97210916666667,217.89020382027329L54.975368125,136.81412229216394L55.37296104166667,251.04847337529836L55.43569598958333,156.70908402517898L55.620641875000004,100.1054504151074L55.728187500000004,246.94327024906454L55.790922447916664,154.24596214943867L56.14207520833333,256.3875772896632L56.251250312500005,159.91254637379788L56.436196197916665,102.02752782427869L56.52581755208333,236.89651669456725L56.60647677083334,148.2179100167403L57.066804635416666,95.0107460100442L57.25175052083333,63.08644760602655L57.341371875,43.93186856361591L57.42203109375,32.4391211381695L57.88235895833333,25.54347268290167L58.06730484375,21.406083609740925L58.15692619791666,18.923650165844634L58.23758541666666,17.43419009950685L58.436381874999995,227.1005140597041L58.69791328125,142.3403084358224L58.88285916666666,91.48418506149338L59.05313973958334,60.97051103689609L59.25193619791667,42.662306622137656L59.513467604166664,31.677383973282666L59.69841348958334,25.086430383969663L59.8686940625,21.13185823038185L60.06749052083333,18.75911493822914L60.32902192708333,17.335468962937547L60.5139678125,16.48128137776257L60.684248385416666,15.968768826657461L60.88304484375,15.661261295994512L61.14457625,15.476756777596703L61.32952213541667,15.366054066557995L61.45906572916666,109.37963243993472L61.49980270833334,71.70777946396083L61.778443645833335,243.98466767837652L61.96013057291666,152.47080060702592L62.145076458333335,97.56248036421547L62.282767447916676,186.85748821852928L62.31535703125,118.19449293111755L62.775684895833336,76.99669575867046L62.960630781249996,52.278017455202274L63.09832177083334,37.446810473121324L63.13091135416666,28.54808628387272L63.591239218750005,23.208851770323605L63.77618510416666,20.005311062194224L63.91387609375,18.083186637316608L63.94646567708333,16.92991198238996L64.40679354166667,16.237947189433907L64.59173942708334,15.82276831366034L64.65365963541667,197.01366098819616L64.76201999999999,124.28819659291766L64.97548177083333,274.57291795575065L65.22234786458333,170.8237507734504L65.40729375000001,108.57425046407025L65.57757432291667,71.22455027844207L65.79103609375001,48.81473016706532L66.0379021875,35.3688381002392L66.22040385416666,178.98130286014347L66.22284807291666,113.46878171608606L66.39312864583333,74.16126902965169L66.64814213541666,202.896761417791L66.85345651041668,127.81805685067457L67.03840239583333,82.77083411040476L67.09461942708333,200.70250046624287L67.20868296875,126.50150027974578L67.36592770833333,295.7409001678475L67.66901083333333,183.52454010070852L67.85395671875001,116.19472406042514L68.02423729166667,75.79683443625508L68.18148203125,51.55810066175309L68.48456515625,37.01486039705177L68.53507901041667,209.72891623823108L68.66951104166667,131.91734974293868L68.83979161458333,85.23040984576328L68.96852046875,207.29824590745793L69.30011947916667,130.4589475444747L69.48506536458333,84.35536852668484L69.6553459375,56.69322111601086L69.78407479166667,40.095932669606555L70.11567380208334,30.13755960176385L70.20448041666667,179.36253576105835L70.3006196875,113.69752145663497L70.47090026041667,74.29851287398105L70.598814375,216.0991077243886L70.931228125,135.73946463463318L71.11617401041666,87.52367878077985L71.28645458333332,58.594207268467834L71.41436869791666,41.23652436108077L71.74678244791667,30.821914616648428L71.82336796875,184.25314876998908L71.93172833333334,116.63188926199345L72.10200890624999,76.05913355719603L72.56233677083333,51.715480134317666L72.63892229166666,37.10928808059052L72.74728265625001,28.34557284835428L72.91756322916667,23.087343709012572L73.37789109375,19.932406225407604L73.45447661458333,18.03944373524465L73.56283697916666,16.90366624114686L73.73311755208333,16.22219974468807L74.19344541666668,15.813319846812924L74.27003093750001,15.567991908087786L74.37839130208333,15.42079514485268L74.548671875,15.332477086911608L75.00899973958333,15.279486252147027L75.08558526041666,15.247691751288224L75.19394562500001,15.228615050772888L75.36422619791666,15.217169030463815L75.8245540625,15.210301418278316L75.90113958333333,15.206180850967021L76.00949994791667,15.203708510580142L76.17978052083333,15.202225106348132L76.29710302083333,180.00133506380888L76.64010838541667,114.08080103828534L76.82505427083333,74.52848062297126L76.99533484375,50.797088373782756L77.11265734375,36.558253024269646L77.45566270833334,28.014951814561748L77.64060859375,22.888971088736987L77.81088916666667,19.813382653242115L77.92821166666666,17.96802959194519L78.27121703125,16.860817755167044L78.45616291666666,16.19649065310023L78.62644348958332,15.79789439186006L78.74376598958334,15.55873663511611L79.07292078125,206.45524198106972L79.08677135416667,129.9531451886418L79.16417161458334,126.29188711318511L79.44199781249999,81.85513226791099L79.88847510416667,55.193079360746566L79.90232567708333,39.195847616448006L79.9797259375,29.597508569868836L80.25755213541667,23.838505141921274L80.70402942708333,20.383103085152825L80.71788,18.309861851091775L80.79528026041666,17.065917110655022L81.07310645833334,16.31955026639298L81.51958375,15.871730159835723L81.53343432291668,15.603038095901496L81.61083458333333,15.44182285754087L81.88866078125,15.345093714524593L82.33513807291668,15.287056228714752L82.34898864583333,15.252233737228925L82.42638890625,15.231340242337312L82.70421510416666,15.218804145402466L83.15069239583333,15.211282487241444L83.16454296875,15.206769492344945L83.24194322916667,15.204061695406928L83.51976942708335,15.20243701724411L83.96624671875,15.201462210346474L83.98009729166667,15.200877326207959L84.05749755208333,15.20052639572478L84.33532375,15.20031583743493L84.6530721875,101.60018950246105L84.78180104166667,67.04011370147656L84.79565161458332,46.3040682208859L85.15087807291667,33.86244093253153L85.46862651041667,26.397464559519L85.59735536458332,21.91847873571132L85.6112059375,19.231087241426764L85.96643239583334,17.61865234485612L86.1782646875,58.251191406913684L86.4129096875,41.03071484414813L86.42676026041667,30.69842890648888L86.78198671874999,24.499057343893412L86.9115303125,145.259434406336L86.99381901041666,93.23566064380155L87.24231458333333,62.021396386280855L87.28305156249999,166.8128378317685L87.59998526041666,188.40770269906116L87.72708463541666,119.12462161943668L88.05786890625,77.55477297166199L88.09860588541667,52.61286378299719L88.24770322916667,103.56771826979829L88.54263895833333,68.22063096187902L88.87342322916668,47.0123785771275L88.91416020833333,34.28742714627643L89.06325755208333,26.65245628776593L89.35819328125001,22.07147377265956L89.68897755208333,19.32288426359573L89.72971453125,17.67373055815752L89.878811875,16.684238334894502L90.17374760416666,16.090543000936677L90.504531875,15.734325800561958L90.54526885416666,15.52059548033721L90.69436619791666,15.392357288202408L90.98930192708333,15.315414372921449L91.32008619791667,15.269248623752905L91.36082317708333,15.241549174251665L91.50992052083333,15.224929504551065L91.80485625,15.214957702730686L92.05742552083333,120.4889746216384L92.13564052083332,78.37338477298307L92.1763775,53.104030863789916L92.61878109375,137.78241851827397L92.62041057291665,88.74945111096442L92.95119484375,59.329670666578565L92.99193182291667,41.67780239994718L93.43433541666666,31.086681439968373L93.43596489583334,24.732008863980994L93.76674916666667,20.919205318388606L93.80748614583332,18.631523191033196L94.24988973958334,17.258913914619924L94.25151921875,16.435348348771907L94.58230348958332,15.94120900926318L94.62304046874999,15.644725405557974L94.99782067708334,42.02683524333479L95.06707354166666,31.296101146000908L95.39785781249999,24.85766068760057L95.43859479166667,20.99459641256035L95.55754677083333,146.35675784753622L95.81337500000001,93.89405470852171L96.21341213541668,62.41643282511305L96.25414911458333,43.5298596950679L96.37310109375,32.19791581704067L96.39591380208333,116.91874949022441L97.02896645833333,76.23124969413458L97.0697034375,51.81874981648071L97.18865541666668,37.17124988988836L97.21146812500001,28.382749933932967L97.84452078125,23.109649960359818L97.88525776041666,19.94578997621593L98.00420973958333,18.04747398572964L98.02702244791666,16.908484391437735L98.60630229166667,53.34509063486266L98.64459505208333,106.88705438091765L98.66007510416667,70.21223262855057L98.84257677083333,48.20733957713036L99.42185661458333,35.00440374627814L99.460149375,27.08264224776685L99.47562942708333,22.32958534866011L99.61983833333333,34.51775120919609L100.2374109375,26.79065072551765L100.27570369791667,22.1543904353106L100.29118375,19.372634261186434L100.43539265625,17.70358055671187L100.965788125,50.94214833402712L101.09125802083332,36.64528900041624L101.10673807291667,28.067173400249708L101.25094697916666,22.920304040149865L101.77319505208334,23.03218242408984L101.90681234375,19.89930945445394L101.92229239583334,18.0195856726723L102.06650130208332,16.89175140360331L102.47875953124999,59.41505084216206L102.72236666666667,41.7290305052973L102.73784671874999,31.11741830317841L102.882055625,24.750450981907118L103.29431385416667,20.930270589144314L103.53792098958333,18.638162353486592L103.55340104166667,17.262897412092016L103.69760994791666,16.43773844725528L104.10986817708333,15.942643068353208L104.3534753125,15.645585841011952L104.36895536458334,15.467351504607167L104.51316427083333,15.3604109027643L104.9254225,15.29624654165855L104.98489848958333,150.2977479249951L105.16902963541666,96.25864875499701L105.1845096875,63.835189252998134L105.74097682291666,44.381113551798805L105.80045281250001,32.70866813107933L105.98458395833333,25.705200878647517L106.00006401041666,21.503120527188543L106.55653114583333,18.98187231631309L106.61600713541667,17.469123389787825L106.61763661458333,88.2414740338727L106.81561833333333,59.024884420323545L107.37208546875,41.49493065219413L107.43156145833333,30.976958391316472L107.4331909375,24.666175034789916L107.63117265625,20.879705020873928L108.18763979166667,18.607823012524385L108.24711578125,17.2446938075147L108.24874526041665,16.426816284508824L108.44672697916667,15.936089770705252L108.92742333333334,68.76165386242319L109.00319411458334,47.33699231745395L109.06429958333334,34.48219539047241L109.26228130208334,26.76931723428352L109.74297765625,22.141590340570108L109.81874843749999,19.364954204342038L109.87985390625,17.69897252260526L110.07783562499999,16.69938351356322L110.26929942708334,129.6996301081379L110.63430276041667,83.89977806488278L110.69540822916666,56.41986683892975L110.89338994791667,39.93192010335788L110.90805526041666,99.47915206201469L111.23476583333334,174.24749123720886L111.44985708333334,110.62849474232533L111.70894427083334,72.45709684539524L111.72360958333334,49.55425810723718L111.86048583333334,110.37255486434233L112.26541140625,72.30353291860538L112.43406250000001,90.74211975116323L112.52449859375,60.525271850697926L112.61004625000001,68.31516311041878L113.08096572916666,47.0690978662513L113.21376828125,48.401458719750735L113.26183791666666,99.44087523185044L113.34005291666666,65.7445251391102L113.81586083333333,77.20671508346605L114.02932260416667,52.404029050079586L114.07739223958333,37.522417430047796L114.15560723958333,28.59345045802874L114.63141515625,23.23607027481721L114.73081338541667,83.7016421648903L114.84487692708333,56.30098529893421L114.9711615625,39.860591179360554L115.44696947916667,29.9963547076164L115.46652322916665,55.43781282456985L115.66043125,39.34268769474184L115.78671588541667,29.685612616845166L116.09468744791667,89.8113675701071L116.28207755208334,59.96682054206431L116.47598557291667,42.06009232523866L116.60227020833334,31.316055395143117L116.91024177083332,24.86963323708587L117.08866973958332,100.68177994225152L117.097631875,66.48906796535084L117.41782453124999,45.97344077921044L117.72579609375,33.664064467526266L117.79504895833333,69.1584386805158L117.91318619791666,47.575063208309444L118.23337885416667,34.62503792498573L118.48513338541667,76.1350227549914L118.54135041666667,51.761013652994926L118.72874052083333,37.13660819179695L119.04893317708334,28.36196491507817L119.30068770833333,23.09717894904697L119.35690473958333,19.93830736942818L119.54429484375001,18.042984421656904L119.8644875,16.90579065299407L119.913371875,95.90347439179641L120.1724590625,63.62208463507777L120.35984916666666,44.2532507810467L120.68004182291666,32.63195046862802L120.72892619791668,25.659170281176742L120.84869291666666,76.19550216870601L121.17540348958333,51.79730130122353L121.49559614583333,37.15838078073412L121.54448052083333,28.375028468440544L121.66424723958333,23.105017081064393L121.7074284375,131.30301024863874L122.28507880208333,114.30180614918326L122.31115046875,74.6610836895099L122.33885161458333,123.19665021370592L122.4798015625,79.9979901282235L123.10063312499999,54.07879407693418L123.10878052083332,111.80727644616056L123.12670479166667,73.16436586769632L123.15440593749999,49.97861952061777L123.76627536458335,94.94717171237062L123.89907791666666,72.96830302742237L123.94225911458334,49.860981816453375L123.96996026041666,35.99658908987204L124.5818296875,27.67795345392314L124.71463223958335,22.686772072353953L124.73907442708334,37.93206324341236L124.75781343749999,28.839237946047437L125.39738401041667,23.383542767628388L125.51715072916667,34.83012566057705L125.5301865625,26.978075396346142L125.57336776041666,22.26684523780768L126.11272536458333,105.84010714268462L126.21293833333334,69.58406428561084L126.34574088541667,47.83043857136654L126.38892208333333,34.77826314281992L126.9282796875,26.946957885691884L126.94131552083333,56.48817473141517L127.16129520833334,39.972904838849175L127.20447640624998,30.063742903309496L127.59799562499998,86.51824574198562L127.65584213541665,92.55094744519137L127.92715041666666,81.13056846711488L128.02003072916668,54.758341080268835L128.4135499479167,38.93500464816134L128.47139645833334,29.441002788896732L128.74270473958333,23.744601673337996L128.83558505208333,20.326761004002776L129.22910427083335,18.276056602401688L129.28695078125,17.04563396144095L129.55825906249999,16.307380376864607L129.651139375,15.864428226118799L130.04465859375,15.598656935671357L130.10250510416668,15.439194161402881L130.13998312500001,107.18351649684172L130.46669369791667,70.39010989810504L130.86021291666668,48.314065938862946L130.8879140625,61.62843956331771L130.91805942708334,43.05706373799058L131.28224802083332,31.91423824279428L131.67576723958334,25.2285429456766L131.70346838541667,21.21712576740593L131.73361375,18.810275460443528L132.09780234375,17.366165276266102L132.48317416666666,30.579699165759667L132.4913215625,24.427819499455843L132.54916807291667,20.736691699673422L132.91335666666666,18.522015019803987L133.29872848958334,17.19320901188239L133.30687588541667,16.395925407129468L133.36472239583333,15.917555244277711L133.7289109895833,15.63053314656663L133.90489473958334,97.69831988793995L134.12243020833333,64.69899193276396L134.18027671874998,44.899395159658354L134.5444653125,33.01963709579505L134.7204490625,25.8917822574771L134.93798453124998,21.615069354486327L134.94694666666666,38.24904161269187L135.36001963541668,29.029424967615157L135.53600338541668,23.497654980569123L135.69732182291665,45.77859298834156L135.7535388541667,33.547155793005L136.17557395833333,26.208293475802932L136.35155770833333,21.80497608548176L136.4868044791667,51.48298565128907L136.51287614583333,36.96979139077338L136.99112828125,28.261874834464116L137.07749067708335,111.35712490067843L137.16711203124999,72.894274940407L137.28036083333333,68.69656496424413L137.78142567708332,126.33793897854648L137.80668260416667,81.88276338712785L137.893045,55.20965803227663L137.98836953125,81.44579481936599L138.59698,54.947476891619594L138.60268317708335,80.64848613497179L138.62223692708332,54.469091680983L138.80392385416667,38.76145500858985L139.330245625,61.65687300515391L139.35305833333334,68.67412380309233L139.43779125,47.28447428185536L139.61947817708332,34.45068456911323L140.083065,51.3904107414679L140.16861265625002,36.9142464448807L140.25334557291666,28.228547866928412L140.3894070833333,40.937128720157034L140.89861932291666,30.642277232094248L140.98416697916667,24.465366339256615L141.0688998958333,20.759219803553975L141.20496140625,18.535531882132457L141.71417364583334,17.201319129279554L141.79972130208333,16.400791477567687L141.88445421875,15.920474886540621L142.02051572916668,15.632284931924373L142.49550890625,28.899370959154655L142.615275625,23.419622575492753L142.70000854166668,20.131773545295616L142.75866979166665,48.5590641271774L143.31106322916668,35.215438476306375L143.43082994791666,27.209263085783824L143.51556286458333,22.40555785147025L143.57422411458336,19.52333471088222L144.12661755208333,17.79400082652937L144.15268921875,53.55640049591766L144.27327067708333,83.97384029755058L144.3311171875,56.464304178530256L144.94217187499999,39.958582507118074L144.96824354166668,30.055149504270773L145.088825,24.113089702562494L145.14667151041667,20.547853821537508L145.64529213541667,72.80871229292242L145.75772619791667,49.765227375753426L145.76587359375,90.33913642545211L145.96222583333332,60.2834818552712L146.29708380208334,106.5700891131627L146.57328052083332,70.02205346789759L146.58142791666668,48.09323208073856L146.77778015625,34.93593924844318L147.0881959375,36.64156354906591L147.27477130208334,76.06493812943954L147.38883484375,51.71896287766377L147.59333447916666,37.11137772659822L147.90375026041667,28.34682663595887L148.090325625,23.088095981575307L148.2043891666667,19.93285758894527L148.4088888020833,18.03971455336723L148.5612451041667,78.98382873202026L148.90587994791665,53.470297239212236L149.01994348958334,38.16217834352737L149.224443125,28.977307006116455L149.37679942708334,23.46638420366981L149.72143427083333,20.159830522201815L149.8354978125,18.175898313321166L150.03999744791668,16.985538987992733L150.19235375,16.271323392795594L150.40011234375,69.60279403567738L150.65105213541668,47.841676421406376L150.85555177083333,34.785005852843824L151.00790807291668,26.95100351170621L151.21566666666666,22.25060210702378L151.46660645833333,19.43036126421429L151.67110609375,17.738216758528495L151.82346239583333,16.722930055117104L152.03122098958335,16.11375803307019L152.09802963541668,88.06825481984214L152.48666041666667,58.92095289190529L152.63901671874999,41.43257173514321L152.82640682291668,38.93954304108593L152.91358395833333,29.443725824651494L153.30221473958332,23.746235494790927L153.45457104166667,20.3277412968746L153.4724953125,84.83664477812472L153.72913828125002,56.981986866874834L154.1177690625,40.26919212012489L154.27012536458332,30.24151527207487L154.28804963541666,24.224909163244963L154.45670072916667,55.174945497946915L154.88199479166667,126.22496729876812L154.93332338541666,81.81498037926086L155.08567968749998,55.168988227556476L155.27225505208332,39.181392936533854L155.55089598958332,87.18883576192039L155.74887770833334,58.393301457152305L155.9012340104167,41.115980874291374L156.05847875,42.26958852457482L156.3664503125,31.441753114744824L156.56443203125,24.945051868846896L156.71678833333334,21.047031121308105L156.8740330729167,18.70821867278482L157.17059828125,21.784931203670933L157.37998635416668,19.150958722202624L157.38976322916668,73.5705752333215L157.68958739583334,50.22234513999283L157.98615260416665,36.21340708399566L158.19554067708333,27.808044250397334L158.20531755208333,22.764826550238475L158.50514171875,19.738895930143016L158.65994223958336,73.60333755808587L158.9768759375,67.52200253485154L158.99480020833334,174.59320152091095L159.011095,110.83592091254651L159.35735932291666,118.98155254752784L159.79243026041667,77.46893152851662L159.81035453125,52.56135891711001L159.82664932291667,37.61681535026601L160.16639572916668,31.210089210159545L160.58028343750001,42.72605352609571L160.60798458333332,31.71563211565735L160.64220364583335,25.109379269394417L160.98195005208333,21.145627561636694L161.191338125,99.08737653698198L161.42353890625,65.5324259221892L161.45775796875,45.399455553313594L161.60441109375,109.15967333198815L161.87816359375,122.13580399919283L162.1250296875,124.16148239951562L162.20731838541667,164.09688943970943L162.27331229166666,104.53813366382565L162.69371791666669,68.80288019829531L162.8485184375,115.84172811897714L162.94058401041667,75.58503687138636L163.08886661458334,51.43102212283175L163.50927223958334,36.93861327369904L163.66407276041664,28.243167964219353L163.75613833333333,23.025900778531657L163.9044209375,19.89554046711891L164.20424510416666,65.3773242802713L164.417706875,69.62639456816278L164.57169265624998,47.85583674089759L164.71997526041667,34.79350204453858L164.90410640625,72.39610122672312L165.09475546875,103.91766073603394L165.30006984374998,102.67059644162035L165.53552958333336,67.68235786497225L165.71966072916666,46.68941471898342L165.86712859375,51.05364883138999L166.10584729166666,40.55218929883404L166.35108390625,30.411313579300447L166.53521505208332,24.326788147580203L166.55313932291668,71.55607288854807L166.92140161458335,49.013643733128816L167.16663822916667,35.488186239877365L167.350769375,27.372911743926483L167.36869364583333,22.503747046355972L167.663629375,48.38224822781359L167.98219255208335,35.10934893668819L168.16632369791668,27.14560936201288L168.18424796875,22.367365617207724L168.289349375,94.0604193703246L168.797746875,62.51625162219479L168.8498902083333,102.46975097331689L168.91588411458335,93.48185058399012L169.10490369791668,62.16911035039412L169.61330119791666,43.38146621023643L169.62063385416667,49.70887972614182L169.72899421875,111.10532783568506L169.7314384375,72.74319670141104L170.23820645833334,127.48591802084665L170.42885552083334,82.57155081250804L170.54454854166664,55.6229304875049L170.54699276041669,39.45375829250296L170.909551875,86.39225497550179L171.24440984375,57.91535298530108L171.36010286458333,40.82921179118057L171.36254708333334,30.577527074708275L171.72510619791666,24.426516244824967L172.05996416666667,20.735909746895057L172.1756571875,18.52154584813707L172.17810140625,17.192927508882168L172.5406605208333,16.395756505329338L172.82337515625,81.83745390319764L172.87551848958336,55.18247234191858L172.96351036458333,51.02948340515114L173.35621484375002,36.69769004309074L173.63892947916665,28.09861402585447L173.6910728125,22.939168415512725L173.77906468749998,19.843501049307633L174.17176916666668,17.986100629584513L174.45448380208333,16.87166037775077L174.50662713541666,16.20299622665044L174.59461901041666,15.801797735990295L174.84067036458333,73.16107864159422L175.270038125,49.97664718495653L175.32218145833335,36.06598831097399L175.41017333333335,27.719592986584402L175.57312124999999,55.351755791950666L176.08559244791667,39.291053475170344L176.13773578125,29.65463208510228L176.22409817708333,88.51277925106132L176.22572765625,59.18766755063679L176.90114677083335,41.59260053038215L176.95329010416665,31.03556031822936L177.02172822916668,31.741336190937627L177.04128197916665,25.12480171456263L177.71670109375,21.154881028737506L177.72484848958334,62.932928617242496L177.76884442708334,43.83975717034556L177.85683630208334,32.383854302207325L178.49966583333332,41.51031258132443L178.53225541666666,30.986187548794625L178.58439875,24.671712529276743L178.672390625,20.883027517566003L179.31522015625,18.609816510539527L179.34780973958334,17.24588990632364L179.39995307291667,16.42753394379416L179.48794494791667,15.936520366276449L179.75762375,162.20191221976583L180.03219098958334,154.92114733185954L180.21550739583336,99.03268839911571L180.30349927083333,65.49961303946948L180.4974072916667,75.13976782368164L180.8477453125,51.163860694208964L181.03106171875,36.77831641652538L181.11905359374998,28.146989849915187L181.31296161458334,22.968193909949157L181.53375604166666,70.74091634596952L181.84661604166666,48.524549807581764L181.93460791666666,35.19472988454909L182.1285159375,27.196837930729448L182.34931036458332,22.398102758437737L182.66217036458335,19.518861655062565L182.75016223958335,17.79131699303761L182.91473963541668,28.27479019582261L183.1648646875,23.0448741174936L183.4777246875,19.906924470496236L183.5657165625,18.02415468229775L183.68466854166667,34.81449280937868L183.92338723958332,49.36869568562724L184.29327901041665,35.70121741137626L184.38127088541668,27.500730446825767L184.50022286458332,22.580438268095534L184.69657510416667,36.268262960857285L185.10883333333334,27.840957776514372L185.19682520833334,22.78457466590862L185.22534109375,55.27074479954517L185.42658177083334,72.84244687972713L185.92438765625,49.78546812783625L186.01237953125,35.95128087670183L186.04089541666667,27.65076852602105L186.24213609375002,22.670461115612667L186.73994197916664,19.68227666936764L186.8018621875,39.329366001620556L186.82793385416667,29.677619600972324L187.05769041666667,23.886571760583323L187.55549630208336,20.411943056349987L187.6174165104167,18.327165833810074L187.64348817708333,17.07629950028604L187.77710546875,54.08577970017159L188.371050625,38.53146782010298L188.41912026041666,34.63888069206178L188.45904249999998,26.86332841523708L188.59265979166665,22.197997049142206L189.18660494791666,19.39879822948533L189.23467458333332,17.719278937691158L189.2745968229167,16.71156736261474L189.33896125,43.30694041756887L190.00215927083335,32.0641642505414L190.01600984375,38.758498550324845L190.09015114583335,29.33509913019497L190.15451557291667,23.681059478116918L190.78919770833335,36.928635686870166L190.81771359375,28.237181412122112L190.90570546875,23.022308847273237L190.94807192708333,28.53338530836391L191.60475203125,23.200031185018275L191.63326791666665,20.000018711011027L191.72125979166668,18.080011226606622L191.76362625000002,16.928006735963933L192.30298385416665,62.31680404157833L192.44882223958334,43.47008242494703L192.53681411458334,32.16204945496829L192.57918057291667,25.377229672981038L193.05254427083335,47.22633780378864L193.2643765625,34.41580268227317L193.3523684375,26.729481609363933L193.39473489583332,22.117688965618434L193.68722640625,90.3906133793711L194.07993088541664,60.314368027622734L194.16792276041667,42.268620816573645L194.17688489583333,44.56117248994423L194.33983281250002,96.81670349396646L194.89548520833335,64.17002209637994L194.98347708333333,44.582013257827924L194.99243921875,32.82920795469673L195.15538713541667,25.777524772818097L195.70696583333333,61.22651486369086L195.71103953125,42.81590891821451L195.79903140624998,31.769545350928645L195.97094145833333,25.141727210557107L196.52659385416666,21.165036326334302L196.6145857291667,18.77902179580051L196.78649578125,17.34741307748027L197.27778375,16.488447846488082L197.34214817708335,15.973068707892892L197.34296291666666,49.9038412247357L197.51405822916666,70.58230473484136L198.07622854166667,80.74938284090484L198.09333807291668,54.52962970454281L198.1577025,38.79777782272577L198.32961255208335,29.35866669363549L198.89178286458335,23.695200016181296L198.90889239583333,20.297120009708852L198.97325682291665,18.258272005825354L199.00503166666667,72.0749632034952L199.44417630208332,159.40497792209717L199.7008192708333,104.28298675325823L199.78881114583334,68.64979205195486L199.82058598958335,47.26987523117295L200.1570734375,74.76192513870382L200.37949734375002,104.69715508322224L200.60436546875,68.89829304993327L200.6361403125,47.41897582995989L200.97262776041666,34.53138549797586L201.19505166666667,26.79883129878544L201.41991979166664,22.159298779271204L201.4516946354167,19.375579267562713L201.76129567708333,28.265347560537602L202.01060598958333,23.039208536322626L202.23547411458335,19.903525121793614L202.26724895833334,18.02211507307621L202.49456130208333,49.213269043845784L202.63795546875,109.52796142630748L202.83349296875,169.71677685578453L203.0510284375,107.91006611347075L203.310115625,70.82603966808239L203.45350979166668,48.57562380084946L203.64904729166665,35.22537428050964L204.12566994791666,27.215224568305707L204.26906411458333,22.409134740983426L204.46460161458333,19.525480844590128L204.68213708333334,17.79528850675414L204.94122427083332,16.757173104052526L205.0846184375,16.134303862431445L205.2801559375,15.760582317458827L205.49769140625,15.536349390475335L205.75677859375,15.401809634285193L205.90017276041667,15.32108578057105L206.09571026041667,15.272651468342692L206.31324572916665,15.243590881005545L206.51530114583332,93.94615452860334L206.57233291666668,62.44769271716195L206.91126458333335,43.54861563029717L207.12880005208334,32.20916937817837L207.33085546874997,25.405501626907053L207.38788723958334,21.323300976144306L207.72681890625,18.873980585686517L207.944354375,17.404388351411946L208.12685604166666,24.202633010847237L208.16270458333335,36.60157980650838L208.54237322916666,28.040947883905034L208.75990869791664,22.904568730343097L208.9424103645833,19.822741238205886L208.97825890625,17.973644742923543L209.35792755208334,16.86418684575419L209.57546302083335,16.198512107452558L209.67078755208334,64.1191072644716L209.75796468750002,44.55146435868301L210.173481875,32.810878615209724L210.39101734375,25.766527169125773L210.48634187500002,21.539916301475387L210.57351901041667,19.003949780885158L210.98903619791665,17.48236986853117L211.14546619791668,112.24942192111865L211.14709567708334,134.2296531526712L211.20657166666666,86.6177918916027L211.74674401041665,80.77067513496168L211.96102052083333,54.542405080977005L211.96265,38.80544304858613L212.02212598958334,29.36326582915172L212.56229833333333,23.69795949749095L212.59244369791665,92.61877569849457L212.77820432291665,61.651265419096674L212.8376803125,43.070759251458014L213.37785265625,31.922455550874837L213.39740640625,29.393473330524916L213.53428265625,47.07608399831497L213.65323463541665,34.32565039898892L214.19340697916667,26.675390239393337L214.1966659375,28.48523414363607L214.34902223958332,23.49114048618167L214.46878895833333,20.17468429170894L214.99511072916667,23.624810575025375L215.01222026041665,20.254886345015258L215.1645765625,18.23293180700911L215.28434328125,17.01975908420554L215.81066505208332,16.291855450523332L215.82777458333334,15.855113270314003L215.97931614583334,15.913067962188416L216.09989760416664,15.627840777313038L216.62621937499998,15.456704466387784L216.63681098958332,17.91402267983267L216.79487046875002,16.828413607899535L216.91545192708335,16.177048164739794L217.44177369791666,15.786228898843909L217.4523653125,15.551737339306428L217.59413,21.811042403583816L217.73100625,19.166625442150327L218.11148963541666,74.85997526529026L218.26791963541666,50.99598515917424L218.34124619791666,63.55759109550455L218.54656057291666,44.214554657302685L218.92704395833334,32.60873279438165L219.08347395833334,25.64523967662899L219.12421093749998,34.26714380597733L219.36211489583334,26.640286283586473L219.74259828125,22.06417177015192L219.89902828125,19.318503062091075L220.17766921875,17.671101837254724L220.47912286458333,47.72266110235287L220.62577598958333,85.59359666141171L220.71458260416665,57.43615799684704L220.99322354166665,40.54169479810825L221.26697604166665,41.28501687886491L221.43073869791667,35.01101012731896L221.48288203125,45.646606076391336L221.80877786458333,33.467963645834786L222.08253036458333,26.160778187500902L222.24629302083335,21.776466912500478L222.29843635416665,19.145880147500257L222.6243321875,17.56752808850014L222.80194541666665,54.38051685310011L223.06184734375,38.708310111860015L223.11399067708334,29.304986067116083L223.43988651041664,23.662991640269688L223.61749973958334,20.27779498416185L223.87740166666669,18.246676990497154L223.929545,17.028006194298356" style="fill: none;" fill="none"></path></g></g></g></g><g opacity="0.2"><g><g><g><path stroke="rgb(204, 51, 17)" stroke-width="2px" d="M21.18404390625,15.19999999999999L21.999598229166665,15.19999999999999L22.815152552083333,15.19999999999999L23.630706875,15.19999999999999L24.446261197916666,15.19999999999999L25.261815520833334,15.19999999999999L26.07736984375,15.19999999999999L26.892924166666667,15.19999999999999L27.70847848958333,15.19999999999999L28.5240328125,15.19999999999999L29.337957656249998,16.8L29.339587135416668,15.19999999999999L30.153511979166666,15.19999999999999L30.155141458333333,15.19999999999999L30.969066302083334,15.19999999999999L30.970695781249997,15.19999999999999L31.784620625,15.19999999999999L31.78625010416667,15.19999999999999L32.60017494791667,15.19999999999999L32.60180442708333,15.19999999999999L33.41572927083333,15.19999999999999L33.417358750000005,15.19999999999999L34.06996515625,175.20000000000002L34.23128359375,15.19999999999999L34.78041807291666,278.4L34.87329838541667,187.20000000000002L34.88551947916667,15.19999999999999L35.04683791666667,15.19999999999999L35.424877083333335,286.40000000000003L35.595972395833336,15.19999999999999L35.68885270833333,15.19999999999999L35.862392239583336,15.19999999999999L36.21028604166667,44.8L36.41152671875,15.19999999999999L36.504407031250004,15.19999999999999L36.6779465625,15.19999999999999L37.02584036458333,15.19999999999999L37.227081041666665,15.19999999999999L37.319961354166665,15.19999999999999L37.493500885416665,15.19999999999999L37.78354817708333,360.79999999999995L37.84139468750001,15.19999999999999L38.04263536458333,15.19999999999999L38.309055208333334,15.19999999999999L38.5991025,15.19999999999999L38.65694901041667,15.19999999999999L38.8581896875,15.19999999999999L39.022767083333335,399.99999999999994L39.117276874999995,364L39.124609531249995,15.19999999999999L39.416286302083336,429.6L39.67374401041667,15.19999999999999L39.93283119791667,15.19999999999999L39.94016385416667,15.19999999999999L40.231840625,15.19999999999999L40.34020098958333,415.99999999999994L40.48929833333334,15.19999999999999L40.75571817708333,15.19999999999999L40.88526177083333,427.2L41.04576546875,123.19999999999999L41.04739494791667,15.19999999999999L41.26493041666667,443.2L41.5712725,15.19999999999999L41.63808114583333,449.6L41.77251317708333,102.39999999999999L41.86294927083333,15.19999999999999L41.9965665625,464.00000000000006L42.38682682291667,15.19999999999999L42.45037651041667,150.39999999999998L42.678503593749994,15.19999999999999L42.80967666666667,463.2L42.81212088541666,15.19999999999999L43.202381145833336,15.19999999999999L43.49405791666667,15.19999999999999L43.62523098958333,15.19999999999999L43.627675208333336,15.19999999999999L43.98779010416666,459.99999999999994L44.01793546875,15.19999999999999L44.30961223958333,15.19999999999999L44.345460781250004,464.79999999999995L44.44322953125,15.19999999999999L44.643655468750005,487.99999999999994L44.752830572916665,512L44.833489791666665,15.19999999999999L45.161015104166665,15.19999999999999L45.25796911458334,320L45.459209791666666,15.19999999999999L45.64904411458333,15.19999999999999L45.976569427083334,15.19999999999999L46.00427057291667,83.2L46.274764114583334,15.19999999999999L46.327722187499994,471.2L46.4645984375,15.19999999999999L46.64954432291667,500L46.81982489583333,15.19999999999999L47.0903184375,15.19999999999999L47.28015276041667,15.19999999999999L47.46509864583333,15.19999999999999L47.63537921875,15.19999999999999L47.90587276041667,15.19999999999999L48.09570708333333,15.19999999999999L48.20895588541667,518.4L48.280652968750005,15.19999999999999L48.450933541666664,15.19999999999999L48.911261406250006,15.19999999999999L49.02451020833333,15.19999999999999L49.096207291666666,15.19999999999999L49.26648786458333,15.19999999999999L49.72681572916667,15.19999999999999L49.84006453125,15.19999999999999L49.91176161458333,15.19999999999999L50.0820421875,15.19999999999999L50.49674463541667,171.20000000000002L50.542370052083335,15.19999999999999L50.7273159375,15.19999999999999L50.79412458333333,524L50.89759651041666,15.19999999999999L51.357924375,15.19999999999999L51.54287026041666,15.19999999999999L51.609678906250004,15.19999999999999L51.71315083333334,15.19999999999999L52.173478697916664,15.19999999999999L52.35842458333333,15.19999999999999L52.425233229166665,15.19999999999999L52.52870515625,15.19999999999999L52.98903302083333,15.19999999999999L53.17397890625,15.19999999999999L53.24078755208333,15.19999999999999L53.344259479166666,15.19999999999999L53.80458734375,15.19999999999999L53.98953322916667,15.19999999999999L54.056341875,15.19999999999999L54.159813802083335,15.19999999999999L54.61769744791667,264.79999999999995L54.62014166666667,15.19999999999999L54.805087552083336,15.19999999999999L54.97210916666667,468L54.975368125,15.19999999999999L55.37296104166667,422.4L55.43569598958333,15.19999999999999L55.620641875000004,15.19999999999999L55.728187500000004,467.19999999999993L55.790922447916664,15.19999999999999L56.14207520833333,409.59999999999997L56.251250312500005,15.19999999999999L56.436196197916665,15.19999999999999L56.52581755208333,439.19999999999993L56.60647677083334,15.19999999999999L57.066804635416666,15.19999999999999L57.25175052083333,15.19999999999999L57.341371875,15.19999999999999L57.42203109375,15.19999999999999L57.88235895833333,15.19999999999999L58.06730484375,15.19999999999999L58.15692619791666,15.19999999999999L58.23758541666666,15.19999999999999L58.436381874999995,541.6L58.69791328125,15.19999999999999L58.88285916666666,15.19999999999999L59.05313973958334,15.19999999999999L59.25193619791667,15.19999999999999L59.513467604166664,15.19999999999999L59.69841348958334,15.19999999999999L59.8686940625,15.19999999999999L60.06749052083333,15.19999999999999L60.32902192708333,15.19999999999999L60.5139678125,15.19999999999999L60.684248385416666,15.19999999999999L60.88304484375,15.19999999999999L61.14457625,15.19999999999999L61.32952213541667,15.19999999999999L61.45906572916666,250.40000000000003L61.49980270833334,15.19999999999999L61.778443645833335,502.4L61.96013057291666,15.19999999999999L62.145076458333335,15.19999999999999L62.282767447916676,320.8L62.31535703125,15.19999999999999L62.775684895833336,15.19999999999999L62.960630781249996,15.19999999999999L63.09832177083334,15.19999999999999L63.13091135416666,15.19999999999999L63.591239218750005,15.19999999999999L63.77618510416666,15.19999999999999L63.91387609375,15.19999999999999L63.94646567708333,15.19999999999999L64.40679354166667,15.19999999999999L64.59173942708334,15.19999999999999L64.65365963541667,468.8L64.76201999999999,15.19999999999999L64.97548177083333,500L65.22234786458333,15.19999999999999L65.40729375000001,15.19999999999999L65.57757432291667,15.19999999999999L65.79103609375001,15.19999999999999L66.0379021875,15.19999999999999L66.22040385416666,394.40000000000003L66.22284807291666,15.19999999999999L66.39312864583333,15.19999999999999L66.64814213541666,396L66.85345651041668,15.19999999999999L67.03840239583333,15.19999999999999L67.09461942708333,377.6L67.20868296875,15.19999999999999L67.36592770833333,549.6L67.66901083333333,15.19999999999999L67.85395671875001,15.19999999999999L68.02423729166667,15.19999999999999L68.18148203125,15.19999999999999L68.48456515625,15.19999999999999L68.53507901041667,468.8L68.66951104166667,15.19999999999999L68.83979161458333,15.19999999999999L68.96852046875,390.40000000000003L69.30011947916667,15.19999999999999L69.48506536458333,15.19999999999999L69.6553459375,15.19999999999999L69.78407479166667,15.19999999999999L70.11567380208334,15.19999999999999L70.20448041666667,403.20000000000005L70.3006196875,15.19999999999999L70.47090026041667,15.19999999999999L70.598814375,428.8L70.931228125,15.19999999999999L71.11617401041666,15.19999999999999L71.28645458333332,15.19999999999999L71.41436869791666,15.19999999999999L71.74678244791667,15.19999999999999L71.82336796875,414.4L71.93172833333334,15.19999999999999L72.10200890624999,15.19999999999999L72.56233677083333,15.19999999999999L72.63892229166666,15.19999999999999L72.74728265625001,15.19999999999999L72.91756322916667,15.19999999999999L73.37789109375,15.19999999999999L73.45447661458333,15.19999999999999L73.56283697916666,15.19999999999999L73.73311755208333,15.19999999999999L74.19344541666668,15.19999999999999L74.27003093750001,15.19999999999999L74.37839130208333,15.19999999999999L74.548671875,15.19999999999999L75.00899973958333,15.19999999999999L75.08558526041666,15.19999999999999L75.19394562500001,15.19999999999999L75.36422619791666,15.19999999999999L75.8245540625,15.19999999999999L75.90113958333333,15.19999999999999L76.00949994791667,15.19999999999999L76.17978052083333,15.19999999999999L76.29710302083333,427.2L76.64010838541667,15.19999999999999L76.82505427083333,15.19999999999999L76.99533484375,15.19999999999999L77.11265734375,15.19999999999999L77.45566270833334,15.19999999999999L77.64060859375,15.19999999999999L77.81088916666667,15.19999999999999L77.92821166666666,15.19999999999999L78.27121703125,15.19999999999999L78.45616291666666,15.19999999999999L78.62644348958332,15.19999999999999L78.74376598958334,15.19999999999999L79.07292078125,492.79999999999995L79.08677135416667,15.19999999999999L79.16417161458334,120.79999999999998L79.44199781249999,15.19999999999999L79.88847510416667,15.19999999999999L79.90232567708333,15.19999999999999L79.9797259375,15.19999999999999L80.25755213541667,15.19999999999999L80.70402942708333,15.19999999999999L80.71788,15.19999999999999L80.79528026041666,15.19999999999999L81.07310645833334,15.19999999999999L81.51958375,15.19999999999999L81.53343432291668,15.19999999999999L81.61083458333333,15.19999999999999L81.88866078125,15.19999999999999L82.33513807291668,15.19999999999999L82.34898864583333,15.19999999999999L82.42638890625,15.19999999999999L82.70421510416666,15.19999999999999L83.15069239583333,15.19999999999999L83.16454296875,15.19999999999999L83.24194322916667,15.19999999999999L83.51976942708335,15.19999999999999L83.96624671875,15.19999999999999L83.98009729166667,15.19999999999999L84.05749755208333,15.19999999999999L84.33532375,15.19999999999999L84.6530721875,231.20000000000002L84.78180104166667,15.19999999999999L84.79565161458332,15.19999999999999L85.15087807291667,15.19999999999999L85.46862651041667,15.19999999999999L85.59735536458332,15.19999999999999L85.6112059375,15.19999999999999L85.96643239583334,15.19999999999999L86.1782646875,119.19999999999999L86.4129096875,15.19999999999999L86.42676026041667,15.19999999999999L86.78198671874999,15.19999999999999L86.9115303125,326.4L86.99381901041666,15.19999999999999L87.24231458333333,15.19999999999999L87.28305156249999,324L87.59998526041666,220.79999999999998L87.72708463541666,15.19999999999999L88.05786890625,15.19999999999999L88.09860588541667,15.19999999999999L88.24770322916667,180L88.54263895833333,15.19999999999999L88.87342322916668,15.19999999999999L88.91416020833333,15.19999999999999L89.06325755208333,15.19999999999999L89.35819328125001,15.19999999999999L89.68897755208333,15.19999999999999L89.72971453125,15.19999999999999L89.878811875,15.19999999999999L90.17374760416666,15.19999999999999L90.504531875,15.19999999999999L90.54526885416666,15.19999999999999L90.69436619791666,15.19999999999999L90.98930192708333,15.19999999999999L91.32008619791667,15.19999999999999L91.36082317708333,15.19999999999999L91.50992052083333,15.19999999999999L91.80485625,15.19999999999999L92.05742552083333,278.4L92.13564052083332,15.19999999999999L92.1763775,15.19999999999999L92.61878109375,264.79999999999995L92.62041057291665,15.19999999999999L92.95119484375,15.19999999999999L92.99193182291667,15.19999999999999L93.43433541666666,15.19999999999999L93.43596489583334,15.19999999999999L93.76674916666667,15.19999999999999L93.80748614583332,15.19999999999999L94.24988973958334,15.19999999999999L94.25151921875,15.19999999999999L94.58230348958332,15.19999999999999L94.62304046874999,15.19999999999999L94.99782067708334,81.6L95.06707354166666,15.19999999999999L95.39785781249999,15.19999999999999L95.43859479166667,15.19999999999999L95.55754677083333,334.4L95.81337500000001,15.19999999999999L96.21341213541668,15.19999999999999L96.25414911458333,15.19999999999999L96.37310109375,15.19999999999999L96.39591380208333,243.99999999999997L97.02896645833333,15.19999999999999L97.0697034375,15.19999999999999L97.18865541666668,15.19999999999999L97.21146812500001,15.19999999999999L97.84452078125,15.19999999999999L97.88525776041666,15.19999999999999L98.00420973958333,15.19999999999999L98.02702244791666,15.19999999999999L98.60630229166667,108L98.64459505208333,187.20000000000002L98.66007510416667,15.19999999999999L98.84257677083333,15.19999999999999L99.42185661458333,15.19999999999999L99.460149375,15.19999999999999L99.47562942708333,15.19999999999999L99.61983833333333,52.80000000000001L100.2374109375,15.19999999999999L100.27570369791667,15.19999999999999L100.29118375,15.19999999999999L100.43539265625,15.19999999999999L100.965788125,100.80000000000001L101.09125802083332,15.19999999999999L101.10673807291667,15.19999999999999L101.25094697916666,15.19999999999999L101.77319505208334,23.200000000000003L101.90681234375,15.19999999999999L101.92229239583334,15.19999999999999L102.06650130208332,15.19999999999999L102.47875953124999,123.19999999999999L102.72236666666667,15.19999999999999L102.73784671874999,15.19999999999999L102.882055625,15.19999999999999L103.29431385416667,15.19999999999999L103.53792098958333,15.19999999999999L103.55340104166667,15.19999999999999L103.69760994791666,15.19999999999999L104.10986817708333,15.19999999999999L104.3534753125,15.19999999999999L104.36895536458334,15.19999999999999L104.51316427083333,15.19999999999999L104.9254225,15.19999999999999L104.98489848958333,352.80000000000007L105.16902963541666,15.19999999999999L105.1845096875,15.19999999999999L105.74097682291666,15.19999999999999L105.80045281250001,15.19999999999999L105.98458395833333,15.19999999999999L106.00006401041666,15.19999999999999L106.55653114583333,15.19999999999999L106.61600713541667,15.19999999999999L106.61763661458333,194.39999999999998L106.81561833333333,15.19999999999999L107.37208546875,15.19999999999999L107.43156145833333,15.19999999999999L107.4331909375,15.19999999999999L107.63117265625,15.19999999999999L108.18763979166667,15.19999999999999L108.24711578125,15.19999999999999L108.24874526041665,15.19999999999999L108.44672697916667,15.19999999999999L108.92742333333334,148L109.00319411458334,15.19999999999999L109.06429958333334,15.19999999999999L109.26228130208334,15.19999999999999L109.74297765625,15.19999999999999L109.81874843749999,15.19999999999999L109.87985390625,15.19999999999999L110.07783562499999,15.19999999999999L110.26929942708334,299.2L110.63430276041667,15.19999999999999L110.69540822916666,15.19999999999999L110.89338994791667,15.19999999999999L110.90805526041666,188.8L111.23476583333334,286.40000000000003L111.44985708333334,15.19999999999999L111.70894427083334,15.19999999999999L111.72360958333334,15.19999999999999L111.86048583333334,201.60000000000002L112.26541140625,15.19999999999999L112.43406250000001,118.4L112.52449859375,15.19999999999999L112.61004625000001,80L113.08096572916666,15.19999999999999L113.21376828125,50.400000000000006L113.26183791666666,176L113.34005291666666,15.19999999999999L113.81586083333333,94.4L114.02932260416667,15.19999999999999L114.07739223958333,15.19999999999999L114.15560723958333,15.19999999999999L114.63141515625,15.19999999999999L114.73081338541667,174.4L114.84487692708333,15.19999999999999L114.9711615625,15.19999999999999L115.44696947916667,15.19999999999999L115.46652322916665,93.6L115.66043125,15.19999999999999L115.78671588541667,15.19999999999999L116.09468744791667,180L116.28207755208334,15.19999999999999L116.47598557291667,15.19999999999999L116.60227020833334,15.19999999999999L116.91024177083332,15.19999999999999L117.08866973958332,214.4L117.097631875,15.19999999999999L117.41782453124999,15.19999999999999L117.72579609375,15.19999999999999L117.79504895833333,122.39999999999999L117.91318619791666,15.19999999999999L118.23337885416667,15.19999999999999L118.48513338541667,138.4L118.54135041666667,15.19999999999999L118.72874052083333,15.19999999999999L119.04893317708334,15.19999999999999L119.30068770833333,15.19999999999999L119.35690473958333,15.19999999999999L119.54429484375001,15.19999999999999L119.8644875,15.19999999999999L119.913371875,214.4L120.1724590625,15.19999999999999L120.35984916666666,15.19999999999999L120.68004182291666,15.19999999999999L120.72892619791668,15.19999999999999L120.84869291666666,152L121.17540348958333,15.19999999999999L121.49559614583333,15.19999999999999L121.54448052083333,15.19999999999999L121.66424723958333,15.19999999999999L121.7074284375,293.6L122.28507880208333,88.8L122.31115046875,15.19999999999999L122.33885161458333,195.99999999999997L122.4798015625,15.19999999999999L123.10063312499999,15.19999999999999L123.10878052083332,198.39999999999998L123.12670479166667,15.19999999999999L123.15440593749999,15.19999999999999L123.76627536458335,162.4L123.89907791666666,40L123.94225911458334,15.19999999999999L123.96996026041666,15.19999999999999L124.5818296875,15.19999999999999L124.71463223958335,15.19999999999999L124.73907442708334,60.8L124.75781343749999,15.19999999999999L125.39738401041667,15.19999999999999L125.51715072916667,51.99999999999999L125.5301865625,15.19999999999999L125.57336776041666,15.19999999999999L126.11272536458333,231.20000000000002L126.21293833333334,15.19999999999999L126.34574088541667,15.19999999999999L126.38892208333333,15.19999999999999L126.9282796875,15.19999999999999L126.94131552083333,100.80000000000001L127.16129520833334,15.19999999999999L127.20447640624998,15.19999999999999L127.59799562499998,171.20000000000002L127.65584213541665,101.6L127.92715041666666,64L128.02003072916668,15.19999999999999L128.4135499479167,15.19999999999999L128.47139645833334,15.19999999999999L128.74270473958333,15.19999999999999L128.83558505208333,15.19999999999999L129.22910427083335,15.19999999999999L129.28695078125,15.19999999999999L129.55825906249999,15.19999999999999L129.651139375,15.19999999999999L130.04465859375,15.19999999999999L130.10250510416668,15.19999999999999L130.13998312500001,244.79999999999998L130.46669369791667,15.19999999999999L130.86021291666668,15.19999999999999L130.8879140625,81.6L130.91805942708334,15.19999999999999L131.28224802083332,15.19999999999999L131.67576723958334,15.19999999999999L131.70346838541667,15.19999999999999L131.73361375,15.19999999999999L132.09780234375,15.19999999999999L132.48317416666666,50.400000000000006L132.4913215625,15.19999999999999L132.54916807291667,15.19999999999999L132.91335666666666,15.19999999999999L133.29872848958334,15.19999999999999L133.30687588541667,15.19999999999999L133.36472239583333,15.19999999999999L133.7289109895833,15.19999999999999L133.90489473958334,220.79999999999998L134.12243020833333,15.19999999999999L134.18027671874998,15.19999999999999L134.5444653125,15.19999999999999L134.7204490625,15.19999999999999L134.93798453124998,15.19999999999999L134.94694666666666,63.2L135.36001963541668,15.19999999999999L135.53600338541668,15.19999999999999L135.69732182291665,79.19999999999999L135.7535388541667,15.19999999999999L136.17557395833333,15.19999999999999L136.35155770833333,15.19999999999999L136.4868044791667,96L136.51287614583333,15.19999999999999L136.99112828125,15.19999999999999L137.07749067708335,236L137.16711203124999,15.19999999999999L137.28036083333333,62.39999999999999L137.78142567708332,212.79999999999998L137.80668260416667,15.19999999999999L137.893045,15.19999999999999L137.98836953125,120.79999999999998L138.59698,15.19999999999999L138.60268317708335,119.19999999999999L138.62223692708332,15.19999999999999L138.80392385416667,15.19999999999999L139.330245625,96L139.35305833333334,79.19999999999999L139.43779125,15.19999999999999L139.61947817708332,15.19999999999999L140.083065,76.80000000000001L140.16861265625002,15.19999999999999L140.25334557291666,15.19999999999999L140.3894070833333,60.00000000000001L140.89861932291666,15.19999999999999L140.98416697916667,15.19999999999999L141.0688998958333,15.19999999999999L141.20496140625,15.19999999999999L141.71417364583334,15.19999999999999L141.79972130208333,15.19999999999999L141.88445421875,15.19999999999999L142.02051572916668,15.19999999999999L142.49550890625,48.79999999999999L142.615275625,15.19999999999999L142.70000854166668,15.19999999999999L142.75866979166665,91.2L143.31106322916668,15.19999999999999L143.43082994791666,15.19999999999999L143.51556286458333,15.19999999999999L143.57422411458336,15.19999999999999L144.12661755208333,15.19999999999999L144.15268921875,107.2L144.27327067708333,129.6L144.3311171875,15.19999999999999L144.94217187499999,15.19999999999999L144.96824354166668,15.19999999999999L145.088825,15.19999999999999L145.14667151041667,15.19999999999999L145.64529213541667,151.20000000000002L145.75772619791667,15.19999999999999L145.76587359375,151.20000000000002L145.96222583333332,15.19999999999999L146.29708380208334,176L146.57328052083332,15.19999999999999L146.58142791666668,15.19999999999999L146.77778015625,15.19999999999999L147.0881959375,39.20000000000001L147.27477130208334,135.2L147.38883484375,15.19999999999999L147.59333447916666,15.19999999999999L147.90375026041667,15.19999999999999L148.090325625,15.19999999999999L148.2043891666667,15.19999999999999L148.4088888020833,15.19999999999999L148.5612451041667,170.4L148.90587994791665,15.19999999999999L149.01994348958334,15.19999999999999L149.224443125,15.19999999999999L149.37679942708334,15.19999999999999L149.72143427083333,15.19999999999999L149.8354978125,15.19999999999999L150.03999744791668,15.19999999999999L150.19235375,15.19999999999999L150.40011234375,149.6L150.65105213541668,15.19999999999999L150.85555177083333,15.19999999999999L151.00790807291668,15.19999999999999L151.21566666666666,15.19999999999999L151.46660645833333,15.19999999999999L151.67110609375,15.19999999999999L151.82346239583333,15.19999999999999L152.03122098958335,15.19999999999999L152.09802963541668,195.99999999999997L152.48666041666667,15.19999999999999L152.63901671874999,15.19999999999999L152.82640682291668,35.19999999999999L152.91358395833333,15.19999999999999L153.30221473958332,15.19999999999999L153.45457104166667,15.19999999999999L153.4724953125,181.6L153.72913828125002,15.19999999999999L154.1177690625,15.19999999999999L154.27012536458332,15.19999999999999L154.28804963541666,15.19999999999999L154.45670072916667,101.6L154.88199479166667,232.8L154.93332338541666,15.19999999999999L155.08567968749998,15.19999999999999L155.27225505208332,15.19999999999999L155.55089598958332,159.2L155.74887770833334,15.19999999999999L155.9012340104167,15.19999999999999L156.05847875,44L156.3664503125,15.19999999999999L156.56443203125,15.19999999999999L156.71678833333334,15.19999999999999L156.8740330729167,15.19999999999999L157.17059828125,26.400000000000006L157.37998635416668,15.19999999999999L157.38976322916668,155.2L157.68958739583334,15.19999999999999L157.98615260416665,15.19999999999999L158.19554067708333,15.19999999999999L158.20531755208333,15.19999999999999L158.50514171875,15.19999999999999L158.65994223958336,154.4L158.9768759375,58.39999999999999L158.99480020833334,335.2L159.011095,15.19999999999999L159.35735932291666,131.20000000000002L159.79243026041667,15.19999999999999L159.81035453125,15.19999999999999L159.82664932291667,15.19999999999999L160.16639572916668,21.599999999999994L160.58028343750001,60.00000000000001L160.60798458333332,15.19999999999999L160.64220364583335,15.19999999999999L160.98195005208333,15.19999999999999L161.191338125,216L161.42353890625,15.19999999999999L161.45775796875,15.19999999999999L161.60441109375,204.79999999999998L161.87816359375,141.6L162.1250296875,127.19999999999999L162.20731838541667,224L162.27331229166666,15.19999999999999L162.69371791666669,15.19999999999999L162.8485184375,186.4L162.94058401041667,15.19999999999999L163.08886661458334,15.19999999999999L163.50927223958334,15.19999999999999L163.66407276041664,15.19999999999999L163.75613833333333,15.19999999999999L163.9044209375,15.19999999999999L164.20424510416666,133.6L164.417706875,75.99999999999999L164.57169265624998,15.19999999999999L164.71997526041667,15.19999999999999L164.90410640625,128.8L165.09475546875,151.20000000000002L165.30006984374998,100.80000000000001L165.53552958333336,15.19999999999999L165.71966072916666,15.19999999999999L165.86712859375,57.6L166.10584729166666,24.799999999999994L166.35108390625,15.19999999999999L166.53521505208332,15.19999999999999L166.55313932291668,142.4L166.92140161458335,15.19999999999999L167.16663822916667,15.19999999999999L167.350769375,15.19999999999999L167.36869364583333,15.19999999999999L167.663629375,87.2L167.98219255208335,15.19999999999999L168.16632369791668,15.19999999999999L168.18424796875,15.19999999999999L168.289349375,201.60000000000002L168.797746875,15.19999999999999L168.8498902083333,162.4L168.91588411458335,80L169.10490369791668,15.19999999999999L169.61330119791666,15.19999999999999L169.62063385416667,59.19999999999999L169.72899421875,203.2L169.7314384375,15.19999999999999L170.23820645833334,209.6L170.42885552083334,15.19999999999999L170.54454854166664,15.19999999999999L170.54699276041669,15.19999999999999L170.909551875,156.79999999999998L171.24440984375,15.19999999999999L171.36010286458333,15.19999999999999L171.36254708333334,15.19999999999999L171.72510619791666,15.19999999999999L172.05996416666667,15.19999999999999L172.1756571875,15.19999999999999L172.17810140625,15.19999999999999L172.5406605208333,15.19999999999999L172.82337515625,180L172.87551848958336,15.19999999999999L172.96351036458333,44.8L173.35621484375002,15.19999999999999L173.63892947916665,15.19999999999999L173.6910728125,15.19999999999999L173.77906468749998,15.19999999999999L174.17176916666668,15.19999999999999L174.45448380208333,15.19999999999999L174.50662713541666,15.19999999999999L174.59461901041666,15.19999999999999L174.84067036458333,159.2L175.270038125,15.19999999999999L175.32218145833335,15.19999999999999L175.41017333333335,15.19999999999999L175.57312124999999,96.80000000000001L176.08559244791667,15.19999999999999L176.13773578125,15.19999999999999L176.22409817708333,176.8L176.22572765625,15.19999999999999L176.90114677083335,15.19999999999999L176.95329010416665,15.19999999999999L177.02172822916668,32.800000000000004L177.04128197916665,15.19999999999999L177.71670109375,15.19999999999999L177.72484848958334,125.6L177.76884442708334,15.19999999999999L177.85683630208334,15.19999999999999L178.49966583333332,55.199999999999996L178.53225541666666,15.19999999999999L178.58439875,15.19999999999999L178.672390625,15.19999999999999L179.31522015625,15.19999999999999L179.34780973958334,15.19999999999999L179.39995307291667,15.19999999999999L179.48794494791667,15.19999999999999L179.75762375,381.59999999999997L180.03219098958334,144L180.21550739583336,15.19999999999999L180.30349927083333,15.19999999999999L180.4974072916667,89.6L180.8477453125,15.19999999999999L181.03106171875,15.19999999999999L181.11905359374998,15.19999999999999L181.31296161458334,15.19999999999999L181.53375604166666,142.4L181.84661604166666,15.19999999999999L181.93460791666666,15.19999999999999L182.1285159375,15.19999999999999L182.34931036458332,15.19999999999999L182.66217036458335,15.19999999999999L182.75016223958335,15.19999999999999L182.91473963541668,44L183.1648646875,15.19999999999999L183.4777246875,15.19999999999999L183.5657165625,15.19999999999999L183.68466854166667,60.00000000000001L183.92338723958332,71.2L184.29327901041665,15.19999999999999L184.38127088541668,15.19999999999999L184.50022286458332,15.19999999999999L184.69657510416667,56.800000000000004L185.10883333333334,15.19999999999999L185.19682520833334,15.19999999999999L185.22534109375,103.99999999999999L185.42658177083334,99.20000000000002L185.92438765625,15.19999999999999L186.01237953125,15.19999999999999L186.04089541666667,15.19999999999999L186.24213609375002,15.19999999999999L186.73994197916664,15.19999999999999L186.8018621875,68.8L186.82793385416667,15.19999999999999L187.05769041666667,15.19999999999999L187.55549630208336,15.19999999999999L187.6174165104167,15.19999999999999L187.64348817708333,15.19999999999999L187.77710546875,109.60000000000001L188.371050625,15.19999999999999L188.41912026041666,28.80000000000001L188.45904249999998,15.19999999999999L188.59265979166665,15.19999999999999L189.18660494791666,15.19999999999999L189.23467458333332,15.19999999999999L189.2745968229167,15.19999999999999L189.33896125,83.2L190.00215927083335,15.19999999999999L190.01600984375,48.79999999999999L190.09015114583335,15.19999999999999L190.15451557291667,15.19999999999999L190.78919770833335,56.800000000000004L190.81771359375,15.19999999999999L190.90570546875,15.19999999999999L190.94807192708333,36.800000000000004L191.60475203125,15.19999999999999L191.63326791666665,15.19999999999999L191.72125979166668,15.19999999999999L191.76362625000002,15.19999999999999L192.30298385416665,130.4L192.44882223958334,15.19999999999999L192.53681411458334,15.19999999999999L192.57918057291667,15.19999999999999L193.05254427083335,80L193.2643765625,15.19999999999999L193.3523684375,15.19999999999999L193.39473489583332,15.19999999999999L193.68722640625,192.8L194.07993088541664,15.19999999999999L194.16792276041667,15.19999999999999L194.17688489583333,48L194.33983281250002,175.20000000000002L194.89548520833335,15.19999999999999L194.98347708333333,15.19999999999999L194.99243921875,15.19999999999999L195.15538713541667,15.19999999999999L195.70696583333333,114.4L195.71103953125,15.19999999999999L195.79903140624998,15.19999999999999L195.97094145833333,15.19999999999999L196.52659385416666,15.19999999999999L196.6145857291667,15.19999999999999L196.78649578125,15.19999999999999L197.27778375,15.19999999999999L197.34214817708335,15.19999999999999L197.34296291666666,100.80000000000001L197.51405822916666,101.6L198.07622854166667,96L198.09333807291668,15.19999999999999L198.1577025,15.19999999999999L198.32961255208335,15.19999999999999L198.89178286458335,15.19999999999999L198.90889239583333,15.19999999999999L198.97325682291665,15.19999999999999L199.00503166666667,152.8L199.44417630208332,290.4L199.7008192708333,21.599999999999994L199.78881114583334,15.19999999999999L199.82058598958335,15.19999999999999L200.1570734375,116.00000000000001L200.37949734375002,149.6L200.60436546875,15.19999999999999L200.6361403125,15.19999999999999L200.97262776041666,15.19999999999999L201.19505166666667,15.19999999999999L201.41991979166664,15.19999999999999L201.4516946354167,15.19999999999999L201.76129567708333,41.599999999999994L202.01060598958333,15.19999999999999L202.23547411458335,15.19999999999999L202.26724895833334,15.19999999999999L202.49456130208333,96L202.63795546875,199.99999999999997L202.83349296875,260L203.0510284375,15.19999999999999L203.310115625,15.19999999999999L203.45350979166668,15.19999999999999L203.64904729166665,15.19999999999999L204.12566994791666,15.19999999999999L204.26906411458333,15.19999999999999L204.46460161458333,15.19999999999999L204.68213708333334,15.19999999999999L204.94122427083332,15.19999999999999L205.0846184375,15.19999999999999L205.2801559375,15.19999999999999L205.49769140625,15.19999999999999L205.75677859375,15.19999999999999L205.90017276041667,15.19999999999999L206.09571026041667,15.19999999999999L206.31324572916665,15.19999999999999L206.51530114583332,212L206.57233291666668,15.19999999999999L206.91126458333335,15.19999999999999L207.12880005208334,15.19999999999999L207.33085546874997,15.19999999999999L207.38788723958334,15.19999999999999L207.72681890625,15.19999999999999L207.944354375,15.19999999999999L208.12685604166666,34.4L208.16270458333335,55.199999999999996L208.54237322916666,15.19999999999999L208.75990869791664,15.19999999999999L208.9424103645833,15.19999999999999L208.97825890625,15.19999999999999L209.35792755208334,15.19999999999999L209.57546302083335,15.19999999999999L209.67078755208334,136L209.75796468750002,15.19999999999999L210.173481875,15.19999999999999L210.39101734375,15.19999999999999L210.48634187500002,15.19999999999999L210.57351901041667,15.19999999999999L210.98903619791665,15.19999999999999L211.14546619791668,254.39999999999998L211.14709567708334,167.2L211.20657166666666,15.19999999999999L211.74674401041665,72L211.96102052083333,15.19999999999999L211.96265,15.19999999999999L212.02212598958334,15.19999999999999L212.56229833333333,15.19999999999999L212.59244369791665,195.99999999999997L212.77820432291665,15.19999999999999L212.8376803125,15.19999999999999L213.37785265625,15.19999999999999L213.39740640625,25.60000000000001L213.53428265625,73.60000000000001L213.65323463541665,15.19999999999999L214.19340697916667,15.19999999999999L214.1966659375,31.199999999999996L214.34902223958332,16.000000000000007L214.46878895833333,15.19999999999999L214.99511072916667,28.80000000000001L215.01222026041665,15.19999999999999L215.1645765625,15.19999999999999L215.28434328125,15.19999999999999L215.81066505208332,15.19999999999999L215.82777458333334,15.19999999999999L215.97931614583334,16.000000000000007L216.09989760416664,15.19999999999999L216.62621937499998,15.19999999999999L216.63681098958332,21.599999999999994L216.79487046875002,15.19999999999999L216.91545192708335,15.19999999999999L217.44177369791666,15.19999999999999L217.4523653125,15.19999999999999L217.59413,31.199999999999996L217.73100625,15.19999999999999L218.11148963541666,158.4L218.26791963541666,15.19999999999999L218.34124619791666,82.39999999999999L218.54656057291666,15.19999999999999L218.92704395833334,15.19999999999999L219.08347395833334,15.19999999999999L219.12421093749998,47.2L219.36211489583334,15.19999999999999L219.74259828125,15.19999999999999L219.89902828125,15.19999999999999L220.17766921875,15.19999999999999L220.47912286458333,92.80000000000001L220.62577598958333,142.4L220.71458260416665,15.19999999999999L220.99322354166665,15.19999999999999L221.26697604166665,42.400000000000006L221.43073869791667,25.60000000000001L221.48288203125,61.599999999999994L221.80877786458333,15.19999999999999L222.08253036458333,15.19999999999999L222.24629302083335,15.19999999999999L222.29843635416665,15.19999999999999L222.6243321875,15.19999999999999L222.80194541666665,109.60000000000001L223.06184734375,15.19999999999999L223.11399067708334,15.19999999999999L223.43988651041664,15.19999999999999L223.61749973958334,15.19999999999999L223.87740166666669,15.19999999999999L223.929545,15.19999999999999" style="fill: none;" fill="none"></path></g></g></g></g></g></g><g transform="translate(85, 176)" clip-path="url(#clip_1)"><clipPath id="clip_1"><rect width="244" height="24"></rect></clipPath><g><g><line x1="0" y1="0" x2="0" y2="5" style="visibility: inherit;" fill="rgb(0, 0, 0)" stroke="rgb(204, 204, 204)" stroke-width="1px"></line><line x1="20.368489583333332" y1="0" x2="20.368489583333332" y2="5" style="visibility: inherit;" fill="rgb(0, 0, 0)" stroke="rgb(204, 204, 204)" stroke-width="1px"></line><line x1="40.736979166666664" y1="0" x2="40.736979166666664" y2="5" style="visibility: inherit;" fill="rgb(0, 0, 0)" stroke="rgb(204, 204, 204)" stroke-width="1px"></line><line x1="61.10546875" y1="0" x2="61.10546875" y2="5" style="visibility: inherit;" fill="rgb(0, 0, 0)" stroke="rgb(204, 204, 204)" stroke-width="1px"></line><line x1="81.47395833333333" y1="0" x2="81.47395833333333" y2="5" style="visibility: inherit;" fill="rgb(0, 0, 0)" stroke="rgb(204, 204, 204)" stroke-width="1px"></line><line x1="101.84244791666667" y1="0" x2="101.84244791666667" y2="5" style="visibility: inherit;" fill="rgb(0, 0, 0)" stroke="rgb(204, 204, 204)" stroke-width="1px"></line><line x1="122.2109375" y1="0" x2="122.2109375" y2="5" style="visibility: inherit;" fill="rgb(0, 0, 0)" stroke="rgb(204, 204, 204)" stroke-width="1px"></line><line x1="142.57942708333334" y1="0" x2="142.57942708333334" y2="5" style="visibility: inherit;" fill="rgb(0, 0, 0)" stroke="rgb(204, 204, 204)" stroke-width="1px"></line><line x1="162.94791666666666" y1="0" x2="162.94791666666666" y2="5" style="visibility: inherit;" fill="rgb(0, 0, 0)" stroke="rgb(204, 204, 204)" stroke-width="1px"></line><line x1="183.31640625" y1="0" x2="183.31640625" y2="5" style="visibility: inherit;" fill="rgb(0, 0, 0)" stroke="rgb(204, 204, 204)" stroke-width="1px"></line><line x1="203.68489583333334" y1="0" x2="203.68489583333334" y2="5" style="visibility: inherit;" fill="rgb(0, 0, 0)" stroke="rgb(204, 204, 204)" stroke-width="1px"></line><line x1="224.05338541666666" y1="0" x2="224.05338541666666" y2="5" style="visibility: inherit;" fill="rgb(0, 0, 0)" stroke="rgb(204, 204, 204)" stroke-width="1px"></line><line x1="244.421875" y1="0" x2="244.421875" y2="5" style="visibility: inherit;" fill="rgb(0, 0, 0)" stroke="rgb(204, 204, 204)" stroke-width="1px"></line></g><g transform="translate(0, 8)"><text x="0" y="0" dx="0em" dy="0.95em" style="text-anchor: middle; visibility: hidden; font-family: Roboto, sans-serif; font-size: 12px; font-weight: 200;" fill="rgb(33, 33, 33)" stroke="none" stroke-width="1px">-100k</text><text x="20.368489583333332" y="0" dx="0em" dy="0.95em" style="text-anchor: middle; visibility: inherit; font-family: Roboto, sans-serif; font-size: 12px; font-weight: 200;" fill="rgb(33, 33, 33)" stroke="none" stroke-width="1px">0</text><text x="40.736979166666664" y="0" dx="0em" dy="0.95em" style="text-anchor: middle; visibility: hidden; font-family: Roboto, sans-serif; font-size: 12px; font-weight: 200;" fill="rgb(33, 33, 33)" stroke="none" stroke-width="1px">100k</text><text x="61.10546875" y="0" dx="0em" dy="0.95em" style="text-anchor: middle; visibility: inherit; font-family: Roboto, sans-serif; font-size: 12px; font-weight: 200;" fill="rgb(33, 33, 33)" stroke="none" stroke-width="1px">200k</text><text x="81.47395833333333" y="0" dx="0em" dy="0.95em" style="text-anchor: middle; visibility: hidden; font-family: Roboto, sans-serif; font-size: 12px; font-weight: 200;" fill="rgb(33, 33, 33)" stroke="none" stroke-width="1px">300k</text><text x="101.84244791666667" y="0" dx="0em" dy="0.95em" style="text-anchor: middle; visibility: inherit; font-family: Roboto, sans-serif; font-size: 12px; font-weight: 200;" fill="rgb(33, 33, 33)" stroke="none" stroke-width="1px">400k</text><text x="122.2109375" y="0" dx="0em" dy="0.95em" style="text-anchor: middle; visibility: hidden; font-family: Roboto, sans-serif; font-size: 12px; font-weight: 200;" fill="rgb(33, 33, 33)" stroke="none" stroke-width="1px">500k</text><text x="142.57942708333334" y="0" dx="0em" dy="0.95em" style="text-anchor: middle; visibility: inherit; font-family: Roboto, sans-serif; font-size: 12px; font-weight: 200;" fill="rgb(33, 33, 33)" stroke="none" stroke-width="1px">600k</text><text x="162.94791666666666" y="0" dx="0em" dy="0.95em" style="text-anchor: middle; visibility: hidden; font-family: Roboto, sans-serif; font-size: 12px; font-weight: 200;" fill="rgb(33, 33, 33)" stroke="none" stroke-width="1px">700k</text><text x="183.31640625" y="0" dx="0em" dy="0.95em" style="text-anchor: middle; visibility: inherit; font-family: Roboto, sans-serif; font-size: 12px; font-weight: 200;" fill="rgb(33, 33, 33)" stroke="none" stroke-width="1px">800k</text><text x="203.68489583333334" y="0" dx="0em" dy="0.95em" style="text-anchor: middle; visibility: hidden; font-family: Roboto, sans-serif; font-size: 12px; font-weight: 200;" fill="rgb(33, 33, 33)" stroke="none" stroke-width="1px">900k</text><text x="224.05338541666666" y="0" dx="0em" dy="0.95em" style="text-anchor: middle; visibility: inherit; font-family: Roboto, sans-serif; font-size: 12px; font-weight: 200;" fill="rgb(33, 33, 33)" stroke="none" stroke-width="1px">1M</text><text x="244.421875" y="0" dx="0em" dy="0.95em" style="text-anchor: middle; visibility: hidden; font-family: Roboto, sans-serif; font-size: 12px; font-weight: 200;" fill="rgb(33, 33, 33)" stroke="none" stroke-width="1px">1.1M</text></g><line x1="0" y1="0" x2="244.421875" y2="0" fill="rgb(0, 0, 0)" stroke="rgb(204, 204, 204)" stroke-width="1px"></line></g></g></g></g></svg>