<svg viewBox="0 0 330 200" xmlns="http://www.w3.org/2000/svg"><g><g><g><g><g><line x1="96.375" y1="176" x2="91.375" y2="176" style="visibility: inherit;" fill="rgb(0, 0, 0)" stroke="rgb(204, 204, 204)" stroke-width="1px"></line><line x1="96.375" y1="163.42857142857144" x2="91.375" y2="163.42857142857144" style="visibility: inherit;" fill="rgb(0, 0, 0)" stroke="rgb(204, 204, 204)" stroke-width="1px"></line><line x1="96.375" y1="150.85714285714286" x2="91.375" y2="150.85714285714286" style="visibility: inherit;" fill="rgb(0, 0, 0)" stroke="rgb(204, 204, 204)" stroke-width="1px"></line><line x1="96.375" y1="138.28571428571428" x2="91.375" y2="138.28571428571428" style="visibility: inherit;" fill="rgb(0, 0, 0)" stroke="rgb(204, 204, 204)" stroke-width="1px"></line><line x1="96.375" y1="125.71428571428572" x2="91.375" y2="125.71428571428572" style="visibility: inherit;" fill="rgb(0, 0, 0)" stroke="rgb(204, 204, 204)" stroke-width="1px"></line><line x1="96.375" y1="113.14285714285714" x2="91.375" y2="113.14285714285714" style="visibility: inherit;" fill="rgb(0, 0, 0)" stroke="rgb(204, 204, 204)" stroke-width="1px"></line><line x1="96.375" y1="100.57142857142857" x2="91.375" y2="100.57142857142857" style="visibility: inherit;" fill="rgb(0, 0, 0)" stroke="rgb(204, 204, 204)" stroke-width="1px"></line><line x1="96.375" y1="88" x2="91.375" y2="88" style="visibility: inherit;" fill="rgb(0, 0, 0)" stroke="rgb(204, 204, 204)" stroke-width="1px"></line><line x1="96.375" y1="75.42857142857143" x2="91.375" y2="75.42857142857143" style="visibility: inherit;" fill="rgb(0, 0, 0)" stroke="rgb(204, 204, 204)" stroke-width="1px"></line><line x1="96.375" y1="62.85714285714285" x2="91.375" y2="62.85714285714285" style="visibility: inherit;" fill="rgb(0, 0, 0)" stroke="rgb(204, 204, 204)" stroke-width="1px"></line><line x1="96.375" y1="50.285714285714285" x2="91.375" y2="50.285714285714285" style="visibility: inherit;" fill="rgb(0, 0, 0)" stroke="rgb(204, 204, 204)" stroke-width="1px"></line><line x1="96.375" y1="37.714285714285715" x2="91.375" y2="37.714285714285715" style="visibility: inherit;" fill="rgb(0, 0, 0)" stroke="rgb(204, 204, 204)" stroke-width="1px"></line><line x1="96.375" y1="25.142857142857153" x2="91.375" y2="25.142857142857153" style="visibility: inherit;" fill="rgb(0, 0, 0)" stroke="rgb(204, 204, 204)" stroke-width="1px"></line><line x1="96.375" y1="12.571428571428566" x2="91.375" y2="12.571428571428566" style="visibility: inherit;" fill="rgb(0, 0, 0)" stroke="rgb(204, 204, 204)" stroke-width="1px"></line><line x1="96.375" y1="0" x2="91.375" y2="0" style="visibility: inherit;" fill="rgb(0, 0, 0)" stroke="rgb(204, 204, 204)" stroke-width="1px"></line></g><g transform="translate(86.375, 0)"><text x="0" y="176" dx="0em" dy="0.3em" style="text-anchor: end; visibility: hidden; font-family: Roboto, sans-serif; font-size: 12px; font-weight: 200;" fill="rgb(33, 33, 33)" stroke="none" stroke-width="1px">-1.45e+3</text><text x="0" y="163.42857142857144" dx="0em" dy="0.3em" style="text-anchor: end; visibility: inherit; font-family: Roboto, sans-serif; font-size: 12px; font-weight: 200;" fill="rgb(33, 33, 33)" stroke="none" stroke-width="1px">-1.4e+3</text><text x="0" y="150.85714285714286" dx="0em" dy="0.3em" style="text-anchor: end; visibility: hidden; font-family: Roboto, sans-serif; font-size: 12px; font-weight: 200;" fill="rgb(33, 33, 33)" stroke="none" stroke-width="1px">-1.35e+3</text><text x="0" y="138.28571428571428" dx="0em" dy="0.3em" style="text-anchor: end; visibility: inherit; font-family: Roboto, sans-serif; font-size: 12px; font-weight: 200;" fill="rgb(33, 33, 33)" stroke="none" stroke-width="1px">-1.3e+3</text><text x="0" y="125.71428571428572" dx="0em" dy="0.3em" style="text-anchor: end; visibility: hidden; font-family: Roboto, sans-serif; font-size: 12px; font-weight: 200;" fill="rgb(33, 33, 33)" stroke="none" stroke-width="1px">-1.25e+3</text><text x="0" y="113.14285714285714" dx="0em" dy="0.3em" style="text-anchor: end; visibility: inherit; font-family: Roboto, sans-serif; font-size: 12px; font-weight: 200;" fill="rgb(33, 33, 33)" stroke="none" stroke-width="1px">-1.2e+3</text><text x="0" y="100.57142857142857" dx="0em" dy="0.3em" style="text-anchor: end; visibility: hidden; font-family: Roboto, sans-serif; font-size: 12px; font-weight: 200;" fill="rgb(33, 33, 33)" stroke="none" stroke-width="1px">-1.15e+3</text><text x="0" y="88" dx="0em" dy="0.3em" style="text-anchor: end; visibility: inherit; font-family: Roboto, sans-serif; font-size: 12px; font-weight: 200;" fill="rgb(33, 33, 33)" stroke="none" stroke-width="1px">-1.1e+3</text><text x="0" y="75.42857142857143" dx="0em" dy="0.3em" style="text-anchor: end; visibility: hidden; font-family: Roboto, sans-serif; font-size: 12px; font-weight: 200;" fill="rgb(33, 33, 33)" stroke="none" stroke-width="1px">-1.05e+3</text><text x="0" y="62.85714285714285" dx="0em" dy="0.3em" style="text-anchor: end; visibility: inherit; font-family: Roboto, sans-serif; font-size: 12px; font-weight: 200;" fill="rgb(33, 33, 33)" stroke="none" stroke-width="1px">-1e+3</text><text x="0" y="50.285714285714285" dx="0em" dy="0.3em" style="text-anchor: end; visibility: hidden; font-family: Roboto, sans-serif; font-size: 12px; font-weight: 200;" fill="rgb(33, 33, 33)" stroke="none" stroke-width="1px">-950</text><text x="0" y="37.714285714285715" dx="0em" dy="0.3em" style="text-anchor: end; visibility: inherit; font-family: Roboto, sans-serif; font-size: 12px; font-weight: 200;" fill="rgb(33, 33, 33)" stroke="none" stroke-width="1px">-900</text><text x="0" y="25.142857142857153" dx="0em" dy="0.3em" style="text-anchor: end; visibility: hidden; font-family: Roboto, sans-serif; font-size: 12px; font-weight: 200;" fill="rgb(33, 33, 33)" stroke="none" stroke-width="1px">-850</text><text x="0" y="12.571428571428566" dx="0em" dy="0.3em" style="text-anchor: end; visibility: inherit; font-family: Roboto, sans-serif; font-size: 12px; font-weight: 200;" fill="rgb(33, 33, 33)" stroke="none" stroke-width="1px">-800</text><text x="0" y="0" dx="0em" dy="0.3em" style="text-anchor: end; visibility: hidden; font-family: Roboto, sans-serif; font-size: 12px; font-weight: 200;" fill="rgb(33, 33, 33)" stroke="none" stroke-width="1px">-750</text></g><line x1="96.375" y1="0" x2="96.375" y2="176" fill="rgb(0, 0, 0)" stroke="rgb(204, 204, 204)" stroke-width="1px"></line></g></g><g transform="translate(96, 0)" clip-path="url(#clip_0)"><clipPath id="clip_0"><rect width="233" height="176"></rect></clipPath><g><g><g><line x1="0" y1="0" x2="0" y2="176" fill="rgb(0, 0, 0)" stroke="rgb(66, 66, 66)" stroke-width="1px" opacity="0.25"></line><line x1="19.46875" y1="0" x2="19.46875" y2="176" fill="rgb(0, 0, 0)" stroke="rgb(66, 66, 66)" stroke-width="1px" opacity="0.25"></line><line x1="38.9375" y1="0" x2="38.9375" y2="176" fill="rgb(0, 0, 0)" stroke="rgb(66, 66, 66)" stroke-width="1px" opacity="0.25"></line><line x1="58.40625" y1="0" x2="58.40625" y2="176" fill="rgb(0, 0, 0)" stroke="rgb(66, 66, 66)" stroke-width="1px" opacity="0.25"></line><line x1="77.875" y1="0" x2="77.875" y2="176" fill="rgb(0, 0, 0)" stroke="rgb(66, 66, 66)" stroke-width="1px" opacity="0.25"></line><line x1="97.34375" y1="0" x2="97.34375" y2="176" fill="rgb(0, 0, 0)" stroke="rgb(66, 66, 66)" stroke-width="1px" opacity="0.25"></line><line x1="116.8125" y1="0" x2="116.8125" y2="176" fill="rgb(0, 0, 0)" stroke="rgb(66, 66, 66)" stroke-width="1px" opacity="0.25"></line><line x1="136.28125" y1="0" x2="136.28125" y2="176" fill="rgb(0, 0, 0)" stroke="rgb(66, 66, 66)" stroke-width="1px" opacity="0.25"></line><line x1="155.75" y1="0" x2="155.75" y2="176" fill="rgb(0, 0, 0)" stroke="rgb(66, 66, 66)" stroke-width="1px" opacity="0.25"></line><line x1="175.21875" y1="0" x2="175.21875" y2="176" fill="rgb(0, 0, 0)" stroke="rgb(66, 66, 66)" stroke-width="1px" opacity="0.25"></line><line x1="194.6875" y1="0" x2="194.6875" y2="176" fill="rgb(0, 0, 0)" stroke="rgb(66, 66, 66)" stroke-width="1px" opacity="0.25"></line><line x1="214.15625" y1="0" x2="214.15625" y2="176" fill="rgb(0, 0, 0)" stroke="rgb(66, 66, 66)" stroke-width="1px" opacity="0.25"></line><line x1="233.625" y1="0" x2="233.625" y2="176" fill="rgb(0, 0, 0)" stroke="rgb(66, 66, 66)" stroke-width="1px" opacity="0.25"></line></g><g><line x1="0" y1="176" x2="233.625" y2="176" fill="rgb(0, 0, 0)" stroke="rgb(66, 66, 66)" stroke-width="1px" opacity="0.25"></line><line x1="0" y1="163.42857142857144" x2="233.625" y2="163.42857142857144" fill="rgb(0, 0, 0)" stroke="rgb(66, 66, 66)" stroke-width="1px" opacity="0.25"></line><line x1="0" y1="150.85714285714286" x2="233.625" y2="150.85714285714286" fill="rgb(0, 0, 0)" stroke="rgb(66, 66, 66)" stroke-width="1px" opacity="0.25"></line><line x1="0" y1="138.28571428571428" x2="233.625" y2="138.28571428571428" fill="rgb(0, 0, 0)" stroke="rgb(66, 66, 66)" stroke-width="1px" opacity="0.25"></line><line x1="0" y1="125.71428571428572" x2="233.625" y2="125.71428571428572" fill="rgb(0, 0, 0)" stroke="rgb(66, 66, 66)" stroke-width="1px" opacity="0.25"></line><line x1="0" y1="113.14285714285714" x2="233.625" y2="113.14285714285714" fill="rgb(0, 0, 0)" stroke="rgb(66, 66, 66)" stroke-width="1px" opacity="0.25"></line><line x1="0" y1="100.57142857142857" x2="233.625" y2="100.57142857142857" fill="rgb(0, 0, 0)" stroke="rgb(66, 66, 66)" stroke-width="1px" opacity="0.25"></line><line x1="0" y1="88" x2="233.625" y2="88" fill="rgb(0, 0, 0)" stroke="rgb(66, 66, 66)" stroke-width="1px" opacity="0.25"></line><line x1="0" y1="75.42857142857143" x2="233.625" y2="75.42857142857143" fill="rgb(0, 0, 0)" stroke="rgb(66, 66, 66)" stroke-width="1px" opacity="0.25"></line><line x1="0" y1="62.85714285714285" x2="233.625" y2="62.85714285714285" fill="rgb(0, 0, 0)" stroke="rgb(66, 66, 66)" stroke-width="1px" opacity="0.25"></line><line x1="0" y1="50.285714285714285" x2="233.625" y2="50.285714285714285" fill="rgb(0, 0, 0)" stroke="rgb(66, 66, 66)" stroke-width="1px" opacity="0.25"></line><line x1="0" y1="37.714285714285715" x2="233.625" y2="37.714285714285715" fill="rgb(0, 0, 0)" stroke="rgb(66, 66, 66)" stroke-width="1px" opacity="0.25"></line><line x1="0" y1="25.142857142857153" x2="233.625" y2="25.142857142857153" fill="rgb(0, 0, 0)" stroke="rgb(66, 66, 66)" stroke-width="1px" opacity="0.25"></line><line x1="0" y1="12.571428571428566" x2="233.625" y2="12.571428571428566" fill="rgb(0, 0, 0)" stroke="rgb(66, 66, 66)" stroke-width="1px" opacity="0.25"></line><line x1="0" y1="0" x2="233.625" y2="0" fill="rgb(0, 0, 0)" stroke="rgb(66, 66, 66)" stroke-width="1px" opacity="0.25"></line></g></g></g><g><g><line x1="0" y1="-188.5714285714286" x2="233.625" y2="-188.5714285714286" fill="rgb(0, 0, 0)" stroke="rgb(153, 153, 153)" stroke-width="1.5px"></line></g></g><g><g><line x1="19.46875" y1="0" x2="19.46875" y2="176" fill="rgb(0, 0, 0)" stroke="rgb(153, 153, 153)" stroke-width="1.5px"></line></g></g><g><g><g><g><g><path stroke="rgb(204, 51, 17)" stroke-width="2px" d="M20.24827875,59.19252232142857L21.027807499999998,52.29003383091521L21.80733625,76.45199497767857L22.586865,99.9027008825991L23.36639375,123.00079168654577L24.1459225,123.66726648887645L24.92545125,117.20483945667138L25.70498,96.47271370669466L26.48450875,90.84696939737945L27.2640375,104.7623033685132L28.04200875,188.96742034937301L28.8215375,204.50786755871877L28.823095000000002,131.7460272201262L29.60106625,146.92034370176512L29.602623749999996,145.82955139834738L30.380594999999996,164.9103545547923L30.3821525,143.10497139339205L31.16012375,172.76865760914725L31.161681249999997,172.2539223977392L31.939652499999998,201.6216818295183L31.94121,202.4795215048144L32.56498875,81.71988701773633L32.71918125,133.41219500565217L33.24405875,14.297900512039078L33.33283625,-11.575513649522168L33.3445175,30.728949394211497L33.498709999999996,102.11292798194424L33.86005,10.048661344048533L34.0235875,100.00318655910007L34.112365,98.1184217300995L34.27823875,156.4861380404913L34.610765,104.86329643063117L34.803116249999995,103.09617758453435L34.89189375,138.6845799303676L35.0577675,162.0486566813504L35.39029375,157.73284018745832L35.582645,136.78896631149203L35.6714225,128.1149846782846L35.837296249999994,163.8234752297041L36.11453125,35.01365548651946L36.1698225,23.904612371387124L36.36217375,70.10968596295916L36.616825,106.44129819121251L36.89406,70.61309475921763L36.94935125,96.73670730358836L37.1417025,105.00895518603399L37.29901,-4.776499519192754L37.389345,-81.41255833419986L37.396353749999996,15.890313214552329L37.675146250000004,-73.67848331891284L37.92123125,9.27683746425084L38.16887375,39.43855225538889L38.1758825,93.29871729078974L38.454675,73.46853673606856L38.55824875,-32.50530527424705L38.70076,58.46985031761524L38.95541125,101.4291222441464L39.079232499999996,-19.869189460441707L39.23264625,-31.04370006019418L39.234203750000006,45.870143803171445L39.442130000000006,-48.99832722256306L39.73494,47.42775366646319L39.7987975,-40.9834949820423L40.1414475,-81.08748272304084L40.51446875,9.688969071532679L40.57521125,-14.239569449937527L40.79326125,2.287833106823216L40.91864,-82.98397752150872L40.920976249999995,-16.82315325397665L41.2939975,101.17811809225694L41.57279,86.12135188213986L41.69816875,85.38432452214103L41.700505,78.62624203471316L42.0447125,-45.35307048787747L42.07352625,46.23537868941635L42.352318749999995,49.12271047257839L42.38658375,-60.51213306355115L42.48003375,5.962884224369306L42.67160625,-76.81249770198554L42.853055,-1.4527826548576428L43.1661125,41.97161165708543L43.258783750000006,-15.945173630748759L43.451135,4.231340017979324L43.63258375,80.38121249293046L43.94564125,79.204739772544L43.97211875,64.19212846174068L44.230663750000005,82.72645006811582L44.281282499999996,-30.11980183413049L44.4121125,54.98315796202171L44.58888875,-61.15695371609056L44.7516475,-1.0618083903686184L45.0101925,18.4614562604217L45.19164125,77.80618848839586L45.3684175,78.98726331625181L45.53117625,85.07661468617965L45.78972125000001,104.77096323135066L45.97117,148.82110807273898L46.07941625,2.3156955356076736L46.147946250000004,43.448432946364605L46.310705,63.290457089247354L46.750698750000005,109.90277090533412L46.858945,90.40061678427188L46.927475,95.92727632056317L47.09023375,113.33326534590931L47.5302275,134.88987885040277L47.63847375,85.25844349327735L47.70700375,99.63050694418068L47.8697625,106.08142916650839L48.266146250000006,39.29351933026216L48.30975625000001,93.3926328035144L48.4865325,99.90478280710867L48.55039,-23.122642034484798L48.64929125,36.78425071680911L49.089285000000004,89.85559507294263L49.26606125,97.84276552590843L49.329918750000004,79.77549023072365L49.42882,100.0518477098628L49.868813749999994,117.30637759913196L50.045590000000004,116.51608325590774L50.1094475,136.9501566499732L50.20834875,126.97459175784107L50.6483425,144.08032759934747L50.82511875,136.7741295953228L50.88897625,143.01024784647936L50.9878775,143.03125473467333L51.427871249999995,147.3281010550897L51.6046475,140.23147558841097L51.668504999999996,152.51682508518945L51.76740625,142.4995883546851L52.20506375,43.4453595976325L52.2074,83.81539879429377L52.384176249999996,88.92876494621912L52.543820000000004,-17.654789441866768L52.546935000000005,57.37319218309421L52.926965,-29.4227840484024L52.98692875,43.71489988345854L53.163705,63.138568278289426L53.2665,-31.033488776329918L53.32646375,30.187115439559207L53.662105,-38.72863782331805L53.7664575,34.621810609580606L53.94323375,62.14803949074836L54.028896249999995,-34.00282390599744L54.105992500000006,19.424480879615842L54.54598625,76.3321963402695L54.722762499999995,80.20480106309027L54.808425,101.8778426914256L54.88552125,120.18198574878396L55.325514999999996,132.59269144927038L55.50229125,149.3726762534908L55.58795375,152.1283680288802L55.665049999999994,150.43325296018523L55.855064999999996,8.549180291736128L56.10504375,62.153311746470266L56.281819999999996,84.87227834252498L56.44457875,119.49329111265783L56.63459375,118.03898694438044L56.8845725,125.53421247912826L57.06134875,128.2914940053341L57.224107499999995,134.57211180498615L57.4141225,150.0869233329917L57.66410125,146.57326002658078L57.8408775,129.8821803463056L58.00363625,130.06522003814052L58.19365125,137.07397130859863L58.44363,136.7541952851592L58.62040625,111.44947699252407L58.744227499999994,42.51760137408586L58.783165000000004,90.86203961909436L59.0494975,-22.08944182564163L59.223158749999996,43.95122106532933L59.399935,74.25255406776901L59.531543750000004,6.364559784411425L59.56269375,64.86561756707543L60.00268750000001,107.55918638845951L60.17946375,110.27526741343289L60.3110725,110.55730553734543L60.3422225,111.76265229562154L60.782216250000005,121.64786593094436L60.958992499999994,128.2829695585666L61.09060125,142.14971700299714L61.121751249999996,137.49635810358401L61.561745,146.94385615679326L61.738521250000005,133.37320766729022L61.797706250000005,6.886310342561618L61.90127999999999,59.4964435716084L62.1053125,-38.40509632913318L62.34127375,47.78896229180579L62.51805,95.77494880365492L62.680808750000004,113.61389227326441L62.88484125000001,141.0518554532444L63.120802499999996,153.11010322730374L63.29524249999999,37.93346400111439L63.29757875,83.7164556328115L63.4603375,114.84720038861548L63.70408625,11.034544144999652L63.90033125000001,74.1543916655712L64.0771075,96.55828678505702L64.13084125,1.161324889114539L64.23986624999999,57.48947573704015L64.390165,-44.84108757674913L64.67986,36.9782525878791L64.85663625000001,68.91242253487033L65.01939499999999,90.42623700306503L65.16969375,108.15145760362472L65.45938875,124.8616591603891L65.50767125,9.070805206054903L65.636165,55.185121516490085L65.79892375,86.87658072239404L65.92196625,-3.041479300938562L66.2389175,69.0073412140797L66.41569375,92.424160308805L66.5784525,101.18441806028295L66.70149500000001,116.26604034509835L67.01844625000001,129.56932509991614L67.10333,21.8500610197711L67.1952225,61.74616830829124L67.35798125,84.27602910997477L67.480245,-9.78321079852407L67.79797500000001,63.403334681599816L67.97475125,84.01327201431704L68.13750999999999,105.6216406639473L68.25977375,97.90883484479697L68.57750375,125.1827105050925L68.65070625,20.285110678055503L68.75428000000001,59.88214229969044L68.91703874999999,86.08436238874282L69.3570325,114.35691542431712L69.430235,130.58579211173313L69.53380875,133.19315383846848L69.6965675,157.14443694593822L70.13656125,154.49882064970583L70.20976375,160.81577341660918L70.3133375,143.3054640499655L70.47609625,142.8262081174793L70.91609000000001,156.77946817405902L70.9892925,159.3277467526497L71.09286625,144.7058656855184L71.255625,156.86129284881105L71.69561875000001,157.57726120035804L71.76882125,143.03182770235765L71.87239500000001,139.84595264820032L72.03515374999999,136.1241541782059L72.4751475,150.1131163908521L72.54835,158.7674613523684L72.65192375000001,144.56064757034957L72.8146825,144.13236287256692L72.9268225,31.27777458737942L73.25467625,85.13367926135622L73.4314525,103.99093188717086L73.59421125,144.1285122573025L73.70635125,147.2919823543815L74.034205,150.92062468048601L74.21098125,157.54257123686307L74.37374,178.20044341176066L74.48588,162.73666002027068L74.81373375,160.03654958359095L74.99051,132.74027350015464L75.15326875,140.55036610902135L75.26540875,152.75856787969857L75.58002375000001,32.988743127372686L75.5932625,84.05809409070933L75.66724375000001,59.17204841871132L75.93279749999999,87.96129601551253L76.3595525,125.58954658252179L76.37279124999999,137.26547236915593L76.44677250000001,132.43384926970788L76.71232625,130.3493664814676L77.13908125,162.92003060316628L77.15231999999999,164.0989112190427L77.22630125,152.4761971778542L77.491855,145.69355870849822L77.91861,142.62955486795607L77.93184875,160.1511525636308L78.00583,166.08793930603562L78.27138375,183.0053740746928L78.69813875000001,168.4969286858871L78.7113775,165.8057922561751L78.78535875,147.23476999656222L79.0509125,147.4868184711516L79.47766750000001,163.3162640737624L79.49090625,160.95758880140033L79.5648875,147.26254100405447L79.83044125,146.48771210243268L80.25719625,139.42610494003105L80.27043499999999,151.68205693723291L80.34441625,172.9840578230541L80.60997,183.60282531883246L80.9136825,96.90372420915658L81.036725,99.29625461477968L81.04996374999999,122.16325946529642L81.38949875,127.75734742024932L81.69321125,126.68876782714962L81.81625375,138.47757096414688L81.8294925,143.6102490517024L82.1690275,171.3390880470929L82.3715025,113.80421398897003L82.5957825,117.76421142909632L82.60902125,139.24814292888635L82.94855625,136.4394516055461L83.0723775,54.24827838520265L83.15103125,82.30175832576447L83.38855,122.10390879010154L83.4274875,51.40614940352521L83.73042124999999,25.497701918900844L83.85190625,61.73324280312623L84.16807874999999,101.38542782473287L84.20701625000001,120.77222098055402L84.34952750000001,80.08351506601096L84.631435,111.79224854853513L84.9476075,132.41636810233535L84.986545,137.8414056828298L85.12905625,98.39395557487646L85.41096375000001,116.03025838956873L85.72713625,141.37547646231266L85.76607375,151.0308606541733L85.908585,172.3217284460754L86.1904925,135.6359645230024L86.506665,143.38383987451576L86.5456025,144.69356173720945L86.68811375,135.03003324768284L86.97002125,152.030999859324L87.28619375,166.75750281738016L87.32513125,181.67723941364235L87.46764250000001,167.89076775532828L87.74955,158.04037248355414L87.9909625,80.85936132495391L88.06572249999999,120.97692594675809L88.10466,123.38464663948344L88.52752124999999,58.92946990333291L88.52907875,117.94593975449978L88.84525125,157.25858729019987L88.88418874999999,149.38785773126278L89.30704999999999,158.4334545941148L89.30860750000001,164.92672007789744L89.62478,166.34895615388126L89.66371749999999,176.66519512090022L90.08657875,189.2008826975401L90.08813625,156.05258207388118L90.40430875,149.8709153157573L90.44324624999999,143.68806927874013L90.80147125,107.1396233752798L90.867665,130.24869924838217L91.1838375,149.08195838831503L91.222775,166.26488820263188L91.3364725,73.60794296622198L91.581,106.42878028866174L91.96336625,129.90255723569706L92.00230375,137.59027429677536L92.11600125,146.85969806020807L92.13780625,72.99202196112485L92.742895,104.00724889096062L92.7818325,113.92703571850494L92.89553000000001,125.80307076146008L92.91733500000001,141.1147911175903L93.52242375,162.66199297412567L93.56136124999999,161.43018350768966L93.67505875,149.64870608675665L93.69686375,167.48992119669686L94.25055499999999,124.35618151266098L94.28715625000001,74.1613645995609L94.3019525,119.17074844723655L94.4763925,143.78266335405618L95.03008374999999,152.01250984279088L95.066685,161.45608403067456L95.08148125,163.964700641619L95.21932,123.40045654568571L95.8096125,144.49043687384L95.84621375,155.4652554278754L95.86101000000001,168.3651409799395L95.99884875,184.46242052546367L96.505815,132.13433959206395L96.6257425,157.77569527309547L96.64053875,164.2202464049287L96.77837749999999,167.4528442715287L97.27755625,128.8695447325601L97.40527125,127.08491657167889L97.4200675,151.65889637157872L97.55790624999999,138.42525076937577L97.95195375,97.25233851966117L98.1848,121.24883837965385L98.19959625,147.28241798314946L98.337435,150.24042400417537L98.7314825,150.05477225964808L98.96432874999999,152.24676402543167L98.97912500000001,157.8155461384733L99.11696375,169.50361786165539L99.51101125,164.0564441544932L99.74385749999999,142.18226604626736L99.75865375000001,152.17872793133188L99.8964925,157.85458497308485L100.29054,158.29407687670803L100.34738875,64.92440622647125L100.52338624999999,88.69776092338276L100.5381825,121.53698021474393L101.07006874999999,152.50339460206064L101.1269175,172.02872760945067L101.302915,164.29482250317037L101.31771125,161.9770631447594L101.8495975,134.93963744042702L101.90644625,136.56933491961337L101.90800375,83.71694693391089L102.09724,121.05199851748938L102.62912625,121.18705290513645L102.685975,106.01109781451044L102.6875325,138.2703004297777L102.87676875000001,157.85720257929523L103.408655,163.40410391364853L103.46550375,164.56062864283194L103.46706125,172.80669414998493L103.65629750000001,180.67101537391954L104.11576000000001,115.43211257256604L104.18818375,147.42257892746818L104.24659,138.42752949933805L104.43582625,150.4891940388885L104.89528875,125.6037128519046L104.96771249999999,129.5300948986428L105.02611875,135.4561484570428L105.215355,152.1062125117257L105.39836125000001,77.44012203828541L105.74724125,105.89163460689984L105.80564749999999,114.5452709427113L105.99488375,139.65984002098398L106.00890125,88.08376171348323L106.32118,35.42318169326851L106.52677,80.12835209631828L106.7744125,120.71923112386237L106.78843,134.03177193324606L106.91926000000001,80.33046159744762L107.30629875,121.95691088704L107.4675,90.34051818400972L107.55394125,121.72808099969156L107.63571,97.51736701499351L108.0858275,117.29434654828182L108.21276375,101.06891596468334L108.25871,66.3139243555957L108.33346999999999,114.9550622026431L108.78826,99.46039669658586L108.99229249999999,123.03602931259441L109.03823874999999,155.30350374827094L109.11299874999999,160.47407434717684L109.56778875,176.16746358152037L109.66279625,114.29719913105508L109.77182125,135.83995563934732L109.8925275,153.61324570503697L110.3473175,146.62724094980788L110.3660075,108.8402262663133L110.55135,142.16006767943082L110.67205625,162.72532297372987L110.96642375,109.8715643199522L111.14553625,99.272114931257L111.33087875,119.67500333375423L111.451585,143.21042164310967L111.7459525,163.19452530729436L111.91649875,101.45246016205516L111.925065,109.13601404366165L112.23111374999999,140.56809949762555L112.52548125,142.2196431807182L112.591675,94.58114081914525L112.70459375,111.4898407414871L113.0106425,141.6986187306066L113.25127625,96.10762547943537L113.30501,115.08069582337556L113.4841225,116.55837508331103L113.79017125,140.03342125534377L114.030805,144.001002529992L114.08453875,144.87286937513807L114.26365125000001,147.4276870268686L114.5697,163.2715162339783L114.61642499999999,100.97558384752988L114.86406749999999,126.0873056656608L115.04318,106.7387394261822L115.34922875,137.46971686999507L115.39595375,151.60368168449702L115.51043,104.2699009749839L115.82270875,116.15645732606178L116.12875749999999,143.9952772974228L116.1754825,150.86287508381082L116.28995875,145.84224960385794L116.3312325,73.00996471767192L116.88336625,61.04759490203171L116.90828625,108.29568082514756L116.93476375,65.90143304865992L117.0694875,115.35100603455312L117.66289499999999,130.94138821894617L117.6706825,84.95555056529628L117.687815,123.89711828560634L117.7142925,154.8243993195781L118.29913375000001,107.88167307388969L118.42606999999998,100.64168353183378L118.46734375,126.601241145886L118.49382125,141.08998910717446L119.07866250000001,167.91620998216186L119.20559875000001,173.84427174822568L119.22896125000001,132.45924608464972L119.2468725,159.52986461507555L119.85819125,179.1610091708311L119.9726675,133.4061233596415L119.9851275,150.2620266943563L120.02640124999999,159.30958766839947L120.54193375,90.10199478853968L120.63772,130.20308638205236L120.76465625,156.37548352566L120.80592999999999,167.61466511539598L121.3214625,152.21255911388045L121.3339225,114.32309685225684L121.544185,130.98875543278265L121.58545874999999,159.01954455431246L121.96159499999999,108.83094101830176L122.01688624999998,84.76300322705251L122.27621,83.1039581862315L122.36498750000001,118.08988718852464L122.74112375000001,134.9077671345434L122.79641500000001,135.3540486735832L123.05573875,155.59461335593562L123.14451625000001,165.44611511177567L123.52065250000001,171.60791683492258L123.57594375000001,155.71453804738212L123.8352675,150.23124961414356L123.924045,160.86038927741473L124.30018125000001,172.25604606644885L124.3554725,170.0115651398693L124.391295,102.40432022231442L124.70357375,131.03787338338864L125.07971,140.61489367289033L125.10618749999999,121.0050132126628L125.13500125,124.00498895438339L125.4831025,142.97224225655862L125.85923875,158.18452280929233L125.88571624999999,154.01639002486112L125.91453,139.51751816670242L126.26263125,156.73471067680714L126.63098,128.58503734358428L126.6387675,133.00846995079343L126.69405875,132.46446366690466L127.04216,145.25223288764278L127.41050874999999,143.9143843754428L127.41829625,154.30406477705145L127.4735875,163.41395560730228L127.82168874999999,173.79836331973848L127.98989875000001,111.17250069273595L128.197825,143.3884535406416L128.25311624999998,138.61195493688496L128.6012175,156.22223657820243L128.7694275,163.3178319022786L128.97735375,160.37549266815287L128.98592,126.18109470803456L129.38074625000002,143.87602512839211L129.54895625,150.641252353821L129.70314875,116.03373132300689L129.75688250000002,131.26006468666125L130.160275,154.4658222941396L130.328485,166.41762507291233L130.4577575,121.21349580267601L130.4826775,139.27561757089134L130.93980375,165.49025223896336L131.02235125,99.3982400710566L131.10801375,113.22335698906255L131.21626,95.49833227379466L131.69519125,62.3186823999911L131.7193325,110.94874961856608L131.80188,144.57141606578256L131.89299375,103.14341995196955L132.47472,123.15394036403885L132.48017125,93.13995796842332L132.49886125,126.2738218792683L132.67252249999999,141.96976969006099L133.175595,111.12084395689374L133.19740000000002,94.48360012413625L133.27839,127.1402125298389L133.45205124999998,139.6232692589748L133.89516,115.14087896609914L133.97692875,120.56693362965947L134.05791875,147.28573830279566L134.18796999999998,115.44038048167735L134.67468875,135.06819257472068L134.7564575,146.38195907161816L134.8374475,155.30230379118515L134.96749874999998,142.84341129256825L135.4542175,150.57420079339806L135.53598625,150.78780172603882L135.61697625,158.60946786598046L135.7470275,146.5273938892311L136.20103875,123.91489392282436L136.315515,137.27653568405177L136.39650500000002,156.8890553390025L136.452575,116.17789358286576L136.9805675,142.76162789079083L137.09504375,144.75281936840307L137.17603375000002,153.54048068354186L137.23210375000002,142.58111653512512L137.76009625,136.75966099250365L137.78501625,101.03115876068074L137.90027125,72.39045083676558L137.9555625,113.23030175205935L138.539625,131.2478953369499L138.564545,135.58166130931278L138.6798,131.86617758915912L138.73509125,156.31758378563836L139.21168625,109.47113007049016L139.31915375,122.9781546047941L139.32694124999998,83.99640894591218L139.51462,120.10380184076158L139.83468625,84.49327552409976L140.0986825,123.25806687695987L140.10647,124.51217829581879L140.29414875,149.60279581677696L140.59085249999998,122.71097436506619L140.76918625,90.53746408332543L140.87821125000002,118.99965478928098L141.0736775,146.55611430214006L141.37038124999998,149.84513063485542L141.548715,142.1943261487704L141.65774000000002,154.80142269819083L141.85320625,160.39421299391452L141.99883250000002,109.12160368920586L142.32824374999998,123.47263520459491L142.43726875000002,130.35327085489976L142.632735,148.28948818258274L142.77836125000002,145.55510250776393L143.10777249999998,139.10722556715837L143.2167975,142.368991590295L143.41226375000002,161.1510422756056L143.55789000000001,150.42566219572046L143.75647125,105.82427064332512L143.99632625,118.33609363599507L144.19179250000002,159.11198765481137L144.33741875,163.08092696788682L144.536,150.0350851985892L144.775855,149.57928661022493L144.97132125000002,157.4518353589921L145.1169475,167.46556661718097L145.31552875,170.2951000149514L145.37938625,114.93839204022086L145.75085,135.62158656341822L145.89647625,143.3451718041224L146.07558875,119.77847808247343L146.158915,125.47169510841263L146.53037875,143.6510617079047L146.676005,158.78270622117142L146.6931375,101.73602775056L146.93844375,118.16610214140745L147.3099075,137.7795139634159L147.45553375,152.40402534233525L147.47266625,174.08187949111544L147.63386749999998,129.4552828285978L148.040375,77.20312840251582L148.08943625,122.76637704150951L148.2350625,122.12511417133426L148.41339624999998,138.13360979744343L148.67972875,93.8308131998946L148.868965,126.38660845565103L149.01459125000002,149.7913735555335L149.16489,126.02250605296295L149.4592575,129.89200921213492L149.64849375,149.99453588442378L149.79412000000002,163.73476728958286L149.94441875,162.00315836482113L150.22788375,133.3178168938927L150.42802250000003,157.75269794883562L150.4373675,109.04818182733709L150.7239475,127.6020753910451L151.0074125,133.6155934489128L151.20755125000002,157.63964289970477L151.21689625,168.1514419898228L151.50347625,159.11175358675084L151.65143875,113.0610917725862L151.9543725,100.06002559926598L151.971505,44.61060241313102L151.98708000000002,110.85442506395006L152.31804875,78.2442348374772L152.73390125,102.60257550070065L152.75103375,120.90874284506324L152.76660875000002,138.96234950168082L153.0913475,115.87663961172278L153.4869525,102.01590787417652L153.51343,115.65870990307732L153.54613750000001,136.67735205791786L153.87087625,131.66852619010783L154.071015,79.83597397299332L154.29295875,121.75083326772456L154.32566625,147.7742365677776L154.46584125,91.48047441834512L154.72750125000002,71.93150786529279L154.9634625,58.280166437925686L155.04211625,31.65353959489829L155.105195,84.48411036408186L155.50703000000001,126.74192492380625L155.6549925,79.34257682928377L155.74299125,96.1008998922131L155.88472375,131.7008156049707L156.28655875,139.051417934411L156.43452125,145.53310634100376L156.52252,161.26952451888795L156.66425249999998,168.88126270240417L156.9508325,120.8342498089425L157.154865,92.4243305773298L157.30204874999998,110.86941865889791L157.44378125,132.6168944989102L157.61977875,101.92224105202472L157.80200625,74.41022911782198L157.99825124999998,70.0858104617646L158.22331,112.24006775027304L158.3993075,124.34847145373523L158.54026125000001,100.33835296152685L158.768435,96.55802405370184L159.00283875,160.02559345007825L159.17883625,151.56092415040413L159.19596875,102.04646855274245L159.54796375,122.84792912271693L159.7823675,141.61447064327302L159.958365,151.65782747524958L159.9754975,140.20441188693547L160.257405,113.06384356073269L160.56189625,133.42062533286818L160.73789375,146.60020220864948L160.75502625,151.8626447626897L160.85548500000002,98.08913150047098L161.341425,133.21584831992547L161.39126499999998,91.75854805445525L161.45434375000002,81.5569586317803L161.63501375,105.9585066522825L162.12095374999998,134.7996251967266L162.1279625,111.52162556446454L162.23153625,67.110103686893L162.23387250000002,101.31291935499291L162.718255,62.31897371121005L162.90048249999998,108.47511525351175L163.011065,130.38572205389278L163.01340125000002,134.23011291983568L163.35994499999998,93.05540480547288L163.68001124999998,150.78227190114083L163.79059375,170.64390666747025L163.79293,147.06002033976787L164.13947374999998,144.39535818600362L164.45954,161.99553857231646L164.57012250000002,147.73436778624705L164.57245875,141.41061620746254L164.91900249999998,134.51860075126325L165.18922874999998,90.05114259361508L165.23906875,126.35151144902619L165.32317375,108.47577517298716L165.69853125,118.42857782700662L165.96875749999998,131.1383487051325L166.0185975,153.44717328557954L166.1027025,160.45647026599056L166.47806,168.5232694363801L166.74828624999998,152.09352304575665L166.79812625,164.79312722031113L166.88223125000002,159.3292122696867L167.11741375,103.33990682609775L167.527815,140.93153449744435L167.577655,157.84514391275235L167.66176000000002,152.87767674943711L167.81751,111.77079131751941L168.30734375,117.79058304944023L168.35718375,142.04924938323552L168.43973125,94.42335822369135L168.44128875,113.39643457707197L169.0868725,130.97544110338603L169.1367125,153.60072225131736L169.20212750000002,125.87229049364758L169.2208175,146.02313545690285L169.86640125,156.6060285955703L169.87418875,111.26763613055644L169.91624124999998,135.1692502051196L170.00034625,140.44869856057173L170.61478,110.6602754979502L170.64593,126.69903695055585L170.69576999999998,152.69475029533353L170.779875,160.60829772184297L171.39430875,147.5960176956058L171.42545875,147.93502133164918L171.47529875,157.2399045400609L171.55940375,157.75405656332225L171.81717,68.54987897147548L172.07960875,53.527811311456745L172.2548275,102.93844348330262L172.3389325,117.33897010783873L172.52427500000002,92.36029054684607L172.8591375,112.22885401560765L173.03435625,142.90660035579313L173.11846125,147.09256847240445L173.30380375000001,138.1492330477284L173.51484499999998,97.71045612327987L173.813885,129.81033059361076L173.89799000000002,139.15402536509504L174.0833325,160.186907406557L174.29437374999998,166.1199748010771L174.59341375,175.5025228270748L174.67751875000002,160.60576927660205L174.83482625,126.0647997356041L175.0739025,130.7520718056482L175.3729425,144.46618393160315L175.45704750000002,147.62564004646185L175.570745,118.30964853680571L175.79891874999998,97.72045430065485L176.15247125,128.55945673217863L176.23657625,152.16113720895L176.35027374999999,145.7157816557272L176.53795250000002,119.48718885950777L176.932,141.3476157710618L177.016105,157.05826365906566L177.04336125,114.07865127579653L177.2357125,93.12432804226361L177.71152874999999,118.43993276285815L177.79563375,128.26893175592917L177.82289,147.98392713391465L178.01524125,164.76108284284882L178.49105749999998,178.04593207178073L178.55024250000002,132.59332207788992L178.5751625,138.92321422887682L178.79477,137.09940063554038L179.27058625,163.99351984560994L179.32977125000002,147.84702931808025L179.35469125,144.36443634084813L179.48240625,105.9034358000446L180.050115,141.73597889074105L180.09606125,117.37429492373036L180.13422,141.8095189185239L180.261935,157.45677385111435L180.82964375,165.29616475709716L180.87559,151.49512296140117L180.91374875000002,154.06589966969784L180.97527,120.38268265896154L181.6091725,136.15262298823407L181.62241125,111.83701240901189L181.69327750000002,124.3072286507643L181.75479875,146.38202469045856L182.361445,116.95054851963232L182.38870125,140.4191773260651L182.47280625000002,152.8809729134962L182.51330125,123.64222325702633L183.14097375,138.21818774885864L183.16823,153.60218050645807L183.25233500000002,157.90455160744628L183.29283,148.23665172339634L183.8083625,105.00801893582357L183.94775875,130.32719305792278L184.03186375,139.6051294508251L184.07235875,154.08195267049507L184.52481250000002,115.79330162461846L184.7272875,144.78344191227106L184.81139249999998,144.80923813843404L184.8518875,158.94491007056044L185.13145874999998,105.97907327447913L185.50681624999999,128.9285857057589L185.59092124999998,136.26173401274104L185.5994875,113.09206272907318L185.7552375,75.92019578476533L186.286345,122.40808622085919L186.37044999999998,140.67664302715835L186.37901625,158.355118628795L186.53476625,160.9571872487056L187.06198,118.45990498315187L187.06587375,139.9971550434626L187.14997874999997,137.9447361064347L187.314295,148.7408639852894L187.8454025,160.9815217393879L187.9295075,155.51361728470414L188.09382374999998,169.77185898689387L188.56340999999998,167.0936187403506L188.62493125,176.08684423528177L188.62571,129.10030073759765L188.7892475,93.44473959434428L189.326585,83.15226897982089L189.34293875,105.0749852718211L189.40446,137.69854138630697L189.56877625,140.97024536749848L190.10611375,155.90682244371337L190.1224675,146.9878021715852L190.18398875,156.22906857973683L190.21436,108.18211079069923L190.63410625,56.64344169763381L190.8794125,78.21184738465168L190.9635175,120.29329035043392L190.99388875000002,133.19306014776032L191.31551249999998,98.75288184758475L191.52811125,75.84648747908659L191.74304625,116.29971838030907L191.77341750000002,141.54644598354253L192.09504124999998,141.36856067048268L192.30764,156.80937189336106L192.522575,163.31843228780232L192.55294625000002,162.26558169410995L192.84887125,127.74408673968027L193.08716875,139.4838169991653L193.30210375000001,154.78387948521348L193.332475,162.98758103934236L193.54974625,127.14080643610544L193.68680625,82.7694749330918L193.87370625,46.19651922324793L194.0816325,96.0057151053773L194.329275,129.06956968822638L194.46633500000002,131.40818377722158L194.653235,139.86095267704727L195.10880375,136.88747674015693L195.24586375,134.5101277851656L195.43276375,149.33497845681364L195.64069,159.97033194015964L195.8883325,156.736954744453L196.0253925,152.31321190917183L196.21229250000002,169.3899092883602L196.42021875,164.29984066230185L196.66786125,147.80966779023828L196.80492125,148.47525714735724L196.99182125000002,154.34562527055718L197.1997475,162.43365641233427L197.3928775,107.36532554382916L197.44739,123.57534153165463L197.77135,124.23985558863565L197.97927625,139.45247027282423L198.17240625,141.85223774405165L198.22691875,135.93988728928812L198.55087875,146.91428170393007L198.758805,164.33092281700087L198.933245,137.65345212770052L198.96751,115.08764270519174L199.3304075,122.71760794454363L199.53833375,148.79740740065478L199.71277375,145.19676028860715L199.74703875,141.66824702137862L200.10993625,149.3058187485415L200.31786250000002,161.12925910626777L200.40897625000002,115.17761573161779L200.49230250000002,128.152150912185L200.889465,147.903681172311L201.09739125000002,162.5009162926723L201.18850500000002,154.00143593631768L201.27183125000002,148.44939727607635L201.66899375,159.5193102406458L201.81851375000002,94.0740225283161L201.82007124999998,71.55792244556106L201.87692,113.03285502983661L202.39323124999999,91.48496692415198L202.59804250000002,122.47457502056267L202.59959999999998,128.26584992305183L202.65644875,152.30730013240247L203.17275999999998,154.02985887408434L203.20157375,103.9722306146292L203.37912874999998,118.13008613663467L203.4359775,147.03025369090935L203.95228875,158.29555511633131L203.97097875,135.18014780194164L204.10180875,110.893768368665L204.21550625,135.91035142298466L204.7318175,137.5446081752194L204.7349325,117.3522370033459L204.88055875,105.63599398772183L204.995035,142.95348478549028L205.4981075,121.74533194272273L205.51446125,127.50667684420503L205.6600875,131.42622039223735L205.77456375,153.4189989764138L206.27763625,167.7608636715626L206.29399,152.76259744400897L206.4388375,130.32185868961963L206.5540925,156.12558619591468L207.057165,170.6518785032631L207.06728875000002,142.6243637091007L207.21836625,143.855687421889L207.33362125000002,163.25023611384773L207.83669375,172.79481689152294L207.84681750000001,161.57580754562807L207.98232000000002,128.92489077737687L208.11315000000002,150.43956058249753L208.47682625000002,101.75670454146282L208.62634625,142.013065135592L208.69643374999998,114.63114488492663L208.89267875000002,143.2315976452417L209.256355,163.10622979250215L209.405875,157.81426577728698L209.44481249999998,127.2332871449436L209.6722075,147.25231938518044L210.03588375,151.87164051503683L210.18540375,149.826509978665L210.45173625,165.89754549612758L210.73987375,122.05297372624798L210.88004875000001,92.60843155717733L210.9649325,113.43373862180638L211.231265,140.80289942308377L211.49292499999999,118.2524639842074L211.64945375,108.35848843516733L211.69929375,97.11779507002899L212.01079375,127.99691476523172L212.27245374999998,128.61265443949617L212.42898250000002,150.75478127976916L212.4788225,151.7006846160758L212.7903225,167.2027154571455L212.96008999999998,122.21115661803732L213.20851125000002,129.34489374760813L213.25835125,135.888238703922L213.56985125,155.17101911521033L213.73961875,149.84469963876907L213.98804,139.89095482790432L214.03788,146.49977378959971" style="fill: none;" fill="none"></path></g></g></g></g><g opacity="0.2"><g><g><g><path stroke="rgb(204, 51, 17)" stroke-width="2px" d="M20.24827875,59.19252232142857L21.027807499999998,48.14854073660714L21.80733625,99.64747767857143L22.586865,127.48073102678572L23.36639375,153.15765904017857L24.1459225,124.58924107142857L24.92545125,107.96346540178571L25.70498,66.24507533482144L26.48450875,82.5500892857143L27.2640375,125.4249525669643L28.04200875,314.5113616071429L28.8215375,234.63316127232144L28.823095000000002,22.745814732142847L29.60106625,169.6639815848214L29.602623749999996,144.19413225446428L30.380594999999996,193.52348493303572L30.3821525,110.4024330357143L31.16012375,217.25966796875002L31.161681249999997,171.4818666294643L31.939652499999998,245.6717103794643L33.33283625,-50.38552455357144L33.3445175,94.18553571428572L33.498709999999996,209.18878627232144L34.0235875,234.93492466517858L34.112365,95.29127511160713L34.27823875,244.03770089285717L34.610765,27.429040178571437L34.803116249999995,100.44549944196429L34.89189375,192.06718191964285L35.0577675,197.09477120535712L35.39029375,151.25911551339286L35.582645,105.3731556919643L35.6714225,115.10401227678572L35.837296249999994,217.3862109375L36.11453125,-158.20107386997768L36.1698225,7.241047712053575L36.36217375,139.4172963169643L36.616825,160.93871651785713L36.89406,16.870789620535717L36.94935125,135.92212611607144L37.1417025,117.41732700892857L37.29901,-169.45468157087052L37.389345,-196.3666465541295L37.396353749999996,161.84462053571428L37.675146250000004,-208.03167811802456L37.92123125,133.70981863839285L38.16887375,84.68112444196427L38.1758825,174.08896484375L38.454675,43.723265904017865L38.55824875,-191.46606828962058L38.70076,194.93258370535713L38.95541125,165.86803013392858L39.079232499999996,-201.81665701729912L39.23264625,-47.80546595982145L39.234203750000006,161.24090959821427L39.442130000000006,-191.30103376116074L39.927291249999996,-9.496661551339301L40.0137325,39.37396902901785L40.1414475,-200.79320277622767L40.51446875,145.85364676339287L40.57521125,-50.13237723214286L40.79326125,27.07893694196428L40.91864,-210.89169346400666L40.920976249999995,82.41808314732143L41.2939975,278.1800251116071L41.57279,63.536202566964285L41.69816875,84.27878348214287L41.700505,68.48911830357143L42.0447125,-231.3220392717634L42.07352625,183.61805245535714L42.352318749999995,53.453708147321436L42.38658375,-224.96439836774556L42.48003375,105.67541015625L42.67160625,-200.97557059151785L42.853055,190.70860212053572L43.1661125,107.10820312499999L43.258783750000006,-102.8203515625L43.451135,34.49611049107143L43.63258375,194.60602120535714L43.94564125,77.44003069196428L43.97211875,41.67321149553571L44.230663750000005,110.52793247767858L44.281282499999996,-199.3891796875L44.58888875,-235.36712123325896L44.7516475,89.0809095982143L45.0101925,47.746353236607135L45.19164125,166.82328683035715L45.3684175,80.75887555803571L45.53117625,94.21064174107141L45.78972125000001,134.31248604910715L45.97117,214.89632533482143L46.07941625,-217.4424232700893L46.147946250000004,105.14753906249999L46.310705,93.05349330357143L46.750698750000005,179.82124162946428L46.858945,61.14738560267858L46.927475,104.21726562500001L47.09023375,139.44224888392858L47.5302275,167.22479910714284L47.63847375,10.811290457589292L47.70700375,121.1886021205357L47.8697625,115.7578125L48.266146250000006,-60.88834542410715L48.30975625000001,174.54130301339285L48.4865325,109.67300781250002L48.55039,-207.66377929687502L48.64929125,126.64458984375L49.089285000000004,169.46261160714286L49.26606125,109.82352120535714L49.329918750000004,52.67457728794643L49.42882,130.46638392857145L49.868813749999994,143.1881724330357L50.045590000000004,115.33064174107145L50.1094475,167.6012667410714L50.20834875,112.01124441964286L50.6483425,169.73893136160714L50.82511875,125.8148325892857L50.88897625,152.36442522321428L50.9878775,143.0627650669643L51.427871249999995,153.7733705357143L51.6046475,129.58653738839286L51.668504999999996,170.94484933035713L51.76740625,127.47373325892858L52.20506375,-105.13598353794642L52.2074,144.3704575892857L52.384176249999996,96.59881417410715L52.543820000000004,-177.53012102399552L52.546935000000005,169.9151646205357L52.926965,-159.61674839564733L52.98692875,153.42142578124998L53.163705,92.2740708705357L53.2665,-172.2915743582589L53.32646375,122.01802176339287L53.662105,-142.10226771763394L53.7664575,144.64748325892856L53.94323375,103.4373828125L54.028896249999995,-178.2291190011161L54.105992500000006,99.56543805803572L54.54598625,161.69376953124998L54.722762499999995,86.01370814732142L54.808425,134.38740513392858L54.88552125,147.63820033482142L55.325514999999996,151.20875L55.50229125,174.54265345982142L55.58795375,156.26190569196427L55.665049999999994,147.89058035714285L55.855064999999996,-204.27692871093745L56.10504375,142.55950892857143L56.281819999999996,118.95072823660713L56.44457875,171.42481026785714L56.63459375,115.8575306919643L56.8845725,136.77705078125L57.06134875,132.42741629464285L57.224107499999995,143.9930385044643L57.4141225,173.359140625L57.66410125,141.3027650669643L57.8408775,104.84556082589285L58.00363625,130.33977957589286L58.19365125,147.5870982142857L58.44363,136.27453125L58.62040625,73.49239955357143L58.744227499999994,-60.88021205357144L58.783165000000004,163.37869698660714L59.0494975,-191.51666399274558L59.223158749999996,143.01221540178574L59.399935,119.70455357142858L59.531543750000004,-95.46743164062502L59.56269375,152.61720424107142L60.00268750000001,171.59953962053572L60.17946375,114.34938895089286L60.3110725,110.98036272321428L60.3422225,113.57067243303571L60.782216250000005,136.47568638392858L60.958992499999994,138.235625L61.09060125,162.94983816964287L61.121751249999996,130.5163197544643L61.561745,161.11510323660713L61.738521250000005,113.0172349330357L61.797706250000005,-182.84403564453126L61.90127999999999,138.41164341517856L62.1053125,-185.25740618024557L62.34127375,177.08005022321427L62.51805,167.75392857142856L62.680808750000004,140.37230747767856L62.88484125000001,182.2088002232143L63.120802499999996,171.19747488839286L63.29524249999999,-134.83149483816962L63.29757875,152.39094308035715L63.4603375,161.54331752232144L63.70408625,-144.6844402204241L63.90033125000001,168.8341629464286L64.0771075,130.1641294642857L64.13084125,-141.93411795479912L64.23986624999999,141.98170200892858L64.390165,-198.33693254743304L64.67986,159.70726283482142L64.85663625000001,116.81367745535715L65.01939499999999,122.69695870535715L65.16969375,134.7392885044643L65.45938875,149.92696149553572L65.50767125,-164.6154757254464L65.636165,124.35659598214286L65.79892375,134.41376953125L65.92196625,-137.9185693359375L66.2389175,177.08057198660714L66.41569375,127.54938895089285L66.5784525,114.3248046875L66.70149500000001,138.88847377232142L67.01844625000001,149.52425223214286L67.10333,-139.72883510044645L67.1952225,121.59032924107143L67.35798125,118.07082031249999L67.480245,-150.87207066127232L67.79797500000001,173.18315290178572L67.97475125,114.92817801339287L68.13750999999999,138.03419363839285L68.25977375,86.33962611607143L68.57750375,166.09352399553572L68.65070625,-137.0612890625L68.75428000000001,119.27768973214285L68.91703874999999,125.38769252232143L69.3570325,156.76574497767857L69.430235,154.92910714285716L69.53380875,137.1041964285714L69.6965675,193.07136160714285L70.13656125,150.53039620535714L70.20976375,170.29120256696427L70.3133375,117.04L70.47609625,142.10732421875L70.91609000000001,177.70935825892857L70.9892925,163.15016462053572L71.09286625,122.77304408482144L71.255625,175.09443359375L71.69561875000001,158.65121372767857L71.76882125,121.21367745535713L71.87239500000001,135.06714006696427L72.03515374999999,130.54145647321428L72.4751475,171.09655970982143L72.54835,171.74897879464285L72.65192375000001,123.25042689732142L72.8146825,143.48993582589284L72.9268225,-138.0041078404018L73.25467625,165.91753627232143L73.4314525,132.27681082589285L73.59421125,204.3348828125L73.70635125,152.03718750000002L74.034205,156.36358816964287L74.21098125,167.47549107142856L74.37374,209.18725167410713L74.48588,139.5409849330357L74.81373375,155.98638392857143L74.99051,91.795859375L75.15326875,152.26550502232143L75.26540875,171.07087053571428L75.58002375000001,-146.66599400111608L75.5932625,160.66212053571428L75.66724375000001,21.84297991071428L75.93279749999999,131.1451674107143L76.3595525,182.0319224330357L76.37279124999999,154.77936104910714L76.44677250000001,125.1864146205357L76.71232625,127.22264229910714L77.13908125,211.7760267857143L77.15231999999999,165.86723214285715L77.22630125,135.04212611607142L77.491855,135.51960100446428L77.91861,138.03354910714285L77.93184875,186.43354910714288L78.00583,174.99311941964285L78.27138375,208.38152622767856L78.69813875000001,146.73426060267857L78.7113775,161.76908761160715L78.78535875,119.37823660714285L79.0509125,147.8648911830357L79.47766750000001,187.06043247767857L79.49090625,157.41957589285715L79.5648875,126.71996930803573L79.83044125,145.32546875L80.25719625,128.83369419642858L80.27043499999999,170.0659849330357L80.34441625,204.93705915178572L80.9136825,-33.14492745535715L81.036725,102.8850502232143L81.04996374999999,156.46376674107142L81.38949875,136.14847935267858L81.69321125,125.0858984375L81.81625375,156.16077566964287L81.8294925,151.3092661830357L82.1690275,212.9323465401786L82.3715025,27.501902901785712L82.5957825,123.70420758928572L82.60902125,171.4740401785714L82.94855625,132.2264146205357L83.0723775,-69.0384814453125L83.15103125,124.38197823660715L83.38855,181.80713448660714L83.73042124999999,-13.364969308035729L83.85190625,116.08655412946429L84.16807874999999,160.86370535714286L84.20701625000001,149.8524107142857L84.34952750000001,19.050456194196425L84.631435,159.35534877232143L84.9476075,163.35254743303574L84.986545,145.97896205357142L85.12905625,39.222780412946435L85.41096375000001,142.48471261160714L85.72713625,179.3933035714286L85.76607375,165.5139369419643L85.908585,204.2580301339286L86.1904925,80.60731863839285L86.506665,155.0056529017857L86.5456025,146.65814453125L86.68811375,120.53474051339285L86.97002125,177.53244977678574L87.32513125,204.0568443080357L87.46764250000001,147.21106026785714L87.74955,143.26477957589287L87.9909625,-34.91215541294645L88.06572249999999,181.15327287946428L88.10466,126.99622767857143L88.52752124999999,-37.75329520089284L88.84525125,216.22755859375L88.88418874999999,137.58176339285714L89.30704999999999,172.00184988839285L89.30860750000001,174.66661830357143L89.62478,168.48231026785714L89.66371749999999,192.13955357142856L90.08657875,208.0044140625L90.08813625,106.33013113839286L90.40430875,140.59841517857143L90.44324624999999,134.41380022321428L90.80147125,52.31695452008928L90.867665,164.91231305803572L91.1838375,177.3318470982143L91.3364725,-65.37747488839285L91.581,155.66003627232143L91.96336625,165.11322265625L92.00230375,149.12184988839286L92.11600125,160.76383370535714L92.13780625,-37.80949218750001L92.742895,150.5300892857143L92.7818325,128.80671595982145L92.89553000000001,143.61712332589286L92.91733500000001,164.0823716517857L93.52242375,194.98279575892857L93.56136124999999,159.5824693080357L93.67505875,131.97648995535715L93.69686375,194.25174386160714L94.25055499999999,59.65557198660715L94.28715625000001,-1.1308607700892743L94.4763925,180.7005357142857L95.03008374999999,164.35727957589285L95.066685,175.62144531250001L95.08148125,167.7276255580357L95.21932,62.55409040178572L95.8096125,176.1254073660714L95.84621375,171.92748325892856L95.86101000000001,187.7149693080357L95.99884875,208.60833984375L96.505815,53.64221819196429L96.6257425,196.23772879464286L96.64053875,173.88707310267858L96.77837749999999,172.30174107142858L97.27755625,70.99459542410715L97.40527125,124.40797433035713L97.4200675,188.51986607142857L97.55790624999999,118.57478236607145L97.95195375,35.49297014508929L98.1848,157.24358816964286L98.19959625,186.33278738839286L98.337435,154.67743303571427L98.7314825,149.77629464285715L98.96432874999999,155.53475167410716L98.97912500000001,166.16871930803572L99.11696375,187.0357254464286L99.51101125,155.88568359375L99.74385749999999,109.37099888392856L99.75865375000001,167.1734207589286L99.8964925,166.3683705357143L100.29054,158.95331473214284L100.34738875,-75.13009974888394L100.52338624999999,124.35779296875L100.5381825,170.79580915178573L101.07006874999999,198.95301618303571L101.1269175,201.31672712053572L101.302915,152.69396484375L101.31771125,158.50042410714286L101.8495975,94.38349888392858L101.90644625,139.01388113839286L101.90800375,4.438364955357136L102.09724,177.05457589285714L102.62912625,121.38963448660714L102.685975,83.24716517857144L102.6875325,186.65910435267855L102.87676875000001,187.2375558035714L103.408655,171.72445591517857L103.46550375,166.29541573660714L103.46706125,185.17579241071428L103.65629750000001,192.46749720982143L104.11576000000001,17.57375837053572L104.18818375,195.40827845982145L104.24659,124.93495535714285L104.43582625,168.5816908482143L104.89528875,88.27549107142858L104.96771249999999,135.41966796875L105.02611875,144.34522879464285L105.215355,177.08130859375L105.39836125000001,-34.55901367187501L105.74724125,148.56890345982143L105.80564749999999,127.52572544642857L105.99488375,177.33169363839284L106.00890125,10.71964425223215L106.32118,-43.56768833705358L106.52677,147.18610770089285L106.7744125,181.6055496651786L106.78843,154.00058314732144L106.91926000000001,-0.22150390624998906L107.30629875,184.39658482142858L107.4675,42.91592912946429L107.55394125,168.80942522321428L107.63571,61.201296037946435L108.0858275,146.9598158482143L108.21276375,76.73077008928571L108.25871,14.181436941964288L108.33346999999999,187.91676897321426L108.78826,76.2183984375L108.99229249999999,158.39947823660714L109.03823874999999,203.7047154017857L109.11299874999999,168.2299302455357L109.56778875,199.70754743303573L109.66279625,21.49180245535714L109.77182125,168.1540904017857L109.8925275,180.27318080357142L110.3473175,136.14823381696428L110.3660075,52.159704241071424L110.55135,192.13982979910713L110.67205625,193.57320591517856L110.96642375,30.59092633928571L111.14553625,83.37294084821428L111.33087875,150.27933593749998L111.451585,178.51354910714284L111.7459525,193.17068080357146L111.91649875,8.83936244419643L111.925065,120.66134486607142L112.23111374999999,187.7162276785714L112.52548125,144.69695870535713L112.591675,23.12338727678571L112.70459375,136.85289062500001L113.0106425,187.0117857142857L113.25127625,27.72113560267858L113.30501,143.54030133928572L113.4841225,118.77489397321428L113.79017125,175.24599051339285L114.030805,149.95237444196428L114.08453875,146.18066964285714L114.26365125000001,151.2599135044643L114.5697,187.0372600446429L114.61642499999999,7.531685267857146L114.86406749999999,163.75488839285714L115.04318,77.71589006696428L115.34922875,183.56618303571426L115.39595375,172.80462890625L115.51043,33.26922991071429L115.82270875,133.98629185267856L116.12875749999999,185.7535072544643L116.1754825,161.16427176339286L116.28995875,138.31131138392857L116.3312325,-36.23846261160715L116.88336625,43.104040178571424L116.90828625,179.16780970982143L116.93476375,2.310061383928568L117.0694875,189.52536551339287L117.66289499999999,154.32696149553573L117.6706825,15.976794084821433L117.687815,182.30946986607142L117.7142925,201.21532087053572L118.29913375000001,37.46758370535715L118.42606999999998,89.78169921875L118.46734375,165.5405775669643L118.49382125,162.82311104910713L119.07866250000001,208.15554129464286L119.20559875000001,182.73636439732144L119.22896125000001,70.38170758928571L119.2468725,200.13579241071426L119.85819125,208.6077260044643L119.9726675,64.77379464285714L119.9851275,175.54588169642858L120.02640124999999,172.88092912946428L120.54193375,-13.709394531250013L120.80592999999999,184.4734375L121.3214625,129.10940011160713L121.3339225,57.48890345982143L121.544185,155.98724330357143L121.58545874999999,201.06572823660713L121.96159499999999,33.54803571428572L122.01688624999998,48.661096540178576L122.27621,80.61539062499999L122.36498750000001,170.5687806919643L122.74112375000001,160.1345870535714L122.79641500000001,136.02347098214287L123.05573875,185.95546037946428L123.52065250000001,180.85061941964287L123.57594375000001,131.87446986607142L123.8352675,142.0063169642857L123.924045,176.80409877232142L124.30018125000001,189.34953125L124.3554725,166.64484375L124.391295,0.9934528459821497L124.70357375,173.98820312499998L125.07971,154.98042410714285L125.10618749999999,91.59019252232143L125.13500125,128.50495256696428L125.4831025,171.42312220982143L125.85923875,181.00294363839285L125.88571624999999,147.7641908482143L125.91453,117.76921037946428L126.26263125,182.56049944196428L126.63098,86.36052734375L126.6387675,139.64361886160714L126.69405875,131.64845424107142L127.04216,164.43388671875L127.41050874999999,141.90761160714285L127.41829625,169.8885853794643L127.4735875,177.07879185267856L127.82168874999999,189.37497488839287L127.98989875000001,17.233706752232145L128.197825,191.7123828125L128.25311624999998,131.44720703125L128.6012175,182.63765904017856L128.7694275,173.96122488839285L128.97735375,155.96198381696428L128.98592,74.88949776785714L129.38074625000002,170.41842075892856L129.54895625,160.7890931919643L129.70314875,64.12244977678573L129.75688250000002,154.09956473214285L130.160275,189.27445870535712L130.328485,184.34532924107143L130.4577575,53.40730189732142L130.4826775,166.3688002232143L130.93980375,204.8122042410714L131.02235125,0.2602218191964365L131.10801375,133.96103236607144L131.21626,68.91079520089286L131.69519125,12.549207589285723L131.7193325,183.8938504464286L131.80188,195.00541573660712L131.89299375,41.001425781250006L132.47472,153.16972098214285L132.48017125,48.118984375000004L132.49886125,175.9746177455357L132.67252249999999,165.51369140625L133.175595,64.84745535714285L133.19740000000002,69.527734375L133.27839,176.12513113839285L133.45205124999998,158.34785435267858L133.89516,78.41729352678571L133.97692875,128.70601562500002L134.05791875,187.36394531250002L134.18796999999998,67.67234375000001L134.67468875,164.50991071428572L134.7564575,163.35260881696428L134.8374475,168.68282087053572L134.96749874999998,124.15507254464285L135.4542175,162.17038504464287L135.53598625,151.108203125L135.61697625,170.34196707589285L135.7470275,128.40428292410715L136.20103875,89.99614397321429L136.315515,157.31899832589286L136.39650500000002,186.30783482142854L136.452575,55.111150948660715L136.9805675,182.6372293526786L137.09504375,147.73960658482144L137.17603375000002,166.72197265625L137.23210375000002,126.14207031250001L137.76009625,128.02747767857142L137.78501625,47.43840541294642L137.90027125,29.42938895089285L137.9555625,174.490078125L138.539625,158.2742857142857L138.564545,142.08231026785714L138.6798,126.29295200892857L138.73509125,192.99469308035714L139.21168625,39.201449497767854L139.31915375,143.23869140624998L139.32694124999998,25.52379045758928L139.51462,174.2648911830357L139.83468625,31.077486049107144L140.0986825,181.40525390625L140.10647,126.39334542410714L140.29414875,187.23872209821428L140.59085249999998,82.37324218750001L140.76918625,42.27719866071428L140.87821125000002,161.69294084821428L141.0736775,187.89080357142856L141.37038124999998,154.77865513392857L141.548715,130.71811941964285L141.65774000000002,173.71206752232143L141.85320625,168.7833984375L141.99883250000002,32.212689732142856L142.32824374999998,144.99918247767857L142.43726875000002,140.67422433035716L142.632735,175.19381417410713L142.77836125000002,141.45352399553573L143.10777249999998,129.43541015625001L143.2167975,147.26164062499998L143.41226375000002,189.32411830357142L143.55789000000001,134.33759207589284L143.75647125,38.922183314732145L143.99632625,137.10382812499998L144.19179250000002,220.27582868303574L144.33741875,169.0343359375L144.536,130.46632254464285L144.775855,148.8955887276786L144.97132125000002,169.26065848214284L145.1169475,182.4861635044643L145.31552875,174.53940011160714L145.37938625,31.903330078125L145.75085,166.64637834821428L145.89647625,154.93054966517857L146.07558875,84.4284375L146.158915,134.01152064732142L146.53037875,170.92011160714284L146.676005,181.4801729910714L146.6931375,16.166010044642864L146.93844375,142.81121372767856L147.3099075,167.19963169642855L147.45553375,174.34079241071427L147.47266625,206.59866071428573L147.63386749999998,62.51538783482143L148.040375,-1.1751032366071286L148.08943625,191.11125L148.2350625,121.16321986607143L148.41339624999998,162.14635323660713L148.67972875,27.376618303571426L148.868965,175.2203013392857L149.01459125000002,184.89852120535716L149.16489,90.36920479910715L149.4592575,135.69626395089287L149.64849375,180.14832589285714L149.79412000000002,184.34511439732142L149.94441875,159.40574497767858L150.22788375,90.2898046875L150.42802250000003,194.40501953125L150.4373675,35.99140764508928L150.7239475,155.43291573660716L151.0074125,142.6358705357143L151.20755125000002,193.67571707589286L151.21689625,183.919140625L151.50347625,145.55222098214287L151.65143875,43.9850990513393L151.9543725,80.55842633928572L151.971505,-38.56353236607144L151.98708000000002,210.22015904017854L152.31804875,29.328949497767848L152.73390125,139.1400864955357L152.75103375,148.36799386160715L152.76660875000002,166.04275948660714L153.0913475,81.24807477678573L153.4869525,81.22481026785715L153.51343,136.12291294642858L153.54613750000001,168.20531529017856L153.87087625,124.15528738839286L154.071015,2.0871456473214334L154.29295875,184.62312220982145L154.32566625,186.80934151785715L154.46584125,7.039831194196426L154.72750125000002,42.60805803571429L154.9634625,37.80315429687499L155.04211625,-8.286400669642859L155.105195,163.72996651785715L155.50703000000001,190.12864676339285L155.6549925,8.243554687499996L155.74299125,121.23838448660715L155.88472375,185.10068917410717L156.28655875,150.07732142857142L156.43452125,155.25563895089286L156.52252,184.8741517857143L156.66425249999998,180.29886997767858L156.9508325,48.76373046874999L157.154865,49.809451729910705L157.30204874999998,138.53705078125L157.44378125,165.23810825892858L157.61977875,55.88026088169643L157.80200625,33.142211216517865L157.99825124999998,63.59918247767858L158.22331,175.47145368303572L158.3993075,142.51107700892857L158.54026125000001,64.32317522321429L158.768435,90.88753069196429L159.00283875,255.22694754464283L159.17883625,138.86392020089286L159.19596875,27.774785156249997L159.54796375,154.05011997767858L159.7823675,169.76428292410714L159.958365,166.7228627232143L159.9754975,123.0242885044643L160.257405,72.35299107142858L160.56189625,163.95579799107142L160.73789375,166.36956752232143L160.75502625,159.75630859375002L160.85548500000002,17.428861607142856L161.341425,185.90592354910714L161.39126499999998,29.572597656250004L161.45434375000002,66.25457449776785L161.63501375,142.5608286830357L162.12095374999998,178.06130301339286L162.1279625,76.60462611607143L162.23153625,0.49282087053572177L162.23387250000002,152.61714285714285L162.718255,3.828055245535717L162.90048249999998,177.7093275669643L163.011065,163.25163225446428L163.01340125000002,139.99669921875L163.35994499999998,31.293342633928567L163.68001124999998,237.37257254464285L163.79059375,200.4363588169643L163.79293,111.6841908482143L164.13947374999998,140.39836495535715L164.45954,188.39580915178573L164.57012250000002,126.34261160714286L164.57245875,131.9249888392857L164.91900249999998,124.18057756696429L165.18922874999998,23.349955357142868L165.23906875,180.80206473214287L165.32317375,81.66217075892858L165.69853125,133.3577818080357L165.96875749999998,150.20300502232143L166.0185975,186.91041015625L166.1027025,170.97041573660715L166.47806,180.6234681919643L166.74828624999998,127.44890345982142L166.79812625,183.84253348214287L166.88223125000002,151.13333984374998L167.11741375,19.355948660714297L167.527815,197.3189760044643L167.577655,183.21555803571428L167.66176000000002,145.4264760044643L167.81751,50.11046316964286L168.30734375,126.82027064732142L168.35718375,178.4372488839286L168.43973125,22.984521484374994L168.44128875,141.85604910714284L169.0868725,157.34395089285715L169.1367125,187.5386439732143L169.20212750000002,84.27964285714286L169.2208175,176.24940290178571L169.86640125,172.48036830357142L169.87418875,43.26004743303572L169.91624124999998,171.02167131696427L170.00034625,148.36787109375L170.61478,65.97764090401786L170.64593,150.7571791294643L170.69576999999998,191.6883203125L170.779875,172.47861886160715L171.39430875,128.07759765625002L171.42545875,148.44352678571428L171.47529875,171.19722935267856L171.55940375,158.52528459821428L171.81717,-65.25638741629464L172.07960875,30.994709821428575L172.2548275,177.0543917410714L172.3389325,138.93976004464287L172.52427500000002,54.89227120535715L172.8591375,142.03169921875002L173.03435625,188.92321986607143L173.11846125,153.37152064732143L173.30380375000001,124.7342299107143L173.51484499999998,37.05229073660715L173.813885,177.96014229910713L173.89799000000002,153.16956752232142L174.0833325,191.73623046875002L174.29437374999998,175.01957589285715L174.59341375,189.57634486607142L174.67751875000002,138.26063895089285L174.83482625,74.25334542410715L175.0739025,137.7829799107143L175.3729425,165.0373521205357L175.45704750000002,152.36482421875002L175.570745,74.33566127232143L175.79891874999998,66.83666294642858L176.15247125,174.81796037946427L176.23657625,187.56365792410713L176.35027374999999,136.04774832589285L176.53795250000002,80.14429966517856L176.932,174.13825613839285L177.016105,180.62423549107143L177.04336125,49.60923270089287L177.2357125,61.69284319196428L177.71152874999999,156.41333984375L177.79563375,143.0124302455357L177.82289,177.55642020089286L178.49105749999998,197.97320591517857L178.55024250000002,64.41440708705358L178.5751625,148.41805245535716L178.79477,134.36368024553573L179.27058625,204.33469866071428L179.32977125000002,123.6272935267857L179.35469125,139.14054687499998L179.48240625,48.21193498883929L180.050115,195.4847935267857L180.09606125,80.83176897321428L180.13422,178.46235491071428L180.82964375,177.05525111607145L180.87559,130.79356026785715L180.91374875000002,157.92206473214284L180.97527,69.85785714285714L181.6091725,159.80753348214284L181.62241125,75.36359654017858L181.69327750000002,143.01255301339285L181.75479875,179.49421875L182.361445,72.80333426339287L182.38870125,175.6221205357143L182.47280625000002,171.57366629464286L182.51330125,79.78409877232143L183.14097375,160.08213448660715L183.16823,176.67816964285714L183.25233500000002,164.35810825892858L183.29283,133.73480189732143L183.8083625,40.16506975446429L183.94775875,168.30595424107142L184.03186375,153.52203404017857L184.07235875,175.7971875L184.52481250000002,58.36032505580357L184.7272875,188.26865234374998L184.81139249999998,144.84793247767857L184.8518875,180.14841796875L185.13145874999998,26.530318080357148L185.50681624999999,163.35285435267858L185.59092124999998,147.26145647321428L185.5994875,78.33755580357143L185.7552375,20.162395368303564L186.286345,192.139921875L186.37044999999998,168.07947823660714L186.37901625,184.87283203125L186.53476625,164.86029017857143L187.06198,54.71398158482143L187.06587375,172.3030301339286L187.14997874999997,134.86610770089285L187.314295,164.93505580357143L187.8454025,179.34250837053574L187.9295075,147.31176060267856L188.09382374999998,191.15922154017858L188.56340999999998,163.0762583705357L188.62493125,189.5766824776786L188.62571,58.620485491071435L188.7892475,39.96139787946428L189.326585,67.71356305803572L189.34293875,137.95905970982145L189.40446,186.6338755580357L189.56877625,145.8778013392857L190.10611375,178.3116880580357L190.1224675,133.60927176339285L190.18398875,170.0909681919643L190.21436,36.11167410714287L190.63410625,-20.664561941964273L190.8794125,110.56445591517857L190.9635175,183.41545479910715L190.99388875000002,152.54271484375L191.31551249999998,47.09261439732144L191.52811125,41.48689592633928L191.74304625,176.97956473214285L191.77341750000002,179.41653738839287L192.09504124999998,141.10173270089285L192.30764,179.97058872767857L192.522575,173.08202287946426L192.55294625000002,160.68630580357143L192.84887125,75.96184430803572L193.08716875,157.09341238839286L193.30210375000001,177.7339732142857L193.332475,175.2931333705357L193.54974625,73.37064453125L193.68680625,16.212477678571418L193.87370625,-8.662914341517851L194.0816325,170.71950892857143L194.329275,178.66535156249998L194.46633500000002,134.91610491071427L194.653235,152.5401060267857L195.10880375,132.42726283482142L195.24586375,130.94410435267858L195.43276375,171.57225446428572L195.64069,175.92336216517856L195.8883325,151.88688895089285L196.0253925,145.67759765625001L196.21229250000002,195.00495535714285L196.42021875,156.66473772321427L196.66786125,123.07440848214287L196.80492125,149.47364118303574L196.99182125000002,163.15117745535716L197.1997475,174.565703125L197.3928775,24.76282924107143L197.44739,147.89036551339285L197.77135,125.23662667410713L197.97927625,162.27139229910716L198.17240625,145.45188895089285L198.22691875,127.07136160714285L198.55087875,163.37587332589285L198.758805,190.45588448660712L198.933245,97.63724609375L198.96751,81.23892857142856L199.3304075,134.16255580357142L199.53833375,187.91710658482143L199.71277375,139.79578962053571L199.74703875,136.37547712053572L200.10993625,160.7621763392857L200.31786250000002,178.86441964285714L200.40897625000002,46.250150669642856L200.49230250000002,147.6139536830357L200.889465,177.5309765625L201.09739125000002,184.39676897321428L201.18850500000002,141.25221540178572L201.27183125000002,140.12133928571427L201.66899375,176.1241796875L201.81851375000002,-4.093909040178563L201.82007124999998,37.78377232142857L201.87692,175.24525390624999L202.39323124999999,59.16313476562499L202.59804250000002,168.95898716517857L202.59959999999998,136.9527622767857L202.65644875,188.36947544642857L203.17275999999998,156.61369698660715L203.20157375,28.885788225446426L203.37912874999998,139.36686941964285L203.4359775,190.38050502232142L203.95228875,175.1935072544643L203.97097875,100.50703683035715L204.10180875,74.46419921875001L204.21550625,173.43522600446428L204.7318175,139.99599330357142L204.7349325,87.0636802455357L204.88055875,88.06162946428572L204.995035,198.92972098214287L205.4981075,89.93310267857143L205.51446125,136.14869419642858L205.6600875,137.3055357142857L205.77456375,186.40816685267856L206.27763625,189.27366071428574L206.29399,130.26519810267857L206.4388375,96.66075055803572L206.5540925,194.83117745535716L207.057165,192.4413169642857L207.06728875000002,100.58309151785714L207.21836625,145.70267299107144L207.33362125000002,192.34205915178572L207.83669375,187.1116880580357L207.84681750000001,144.7472935267857L207.98232000000002,79.948515625L208.11315000000002,182.71156529017856L208.47682625000002,28.732420479910708L208.62634625,202.3976060267857L208.69643374999998,73.55826450892856L208.89267875000002,186.13227678571428L209.256355,192.91817801339286L209.405875,149.8763197544643L209.44481249999998,81.36181919642857L209.6722075,177.28086774553572L210.03588375,158.80062220982143L210.18540375,146.75881417410713L210.45173625,190.0040987723214L210.73987375,56.28611607142857L210.88004875000001,48.44161830357144L210.9649325,144.67169921874998L211.231265,181.856640625L211.49292499999999,84.42681082589286L211.64945375,93.51752511160714L211.69929375,80.25675502232143L212.01079375,174.3155943080357L212.27245374999998,129.53626395089287L212.42898250000002,183.96797154017855L212.4788225,153.11953962053573L212.7903225,190.45576171875L212.96008999999998,54.72381835937501L213.20851125000002,140.04549944196427L213.25835125,145.70325613839287L213.56985125,184.09518973214287L213.73961875,141.85522042410713L213.98804,124.96033761160716L214.03788,156.41300223214284" style="fill: none;" fill="none"></path></g></g></g></g></g></g><g transform="translate(96, 176)" clip-path="url(#clip_1)"><clipPath id="clip_1"><rect width="233" height="24"></rect></clipPath><g><g><line x1="0" y1="0" x2="0" y2="5" style="visibility: inherit;" fill="rgb(0, 0, 0)" stroke="rgb(204, 204, 204)" stroke-width="1px"></line><line x1="19.46875" y1="0" x2="19.46875" y2="5" style="visibility: inherit;" fill="rgb(0, 0, 0)" stroke="rgb(204, 204, 204)" stroke-width="1px"></line><line x1="38.9375" y1="0" x2="38.9375" y2="5" style="visibility: inherit;" fill="rgb(0, 0, 0)" stroke="rgb(204, 204, 204)" stroke-width="1px"></line><line x1="58.40625" y1="0" x2="58.40625" y2="5" style="visibility: inherit;" fill="rgb(0, 0, 0)" stroke="rgb(204, 204, 204)" stroke-width="1px"></line><line x1="77.875" y1="0" x2="77.875" y2="5" style="visibility: inherit;" fill="rgb(0, 0, 0)" stroke="rgb(204, 204, 204)" stroke-width="1px"></line><line x1="97.34375" y1="0" x2="97.34375" y2="5" style="visibility: inherit;" fill="rgb(0, 0, 0)" stroke="rgb(204, 204, 204)" stroke-width="1px"></line><line x1="116.8125" y1="0" x2="116.8125" y2="5" style="visibility: inherit;" fill="rgb(0, 0, 0)" stroke="rgb(204, 204, 204)" stroke-width="1px"></line><line x1="136.28125" y1="0" x2="136.28125" y2="5" style="visibility: inherit;" fill="rgb(0, 0, 0)" stroke="rgb(204, 204, 204)" stroke-width="1px"></line><line x1="155.75" y1="0" x2="155.75" y2="5" style="visibility: inherit;" fill="rgb(0, 0, 0)" stroke="rgb(204, 204, 204)" stroke-width="1px"></line><line x1="175.21875" y1="0" x2="175.21875" y2="5" style="visibility: inherit;" fill="rgb(0, 0, 0)" stroke="rgb(204, 204, 204)" stroke-width="1px"></line><line x1="194.6875" y1="0" x2="194.6875" y2="5" style="visibility: inherit;" fill="rgb(0, 0, 0)" stroke="rgb(204, 204, 204)" stroke-width="1px"></line><line x1="214.15625" y1="0" x2="214.15625" y2="5" style="visibility: inherit;" fill="rgb(0, 0, 0)" stroke="rgb(204, 204, 204)" stroke-width="1px"></line><line x1="233.625" y1="0" x2="233.625" y2="5" style="visibility: inherit;" fill="rgb(0, 0, 0)" stroke="rgb(204, 204, 204)" stroke-width="1px"></line></g><g transform="translate(0, 8)"><text x="0" y="0" dx="0em" dy="0.95em" style="text-anchor: middle; visibility: hidden; font-family: Roboto, sans-serif; font-size: 12px; font-weight: 200;" fill="rgb(33, 33, 33)" stroke="none" stroke-width="1px">-100k</text><text x="19.46875" y="0" dx="0em" dy="0.95em" style="text-anchor: middle; visibility: inherit; font-family: Roboto, sans-serif; font-size: 12px; font-weight: 200;" fill="rgb(33, 33, 33)" stroke="none" stroke-width="1px">0</text><text x="38.9375" y="0" dx="0em" dy="0.95em" style="text-anchor: middle; visibility: hidden; font-family: Roboto, sans-serif; font-size: 12px; font-weight: 200;" fill="rgb(33, 33, 33)" stroke="none" stroke-width="1px">100k</text><text x="58.40625" y="0" dx="0em" dy="0.95em" style="text-anchor: middle; visibility: inherit; font-family: Roboto, sans-serif; font-size: 12px; font-weight: 200;" fill="rgb(33, 33, 33)" stroke="none" stroke-width="1px">200k</text><text x="77.875" y="0" dx="0em" dy="0.95em" style="text-anchor: middle; visibility: hidden; font-family: Roboto, sans-serif; font-size: 12px; font-weight: 200;" fill="rgb(33, 33, 33)" stroke="none" stroke-width="1px">300k</text><text x="97.34375" y="0" dx="0em" dy="0.95em" style="text-anchor: middle; visibility: inherit; font-family: Roboto, sans-serif; font-size: 12px; font-weight: 200;" fill="rgb(33, 33, 33)" stroke="none" stroke-width="1px">400k</text><text x="116.8125" y="0" dx="0em" dy="0.95em" style="text-anchor: middle; visibility: hidden; font-family: Roboto, sans-serif; font-size: 12px; font-weight: 200;" fill="rgb(33, 33, 33)" stroke="none" stroke-width="1px">500k</text><text x="136.28125" y="0" dx="0em" dy="0.95em" style="text-anchor: middle; visibility: inherit; font-family: Roboto, sans-serif; font-size: 12px; font-weight: 200;" fill="rgb(33, 33, 33)" stroke="none" stroke-width="1px">600k</text><text x="155.75" y="0" dx="0em" dy="0.95em" style="text-anchor: middle; visibility: hidden; font-family: Roboto, sans-serif; font-size: 12px; font-weight: 200;" fill="rgb(33, 33, 33)" stroke="none" stroke-width="1px">700k</text><text x="175.21875" y="0" dx="0em" dy="0.95em" style="text-anchor: middle; visibility: inherit; font-family: Roboto, sans-serif; font-size: 12px; font-weight: 200;" fill="rgb(33, 33, 33)" stroke="none" stroke-width="1px">800k</text><text x="194.6875" y="0" dx="0em" dy="0.95em" style="text-anchor: middle; visibility: hidden; font-family: Roboto, sans-serif; font-size: 12px; font-weight: 200;" fill="rgb(33, 33, 33)" stroke="none" stroke-width="1px">900k</text><text x="214.15625" y="0" dx="0em" dy="0.95em" style="text-anchor: middle; visibility: inherit; font-family: Roboto, sans-serif; font-size: 12px; font-weight: 200;" fill="rgb(33, 33, 33)" stroke="none" stroke-width="1px">1M</text><text x="233.625" y="0" dx="0em" dy="0.95em" style="text-anchor: middle; visibility: hidden; font-family: Roboto, sans-serif; font-size: 12px; font-weight: 200;" fill="rgb(33, 33, 33)" stroke="none" stroke-width="1px">1.1M</text></g><line x1="0" y1="0" x2="233.625" y2="0" fill="rgb(0, 0, 0)" stroke="rgb(204, 204, 204)" stroke-width="1px"></line></g></g></g></g></svg>