<svg viewBox="0 0 330 200" xmlns="http://www.w3.org/2000/svg"><g><g><g><g><g><line x1="74.78125" y1="176" x2="69.78125" y2="176" style="visibility: inherit;" fill="rgb(0, 0, 0)" stroke="rgb(204, 204, 204)" stroke-width="1px"></line><line x1="74.78125" y1="161.33333333333331" x2="69.78125" y2="161.33333333333331" style="visibility: inherit;" fill="rgb(0, 0, 0)" stroke="rgb(204, 204, 204)" stroke-width="1px"></line><line x1="74.78125" y1="146.66666666666666" x2="69.78125" y2="146.66666666666666" style="visibility: inherit;" fill="rgb(0, 0, 0)" stroke="rgb(204, 204, 204)" stroke-width="1px"></line><line x1="74.78125" y1="132" x2="69.78125" y2="132" style="visibility: inherit;" fill="rgb(0, 0, 0)" stroke="rgb(204, 204, 204)" stroke-width="1px"></line><line x1="74.78125" y1="117.33333333333333" x2="69.78125" y2="117.33333333333333" style="visibility: inherit;" fill="rgb(0, 0, 0)" stroke="rgb(204, 204, 204)" stroke-width="1px"></line><line x1="74.78125" y1="102.66666666666667" x2="69.78125" y2="102.66666666666667" style="visibility: inherit;" fill="rgb(0, 0, 0)" stroke="rgb(204, 204, 204)" stroke-width="1px"></line><line x1="74.78125" y1="88" x2="69.78125" y2="88" style="visibility: inherit;" fill="rgb(0, 0, 0)" stroke="rgb(204, 204, 204)" stroke-width="1px"></line><line x1="74.78125" y1="73.33333333333333" x2="69.78125" y2="73.33333333333333" style="visibility: inherit;" fill="rgb(0, 0, 0)" stroke="rgb(204, 204, 204)" stroke-width="1px"></line><line x1="74.78125" y1="58.66666666666667" x2="69.78125" y2="58.66666666666667" style="visibility: inherit;" fill="rgb(0, 0, 0)" stroke="rgb(204, 204, 204)" stroke-width="1px"></line><line x1="74.78125" y1="44" x2="69.78125" y2="44" style="visibility: inherit;" fill="rgb(0, 0, 0)" stroke="rgb(204, 204, 204)" stroke-width="1px"></line><line x1="74.78125" y1="29.333333333333346" x2="69.78125" y2="29.333333333333346" style="visibility: inherit;" fill="rgb(0, 0, 0)" stroke="rgb(204, 204, 204)" stroke-width="1px"></line><line x1="74.78125" y1="14.666666666666673" x2="69.78125" y2="14.666666666666673" style="visibility: inherit;" fill="rgb(0, 0, 0)" stroke="rgb(204, 204, 204)" stroke-width="1px"></line><line x1="74.78125" y1="0" x2="69.78125" y2="0" style="visibility: inherit;" fill="rgb(0, 0, 0)" stroke="rgb(204, 204, 204)" stroke-width="1px"></line></g><g transform="translate(64.78125, 0)"><text x="0" y="176" dx="0em" dy="0.3em" style="text-anchor: end; visibility: hidden; font-family: Roboto, sans-serif; font-size: 12px; font-weight: 200;" fill="rgb(33, 33, 33)" stroke="none" stroke-width="1px">-0.05</text><text x="0" y="161.33333333333331" dx="0em" dy="0.3em" style="text-anchor: end; visibility: inherit; font-family: Roboto, sans-serif; font-size: 12px; font-weight: 200;" fill="rgb(33, 33, 33)" stroke="none" stroke-width="1px">-0.045</text><text x="0" y="146.66666666666666" dx="0em" dy="0.3em" style="text-anchor: end; visibility: hidden; font-family: Roboto, sans-serif; font-size: 12px; font-weight: 200;" fill="rgb(33, 33, 33)" stroke="none" stroke-width="1px">-0.04</text><text x="0" y="132" dx="0em" dy="0.3em" style="text-anchor: end; visibility: inherit; font-family: Roboto, sans-serif; font-size: 12px; font-weight: 200;" fill="rgb(33, 33, 33)" stroke="none" stroke-width="1px">-0.035</text><text x="0" y="117.33333333333333" dx="0em" dy="0.3em" style="text-anchor: end; visibility: hidden; font-family: Roboto, sans-serif; font-size: 12px; font-weight: 200;" fill="rgb(33, 33, 33)" stroke="none" stroke-width="1px">-0.03</text><text x="0" y="102.66666666666667" dx="0em" dy="0.3em" style="text-anchor: end; visibility: inherit; font-family: Roboto, sans-serif; font-size: 12px; font-weight: 200;" fill="rgb(33, 33, 33)" stroke="none" stroke-width="1px">-0.025</text><text x="0" y="88" dx="0em" dy="0.3em" style="text-anchor: end; visibility: hidden; font-family: Roboto, sans-serif; font-size: 12px; font-weight: 200;" fill="rgb(33, 33, 33)" stroke="none" stroke-width="1px">-0.02</text><text x="0" y="73.33333333333333" dx="0em" dy="0.3em" style="text-anchor: end; visibility: inherit; font-family: Roboto, sans-serif; font-size: 12px; font-weight: 200;" fill="rgb(33, 33, 33)" stroke="none" stroke-width="1px">-0.015</text><text x="0" y="58.66666666666667" dx="0em" dy="0.3em" style="text-anchor: end; visibility: hidden; font-family: Roboto, sans-serif; font-size: 12px; font-weight: 200;" fill="rgb(33, 33, 33)" stroke="none" stroke-width="1px">-0.01</text><text x="0" y="44" dx="0em" dy="0.3em" style="text-anchor: end; visibility: inherit; font-family: Roboto, sans-serif; font-size: 12px; font-weight: 200;" fill="rgb(33, 33, 33)" stroke="none" stroke-width="1px">-5e-3</text><text x="0" y="29.333333333333346" dx="0em" dy="0.3em" style="text-anchor: end; visibility: hidden; font-family: Roboto, sans-serif; font-size: 12px; font-weight: 200;" fill="rgb(33, 33, 33)" stroke="none" stroke-width="1px">0</text><text x="0" y="14.666666666666673" dx="0em" dy="0.3em" style="text-anchor: end; visibility: inherit; font-family: Roboto, sans-serif; font-size: 12px; font-weight: 200;" fill="rgb(33, 33, 33)" stroke="none" stroke-width="1px">5e-3</text><text x="0" y="0" dx="0em" dy="0.3em" style="text-anchor: end; visibility: hidden; font-family: Roboto, sans-serif; font-size: 12px; font-weight: 200;" fill="rgb(33, 33, 33)" stroke="none" stroke-width="1px">0.01</text></g><line x1="74.78125" y1="0" x2="74.78125" y2="176" fill="rgb(0, 0, 0)" stroke="rgb(204, 204, 204)" stroke-width="1px"></line></g></g><g transform="translate(74, 0)" clip-path="url(#clip_0)"><clipPath id="clip_0"><rect width="255" height="176"></rect></clipPath><g><g><g><line x1="0" y1="0" x2="0" y2="176" fill="rgb(0, 0, 0)" stroke="rgb(66, 66, 66)" stroke-width="1px" opacity="0.25"></line><line x1="21.268229166666664" y1="0" x2="21.268229166666664" y2="176" fill="rgb(0, 0, 0)" stroke="rgb(66, 66, 66)" stroke-width="1px" opacity="0.25"></line><line x1="42.53645833333333" y1="0" x2="42.53645833333333" y2="176" fill="rgb(0, 0, 0)" stroke="rgb(66, 66, 66)" stroke-width="1px" opacity="0.25"></line><line x1="63.8046875" y1="0" x2="63.8046875" y2="176" fill="rgb(0, 0, 0)" stroke="rgb(66, 66, 66)" stroke-width="1px" opacity="0.25"></line><line x1="85.07291666666666" y1="0" x2="85.07291666666666" y2="176" fill="rgb(0, 0, 0)" stroke="rgb(66, 66, 66)" stroke-width="1px" opacity="0.25"></line><line x1="106.34114583333334" y1="0" x2="106.34114583333334" y2="176" fill="rgb(0, 0, 0)" stroke="rgb(66, 66, 66)" stroke-width="1px" opacity="0.25"></line><line x1="127.609375" y1="0" x2="127.609375" y2="176" fill="rgb(0, 0, 0)" stroke="rgb(66, 66, 66)" stroke-width="1px" opacity="0.25"></line><line x1="148.87760416666669" y1="0" x2="148.87760416666669" y2="176" fill="rgb(0, 0, 0)" stroke="rgb(66, 66, 66)" stroke-width="1px" opacity="0.25"></line><line x1="170.14583333333331" y1="0" x2="170.14583333333331" y2="176" fill="rgb(0, 0, 0)" stroke="rgb(66, 66, 66)" stroke-width="1px" opacity="0.25"></line><line x1="191.4140625" y1="0" x2="191.4140625" y2="176" fill="rgb(0, 0, 0)" stroke="rgb(66, 66, 66)" stroke-width="1px" opacity="0.25"></line><line x1="212.68229166666669" y1="0" x2="212.68229166666669" y2="176" fill="rgb(0, 0, 0)" stroke="rgb(66, 66, 66)" stroke-width="1px" opacity="0.25"></line><line x1="233.95052083333331" y1="0" x2="233.95052083333331" y2="176" fill="rgb(0, 0, 0)" stroke="rgb(66, 66, 66)" stroke-width="1px" opacity="0.25"></line><line x1="255.21875" y1="0" x2="255.21875" y2="176" fill="rgb(0, 0, 0)" stroke="rgb(66, 66, 66)" stroke-width="1px" opacity="0.25"></line></g><g><line x1="0" y1="176" x2="255.21875" y2="176" fill="rgb(0, 0, 0)" stroke="rgb(66, 66, 66)" stroke-width="1px" opacity="0.25"></line><line x1="0" y1="161.33333333333331" x2="255.21875" y2="161.33333333333331" fill="rgb(0, 0, 0)" stroke="rgb(66, 66, 66)" stroke-width="1px" opacity="0.25"></line><line x1="0" y1="146.66666666666666" x2="255.21875" y2="146.66666666666666" fill="rgb(0, 0, 0)" stroke="rgb(66, 66, 66)" stroke-width="1px" opacity="0.25"></line><line x1="0" y1="132" x2="255.21875" y2="132" fill="rgb(0, 0, 0)" stroke="rgb(66, 66, 66)" stroke-width="1px" opacity="0.25"></line><line x1="0" y1="117.33333333333333" x2="255.21875" y2="117.33333333333333" fill="rgb(0, 0, 0)" stroke="rgb(66, 66, 66)" stroke-width="1px" opacity="0.25"></line><line x1="0" y1="102.66666666666667" x2="255.21875" y2="102.66666666666667" fill="rgb(0, 0, 0)" stroke="rgb(66, 66, 66)" stroke-width="1px" opacity="0.25"></line><line x1="0" y1="88" x2="255.21875" y2="88" fill="rgb(0, 0, 0)" stroke="rgb(66, 66, 66)" stroke-width="1px" opacity="0.25"></line><line x1="0" y1="73.33333333333333" x2="255.21875" y2="73.33333333333333" fill="rgb(0, 0, 0)" stroke="rgb(66, 66, 66)" stroke-width="1px" opacity="0.25"></line><line x1="0" y1="58.66666666666667" x2="255.21875" y2="58.66666666666667" fill="rgb(0, 0, 0)" stroke="rgb(66, 66, 66)" stroke-width="1px" opacity="0.25"></line><line x1="0" y1="44" x2="255.21875" y2="44" fill="rgb(0, 0, 0)" stroke="rgb(66, 66, 66)" stroke-width="1px" opacity="0.25"></line><line x1="0" y1="29.333333333333346" x2="255.21875" y2="29.333333333333346" fill="rgb(0, 0, 0)" stroke="rgb(66, 66, 66)" stroke-width="1px" opacity="0.25"></line><line x1="0" y1="14.666666666666673" x2="255.21875" y2="14.666666666666673" fill="rgb(0, 0, 0)" stroke="rgb(66, 66, 66)" stroke-width="1px" opacity="0.25"></line><line x1="0" y1="0" x2="255.21875" y2="0" fill="rgb(0, 0, 0)" stroke="rgb(66, 66, 66)" stroke-width="1px" opacity="0.25"></line></g></g></g><g><g><line x1="0" y1="29.333333333333346" x2="255.21875" y2="29.333333333333346" fill="rgb(0, 0, 0)" stroke="rgb(153, 153, 153)" stroke-width="1.5px"></line></g></g><g><g><line x1="21.268229166666664" y1="0" x2="21.268229166666664" y2="176" fill="rgb(0, 0, 0)" stroke="rgb(153, 153, 153)" stroke-width="1.5px"></line></g></g><g><g><g><g><g><path stroke="rgb(204, 51, 17)" stroke-width="2px" d="M27.366255833333334,189.81298954596502L28.2374025,114.29688693324967L29.10854916666667,97.97357973762675L29.979695833333334,82.19866738838154L30.8508425,88.13186847891073L31.721989166666667,80.05926219939333L32.593135833333335,114.46059133573215L33.464282499999996,74.5943425176684L34.33542916666667,64.05563934788701L35.20657583333333,71.0258275055806L36.0777225,52.32872246581167L36.94886916666667,57.16879085191238L37.82001583333333,53.2586906460495L38.691162500000004,103.5549855432078L39.562309166666665,77.69220319616436L40.43345583333333,74.4265582951773L41.3046025,52.35173333056112L42.17574916666667,59.77153224273648L43.04689583333333,36.952573074771536L43.918042500000006,8.879822559862088L44.78918916666667,40.39195196918132L45.660335833333335,59.561366852579376L46.5314825,48.77615727348645L47.402629166666664,34.47672111390073L48.27377583333333,9.609713593365278L49.1449225,26.558281963438894L50.01606916666667,18.700248576697902L50.88721583333333,14.404661393769914L51.758362500000004,23.22467424332396L52.629509166666665,28.993355503729077L53.50065583333333,9.490526621673293L54.3718025,46.43069460506844L55.24294916666667,45.830699145543605L56.11409583333333,40.181453039494265L56.9852425,35.16127816448126L57.856389166666666,14.12957167970028L58.72753583333333,-1.2868640844022288L59.5986825,59.04441057948428L60.46982916666666,91.81926046140823L61.34097583333333,76.90433187189761L62.2121225,66.41153221430692L63.08326916666667,55.53677508172205L63.954415833333336,54.78510761023627L64.8255625,28.036011741905163L65.69670916666666,38.78403391029609L66.56785583333333,44.341994402342365L67.43900249999999,36.64638820837584L68.31014916666668,24.00433838893031L69.18129583333334,23.98332701342733L70.0524425,13.831272464295967L70.92358916666666,4.415651568550169L71.79473583333333,41.91313337214005L72.6658825,22.808059324385425L73.53702916666667,41.47839707706166L74.40817583333333,48.40326859498319L75.2793225,32.209057795669146L76.15046916666667,45.55656540056013L77.02161583333333,55.072299271781965L77.8927625,45.08457140820801L78.76390916666666,45.3583891234651L79.63505583333334,54.14397365501651L80.5062025,44.45627507458803L81.37734916666666,74.00680653785076L82.24849583333332,54.202400743173L83.11964250000001,29.62180408192065L83.99078916666667,78.84581273606851L84.86193583333333,75.70939936128119L85.7330825,74.36121417216575L86.60422916666667,58.34560587286224L87.47537583333333,35.4856710927443L88.3465225,26.92412986537356L89.21766916666667,25.071762491348608L90.08881583333333,25.320588059673636L90.9599625,24.15070903149243L91.83110916666666,70.7997499854187L92.70225583333333,121.16530935073813L93.5734025,106.16896337730637L94.44454916666668,88.0840786127028L95.31569583333334,100.35329792267743L96.1868425,68.04202716966466L97.05798916666666,104.61920896422862L97.92913583333333,101.22444595844743L98.80028250000001,69.55686115692774L99.67142916666667,60.665767972493484L100.54257583333333,50.18554767210739L101.41372249999999,54.46402003907834L102.28486916666667,82.47927177673782L103.15601583333334,56.226133809841926L104.0271625,53.48416464310323L104.89830916666666,53.92294282186886L105.76945583333334,39.41475723267909L106.6406025,32.29900507478703L107.51174916666666,24.109556589616083L108.38289583333334,33.75009984021945L109.2540425,37.41801957833109L110.12518916666667,42.08803703117772L110.99633583333333,42.430917166044736L111.8674825,36.3181259700877L112.73862916666666,48.20858930761948L113.60977583333334,28.901560242267465L114.4809225,15.81138873614392L115.35206916666667,26.18364641180151L116.22321583333333,8.556289433104876L117.0943625,16.34535160084352L117.96550916666666,17.752847932297698L118.83665583333334,39.32092396568382L119.7078025,33.59051231335276L120.57894916666666,42.105663584415154L121.45009583333334,29.226245953685464L122.3212425,36.39478822393005L123.19238916666666,21.944097283538884L124.06353583333333,22.581037904653986L124.93468250000001,64.55274649411483L125.80582916666667,46.66793992787624L126.67697583333333,25.768652526557585L127.54812249999999,20.126725728126456L128.41926916666668,32.21154954124218L129.29041583333333,35.96469167921181L130.1615625,50.857374855199865L131.03270916666668,47.250815915059704L131.90385583333332,33.04408999899525L132.7750025,39.810348788616054L133.64614916666665,27.887894022296067L134.51729583333335,44.75210741032971L135.3884425,30.26822370610521L136.25958916666667,-2.004412573644185L137.13073583333335,25.741549637674076L138.0018825,33.03030863211083L138.87302916666667,30.059198983344608L139.74417583333332,53.71698531776656L140.6153225,57.970335407674256L141.48646916666667,56.91374893801606L142.35761583333334,50.11447188645917L143.22876250000002,28.588517177444604L144.09990916666666,24.617996305232385L144.97105583333334,14.589401243133436L145.84220249999998,6.953692991338038L146.71334916666666,8.207814096690335L147.58449583333334,10.270882480908107L148.45564249999998,11.882552270234827L149.32678916666669,11.63393877196781L150.19793583333333,15.289256619901295L151.0690825,12.513308130199219L151.94022916666668,14.59558328538806L152.81137583333333,52.92231161127291L153.6825225,71.67115447558844L154.55366916666665,53.56094818793464L155.42481583333333,100.35383736381567L156.2959625,86.70704640521389L157.16710916666668,69.09740113163261L158.03825583333335,51.94269885288239L158.9094025,38.63539837996103L159.78054916666667,41.47297484000487L160.65169583333332,41.32285288763024L161.5228425,57.10314879293426L162.39398916666667,42.20160872325412L163.26513583333332,35.197241291414386L164.1362825,37.06361077726522L165.00742916666667,23.008049725496605L165.87857583333334,11.299783968331731L166.74972250000002,6.5421708961738965L167.62086916666667,20.174966306909752L168.49201583333334,28.640201185996247L169.3631625,30.24289998999531L170.23430916666666,36.8750901277341L171.1054558333333,40.4204462362614L171.9766025,27.6926168080143L172.8477491666667,32.230579714535L173.71889583333333,62.27501489752032L174.5900425,67.87408710738123L175.46118916666666,50.32854993275862L176.33233583333333,42.7211481867158L177.2034825,34.629067134137365L178.07462916666665,31.233774001166463L178.94577583333333,47.50738033538974L179.8169225,59.62897916368196L180.68806916666668,44.170591575294026L181.55921583333333,51.84572862529117L182.4303625,61.71514275238927L183.30150916666668,47.382704525586064L184.17265583333332,31.13718552354738L185.0438025,14.946019353253245L185.91494916666664,13.682540938327286L186.78609583333332,16.397808442554606L187.65724250000002,22.560505031570834L188.52838916666667,22.227726717208853L189.39953583333335,33.46116797889174L190.2706825,46.32899702051225L191.14182916666667,25.883764929328017L192.01297583333334,31.496368381432898L192.8841225,3.0650647320661086L193.75526916666666,11.762341334719249L194.6264158333333,26.536290346164783L195.49756250000002,23.32766253565505L196.36870916666666,15.19460345992303L197.23985583333334,19.877234444651144L198.1110025,37.849563431123784L198.98214916666666,46.1065404681642L199.85329583333333,47.333591727511845L200.72444249999998,26.407323472557522L201.59558916666666,15.79178162387494L202.46673583333336,26.512277068524483L203.3378825,28.388238801655525L204.20902916666668,36.10531148956062L205.08017583333333,27.99194346852603L205.9513225,32.96711006256443L206.82246916666665,26.31819607312979L207.69361583333333,50.954954656931776L208.5647625,39.17096402623635L209.43590916666665,34.060059157282396L210.30705583333335,39.92214631474234L211.1782025,26.35463093977899L212.04934916666667,34.53914275325376L212.92049583333335,52.99061573281112L213.7916425,49.99932819049094L214.66278916666667,45.175985797885275L215.53393583333332,37.33560099878501L216.4050825,31.0880029619451L217.27622916666667,44.43709207499319L218.14737583333334,47.929066897974174L219.01852250000002,66.2711164881065L219.88966916666666,67.54908150012939L220.76081583333334,46.55753863598295L221.6319625,52.045068463158934L222.50310916666666,41.29176969953716L223.37425583333334,32.733215717246175L224.24540249999998,25.716648807785937L225.11654916666666,39.18613985220314L225.98769583333333,50.522768432138704L226.8588425,38.700006752752266L227.72998916666668,28.89804057650349L228.60113583333333,34.90590615891961L229.4722825,25.323454982977395L230.34342916666665,28.619340603217267L231.21457583333333,15.10210751573133L232.08572249999997,24.29778561341694L232.95686916666668,31.10085678705335L233.82801583333335,37.51684797769047" style="fill: none;" fill="none"></path></g></g></g></g><g opacity="0.2"><g><g><g><path stroke="rgb(204, 51, 17)" stroke-width="2px" d="M24.752815833333333,226.89333375295L25.6239625,152.94471995035806L26.495109166666666,217.07288241386414L27.366255833333334,117.77309294541676L28.2374025,4.193684369325638L29.10854916666667,73.8998722632726L29.979695833333334,58.77476102113724L30.8508425,96.977856417497L31.721989166666667,67.99428354700406L32.593135833333335,165.95025873184204L33.464282499999996,14.873071422179553L34.33542916666667,48.25997244318326L35.20657583333333,81.47619382540385L36.0777225,24.290976894398543L36.94886916666667,64.42766453822453L37.82001583333333,47.39413600166638L38.691162500000004,178.99483060836792L39.562309166666665,38.89944805204868L40.43345583333333,69.52819840113322L41.3046025,19.239931712547943L42.17574916666667,70.90114271640778L43.04689583333333,2.724296510219574L43.918042500000006,-33.22918349504471L44.78918916666667,87.6600654522578L45.660335833333335,88.31545974810919L46.5314825,32.59835283954938L47.402629166666664,13.02757477760315L48.27377583333333,-27.690789441267636L49.1449225,51.9811311463515L50.01606916666667,6.913199434677766L50.88721583333333,7.961280927062035L51.758362500000004,36.454693138599396L52.629509166666665,37.64637724558513L53.50065583333333,-19.763716399669647L54.3718025,101.84094623724619L55.24294916666667,44.93070595959823L56.11409583333333,31.70758389929931L56.9852425,27.63101586202781L57.856389166666666,-17.41798802216845L58.72753583333333,-24.41151771942773L59.5986825,149.54132254918414L60.46982916666666,140.98153527577716L61.34097583333333,54.53193898995717L62.2121225,50.672332728902504L63.08326916666667,39.22463938345511L63.954415833333336,53.65760640303294L64.8255625,-12.087632060050964L65.69670916666666,54.90606716275215L66.56785583333333,52.67893514037132L67.43900249999999,25.10297891745965L68.31014916666668,5.041263659795138L69.18129583333334,23.9518099501729L70.0524425,-1.3968093593915434L70.92358916666666,-9.707779775063184L71.79473583333333,98.1593560775121L72.6658825,-5.849551747242597L73.53702916666667,69.48390370607376L74.40817583333333,58.79057587186496L75.2793225,7.917741596698761L76.15046916666667,65.5778268078963L77.02161583333333,69.34590007861455L77.8927625,30.102979612847182L78.76390916666666,45.76911569635074L79.63505583333334,67.32235045234363L80.5062025,29.924727203945324L81.37734916666666,118.33260373274484L82.24849583333332,24.495792051156375L83.11964250000001,-7.249090909957886L83.99078916666667,152.68182571729022L84.86193583333333,71.00477929910024L85.7330825,72.33893638849258L86.60422916666667,34.32219342390697L87.47537583333333,1.1957689225673676L88.3465225,14.08181802431743L89.21766916666667,22.293211430311203L90.08881583333333,25.693826412161204L90.9599625,22.39589048922062L91.83110916666666,140.77331141630808L92.70225583333333,196.71364839871723L93.5734025,83.67444441715877L94.44454916666668,60.956751465797424L95.31569583333334,118.75712688763936L96.1868425,19.57512104014556L97.05798916666666,159.48498165607452L97.92913583333333,96.1323014497757L98.80028250000001,22.05548395464818L99.67142916666667,47.3291281958421L100.54257583333333,34.46521722152829L101.41372249999999,60.88172858953476L102.28486916666667,124.50214938322702L103.15601583333334,16.846426859498024L104.0271625,49.371210892995194L104.89830916666666,54.58111009001732L105.76945583333334,17.65247884889445L106.6406025,21.625376837948963L107.51174916666666,11.825383861859653L108.38289583333334,48.210914716124535L109.2540425,42.91989918549855L110.12518916666667,49.093063210447625L110.99633583333333,42.94523736834526L111.8674825,27.148939176152155L112.73862916666666,66.04428431391716L113.60977583333334,-0.05898335576057434L114.4809225,-3.8238685230413942L115.35206916666667,41.74203292528789L116.22321583333333,-17.884746034940058L117.0943625,28.028944852451488L117.96550916666666,19.864092429478976L118.83665583333334,71.67303801576297L119.7078025,24.994894834856197L120.57894916666666,54.87839049100876L121.45009583333334,9.907119507590936L122.3212425,47.14760162929694L123.19238916666666,0.26806087295214986L124.06353583333333,23.5364488363266L124.93468250000001,127.51030937830606L125.80582916666667,19.84073007851839L126.67697583333333,-5.58027857542038L127.54812249999999,11.663835530479762L128.41926916666668,50.338785260915756L129.29041583333333,41.59440488616626L130.1615625,73.19639961918195L131.03270916666668,41.840977504849434L131.90385583333332,11.7340011248986L132.7750025,49.95973697304726L133.64614916666665,10.004211872816086L134.51729583333335,70.04842749238014L135.3884425,8.542398149768518L136.25958916666667,-50.413366993268305L137.13073583333335,67.36049295465152L138.0018825,43.963447123765945L138.87302916666667,25.602534510195255L139.74417583333332,89.2036648193995L140.6153225,64.35036054253578L141.48646916666667,55.32886923352878L142.35761583333334,39.91555630912383L143.22876250000002,-3.700414886077258L144.09990916666666,18.662214996914074L144.97105583333334,-0.4534913500150175L145.84220249999998,-4.499869386355069L146.71334916666666,10.08899575471878L147.58449583333334,13.365485057234764L148.45564249999998,14.300056954224917L149.32678916666669,11.261018524567293L150.19793583333333,20.77223339180152L151.0690825,8.349385395646095L151.94022916666668,17.71899601817131L152.81137583333333,110.41240410010019L153.6825225,99.79441877206166L154.55366916666665,26.39563875645399L155.42481583333333,170.5431711276372L156.2959625,66.23685996731122L157.16710916666668,42.68293322126071L158.03825583333335,26.210645434757087L158.9094025,18.674447670578957L159.78054916666667,45.72933953007062L160.65169583333332,41.0976699590683L161.5228425,80.77359265089035L162.39398916666667,19.849298618733883L163.26513583333332,24.69069014365475L164.1362825,39.86316500604153L165.00742916666667,1.9247081478436918L165.87857583333334,-6.262614667415619L166.74972250000002,-0.5942487120628357L167.62086916666667,40.62415942301352L168.49201583333334,41.33805350462596L169.3631625,32.6469481959939L170.23430916666666,46.823375334342316L171.1054558333333,45.73848039905231L171.9766025,8.600872665643692L172.8477491666667,39.037524074316025L173.71889583333333,107.34166767199834L174.5900425,76.27269542217255L175.46118916666666,24.01024417082469L176.33233583333333,31.310045567651585L177.2034825,22.490945555269718L178.07462916666665,26.14083430171013L178.94577583333333,71.9177898367246L179.8169225,77.8113774061203L180.68806916666668,20.98301019271216L181.55921583333333,63.358434200286865L182.4303625,76.51926394303639L183.30150916666668,25.884047185381267L184.17265583333332,6.768907020489381L185.0438025,-9.34072990218797L185.91494916666664,11.787323315938327L186.78609583333332,20.470709698895618L187.65724250000002,31.804549915095166L188.52838916666667,21.72855924566588L189.39953583333335,50.31132987141609L190.2706825,65.63074058294296L191.14182916666667,-4.784083207448337L192.01297583333334,39.915273559590176L192.8841225,-39.58189074198404L193.75526916666666,24.80825623869896L194.6264158333333,48.69721386333306L195.49756250000002,18.5147208198905L196.36870916666666,2.9950148463249207L197.23985583333334,26.901180921743318L198.1110025,64.80805691083272L198.98214916666666,58.49200602372487L199.85329583333333,49.17416861653328L200.72444249999998,-4.982078909873962L201.59558916666666,-0.13153114914894104L202.46673583333336,42.59302023549874L203.3378825,31.202181401352092L204.20902916666668,47.68092052141826L205.08017583333333,15.821891436974214L205.9513225,40.42985995362203L206.82246916666665,16.344825088977814L207.69361583333333,87.91009253263474L208.5647625,21.494978080193206L209.43590916666665,26.393701853851482L210.30705583333335,48.715277050932244L211.1782025,6.003357877333972L212.04934916666667,46.81591047346592L212.92049583333335,80.66782520214717L213.7916425,45.51239687701066L214.66278916666667,37.940972208976746L215.53393583333332,25.57502380013466L216.4050825,21.716605906685206L217.27622916666667,64.46072574456532L218.14737583333334,53.16702913244565L219.01852250000002,93.784190873305L219.88966916666666,69.46602901816368L220.76081583333334,15.07022433976333L221.6319625,60.27636320392291L222.50310916666666,25.161821554104492L223.37425583333334,19.8953847438097L224.24540249999998,15.191798443595575L225.11654916666666,59.390376418828964L225.98769583333333,67.52771130204201L226.8588425,20.96586423367262L227.72998916666668,14.195091312130305L228.60113583333333,43.91770453254382L229.4722825,10.94977821906409L230.34342916666665,33.56316903357704L231.21457583333333,-5.173742115497589L232.08572249999997,38.09130275994539L232.95686916666668,41.30546354750793L233.82801583333335,47.140834763646126" style="fill: none;" fill="none"></path></g></g></g></g></g></g><g transform="translate(74, 176)" clip-path="url(#clip_1)"><clipPath id="clip_1"><rect width="255" height="24"></rect></clipPath><g><g><line x1="0" y1="0" x2="0" y2="5" style="visibility: inherit;" fill="rgb(0, 0, 0)" stroke="rgb(204, 204, 204)" stroke-width="1px"></line><line x1="21.268229166666664" y1="0" x2="21.268229166666664" y2="5" style="visibility: inherit;" fill="rgb(0, 0, 0)" stroke="rgb(204, 204, 204)" stroke-width="1px"></line><line x1="42.53645833333333" y1="0" x2="42.53645833333333" y2="5" style="visibility: inherit;" fill="rgb(0, 0, 0)" stroke="rgb(204, 204, 204)" stroke-width="1px"></line><line x1="63.8046875" y1="0" x2="63.8046875" y2="5" style="visibility: inherit;" fill="rgb(0, 0, 0)" stroke="rgb(204, 204, 204)" stroke-width="1px"></line><line x1="85.07291666666666" y1="0" x2="85.07291666666666" y2="5" style="visibility: inherit;" fill="rgb(0, 0, 0)" stroke="rgb(204, 204, 204)" stroke-width="1px"></line><line x1="106.34114583333334" y1="0" x2="106.34114583333334" y2="5" style="visibility: inherit;" fill="rgb(0, 0, 0)" stroke="rgb(204, 204, 204)" stroke-width="1px"></line><line x1="127.609375" y1="0" x2="127.609375" y2="5" style="visibility: inherit;" fill="rgb(0, 0, 0)" stroke="rgb(204, 204, 204)" stroke-width="1px"></line><line x1="148.87760416666669" y1="0" x2="148.87760416666669" y2="5" style="visibility: inherit;" fill="rgb(0, 0, 0)" stroke="rgb(204, 204, 204)" stroke-width="1px"></line><line x1="170.14583333333331" y1="0" x2="170.14583333333331" y2="5" style="visibility: inherit;" fill="rgb(0, 0, 0)" stroke="rgb(204, 204, 204)" stroke-width="1px"></line><line x1="191.4140625" y1="0" x2="191.4140625" y2="5" style="visibility: inherit;" fill="rgb(0, 0, 0)" stroke="rgb(204, 204, 204)" stroke-width="1px"></line><line x1="212.68229166666669" y1="0" x2="212.68229166666669" y2="5" style="visibility: inherit;" fill="rgb(0, 0, 0)" stroke="rgb(204, 204, 204)" stroke-width="1px"></line><line x1="233.95052083333331" y1="0" x2="233.95052083333331" y2="5" style="visibility: inherit;" fill="rgb(0, 0, 0)" stroke="rgb(204, 204, 204)" stroke-width="1px"></line><line x1="255.21875" y1="0" x2="255.21875" y2="5" style="visibility: inherit;" fill="rgb(0, 0, 0)" stroke="rgb(204, 204, 204)" stroke-width="1px"></line></g><g transform="translate(0, 8)"><text x="0" y="0" dx="0em" dy="0.95em" style="text-anchor: middle; visibility: hidden; font-family: Roboto, sans-serif; font-size: 12px; font-weight: 200;" fill="rgb(33, 33, 33)" stroke="none" stroke-width="1px">-100k</text><text x="21.268229166666664" y="0" dx="0em" dy="0.95em" style="text-anchor: middle; visibility: inherit; font-family: Roboto, sans-serif; font-size: 12px; font-weight: 200;" fill="rgb(33, 33, 33)" stroke="none" stroke-width="1px">0</text><text x="42.53645833333333" y="0" dx="0em" dy="0.95em" style="text-anchor: middle; visibility: hidden; font-family: Roboto, sans-serif; font-size: 12px; font-weight: 200;" fill="rgb(33, 33, 33)" stroke="none" stroke-width="1px">100k</text><text x="63.8046875" y="0" dx="0em" dy="0.95em" style="text-anchor: middle; visibility: inherit; font-family: Roboto, sans-serif; font-size: 12px; font-weight: 200;" fill="rgb(33, 33, 33)" stroke="none" stroke-width="1px">200k</text><text x="85.07291666666666" y="0" dx="0em" dy="0.95em" style="text-anchor: middle; visibility: hidden; font-family: Roboto, sans-serif; font-size: 12px; font-weight: 200;" fill="rgb(33, 33, 33)" stroke="none" stroke-width="1px">300k</text><text x="106.34114583333334" y="0" dx="0em" dy="0.95em" style="text-anchor: middle; visibility: inherit; font-family: Roboto, sans-serif; font-size: 12px; font-weight: 200;" fill="rgb(33, 33, 33)" stroke="none" stroke-width="1px">400k</text><text x="127.609375" y="0" dx="0em" dy="0.95em" style="text-anchor: middle; visibility: hidden; font-family: Roboto, sans-serif; font-size: 12px; font-weight: 200;" fill="rgb(33, 33, 33)" stroke="none" stroke-width="1px">500k</text><text x="148.87760416666669" y="0" dx="0em" dy="0.95em" style="text-anchor: middle; visibility: inherit; font-family: Roboto, sans-serif; font-size: 12px; font-weight: 200;" fill="rgb(33, 33, 33)" stroke="none" stroke-width="1px">600k</text><text x="170.14583333333331" y="0" dx="0em" dy="0.95em" style="text-anchor: middle; visibility: hidden; font-family: Roboto, sans-serif; font-size: 12px; font-weight: 200;" fill="rgb(33, 33, 33)" stroke="none" stroke-width="1px">700k</text><text x="191.4140625" y="0" dx="0em" dy="0.95em" style="text-anchor: middle; visibility: inherit; font-family: Roboto, sans-serif; font-size: 12px; font-weight: 200;" fill="rgb(33, 33, 33)" stroke="none" stroke-width="1px">800k</text><text x="212.68229166666669" y="0" dx="0em" dy="0.95em" style="text-anchor: middle; visibility: hidden; font-family: Roboto, sans-serif; font-size: 12px; font-weight: 200;" fill="rgb(33, 33, 33)" stroke="none" stroke-width="1px">900k</text><text x="233.95052083333331" y="0" dx="0em" dy="0.95em" style="text-anchor: middle; visibility: inherit; font-family: Roboto, sans-serif; font-size: 12px; font-weight: 200;" fill="rgb(33, 33, 33)" stroke="none" stroke-width="1px">1M</text><text x="255.21875" y="0" dx="0em" dy="0.95em" style="text-anchor: middle; visibility: hidden; font-family: Roboto, sans-serif; font-size: 12px; font-weight: 200;" fill="rgb(33, 33, 33)" stroke="none" stroke-width="1px">1.1M</text></g><line x1="0" y1="0" x2="255.21875" y2="0" fill="rgb(0, 0, 0)" stroke="rgb(204, 204, 204)" stroke-width="1px"></line></g></g></g></g></svg>