<svg viewBox="0 0 330 200" xmlns="http://www.w3.org/2000/svg"><g><g><g><g><g><line x1="63.984375" y1="176" x2="58.984375" y2="176" style="visibility: inherit;" fill="rgb(0, 0, 0)" stroke="rgb(204, 204, 204)" stroke-width="1px"></line><line x1="63.984375" y1="162.46153846153848" x2="58.984375" y2="162.46153846153848" style="visibility: inherit;" fill="rgb(0, 0, 0)" stroke="rgb(204, 204, 204)" stroke-width="1px"></line><line x1="63.984375" y1="148.92307692307693" x2="58.984375" y2="148.92307692307693" style="visibility: inherit;" fill="rgb(0, 0, 0)" stroke="rgb(204, 204, 204)" stroke-width="1px"></line><line x1="63.984375" y1="135.3846153846154" x2="58.984375" y2="135.3846153846154" style="visibility: inherit;" fill="rgb(0, 0, 0)" stroke="rgb(204, 204, 204)" stroke-width="1px"></line><line x1="63.984375" y1="121.84615384615384" x2="58.984375" y2="121.84615384615384" style="visibility: inherit;" fill="rgb(0, 0, 0)" stroke="rgb(204, 204, 204)" stroke-width="1px"></line><line x1="63.984375" y1="108.30769230769232" x2="58.984375" y2="108.30769230769232" style="visibility: inherit;" fill="rgb(0, 0, 0)" stroke="rgb(204, 204, 204)" stroke-width="1px"></line><line x1="63.984375" y1="94.76923076923079" x2="58.984375" y2="94.76923076923079" style="visibility: inherit;" fill="rgb(0, 0, 0)" stroke="rgb(204, 204, 204)" stroke-width="1px"></line><line x1="63.984375" y1="81.23076923076924" x2="58.984375" y2="81.23076923076924" style="visibility: inherit;" fill="rgb(0, 0, 0)" stroke="rgb(204, 204, 204)" stroke-width="1px"></line><line x1="63.984375" y1="67.69230769230768" x2="58.984375" y2="67.69230769230768" style="visibility: inherit;" fill="rgb(0, 0, 0)" stroke="rgb(204, 204, 204)" stroke-width="1px"></line><line x1="63.984375" y1="54.153846153846175" x2="58.984375" y2="54.153846153846175" style="visibility: inherit;" fill="rgb(0, 0, 0)" stroke="rgb(204, 204, 204)" stroke-width="1px"></line><line x1="63.984375" y1="40.61538461538463" x2="58.984375" y2="40.61538461538463" style="visibility: inherit;" fill="rgb(0, 0, 0)" stroke="rgb(204, 204, 204)" stroke-width="1px"></line><line x1="63.984375" y1="27.07692307692308" x2="58.984375" y2="27.07692307692308" style="visibility: inherit;" fill="rgb(0, 0, 0)" stroke="rgb(204, 204, 204)" stroke-width="1px"></line><line x1="63.984375" y1="13.538461538461549" x2="58.984375" y2="13.538461538461549" style="visibility: inherit;" fill="rgb(0, 0, 0)" stroke="rgb(204, 204, 204)" stroke-width="1px"></line><line x1="63.984375" y1="0" x2="58.984375" y2="0" style="visibility: inherit;" fill="rgb(0, 0, 0)" stroke="rgb(204, 204, 204)" stroke-width="1px"></line></g><g transform="translate(53.984375, 0)"><text x="0" y="176" dx="0em" dy="0.3em" style="text-anchor: end; visibility: hidden; font-family: Roboto, sans-serif; font-size: 12px; font-weight: 200;" fill="rgb(33, 33, 33)" stroke="none" stroke-width="1px">-0.15</text><text x="0" y="162.46153846153848" dx="0em" dy="0.3em" style="text-anchor: end; visibility: inherit; font-family: Roboto, sans-serif; font-size: 12px; font-weight: 200;" fill="rgb(33, 33, 33)" stroke="none" stroke-width="1px">-0.1</text><text x="0" y="148.92307692307693" dx="0em" dy="0.3em" style="text-anchor: end; visibility: hidden; font-family: Roboto, sans-serif; font-size: 12px; font-weight: 200;" fill="rgb(33, 33, 33)" stroke="none" stroke-width="1px">-0.05</text><text x="0" y="135.3846153846154" dx="0em" dy="0.3em" style="text-anchor: end; visibility: inherit; font-family: Roboto, sans-serif; font-size: 12px; font-weight: 200;" fill="rgb(33, 33, 33)" stroke="none" stroke-width="1px">0</text><text x="0" y="121.84615384615384" dx="0em" dy="0.3em" style="text-anchor: end; visibility: hidden; font-family: Roboto, sans-serif; font-size: 12px; font-weight: 200;" fill="rgb(33, 33, 33)" stroke="none" stroke-width="1px">0.05</text><text x="0" y="108.30769230769232" dx="0em" dy="0.3em" style="text-anchor: end; visibility: inherit; font-family: Roboto, sans-serif; font-size: 12px; font-weight: 200;" fill="rgb(33, 33, 33)" stroke="none" stroke-width="1px">0.1</text><text x="0" y="94.76923076923079" dx="0em" dy="0.3em" style="text-anchor: end; visibility: hidden; font-family: Roboto, sans-serif; font-size: 12px; font-weight: 200;" fill="rgb(33, 33, 33)" stroke="none" stroke-width="1px">0.15</text><text x="0" y="81.23076923076924" dx="0em" dy="0.3em" style="text-anchor: end; visibility: inherit; font-family: Roboto, sans-serif; font-size: 12px; font-weight: 200;" fill="rgb(33, 33, 33)" stroke="none" stroke-width="1px">0.2</text><text x="0" y="67.69230769230768" dx="0em" dy="0.3em" style="text-anchor: end; visibility: hidden; font-family: Roboto, sans-serif; font-size: 12px; font-weight: 200;" fill="rgb(33, 33, 33)" stroke="none" stroke-width="1px">0.25</text><text x="0" y="54.153846153846175" dx="0em" dy="0.3em" style="text-anchor: end; visibility: inherit; font-family: Roboto, sans-serif; font-size: 12px; font-weight: 200;" fill="rgb(33, 33, 33)" stroke="none" stroke-width="1px">0.3</text><text x="0" y="40.61538461538463" dx="0em" dy="0.3em" style="text-anchor: end; visibility: hidden; font-family: Roboto, sans-serif; font-size: 12px; font-weight: 200;" fill="rgb(33, 33, 33)" stroke="none" stroke-width="1px">0.35</text><text x="0" y="27.07692307692308" dx="0em" dy="0.3em" style="text-anchor: end; visibility: inherit; font-family: Roboto, sans-serif; font-size: 12px; font-weight: 200;" fill="rgb(33, 33, 33)" stroke="none" stroke-width="1px">0.4</text><text x="0" y="13.538461538461549" dx="0em" dy="0.3em" style="text-anchor: end; visibility: hidden; font-family: Roboto, sans-serif; font-size: 12px; font-weight: 200;" fill="rgb(33, 33, 33)" stroke="none" stroke-width="1px">0.45</text><text x="0" y="0" dx="0em" dy="0.3em" style="text-anchor: end; visibility: hidden; font-family: Roboto, sans-serif; font-size: 12px; font-weight: 200;" fill="rgb(33, 33, 33)" stroke="none" stroke-width="1px">0.5</text></g><line x1="63.984375" y1="0" x2="63.984375" y2="176" fill="rgb(0, 0, 0)" stroke="rgb(204, 204, 204)" stroke-width="1px"></line></g></g><g transform="translate(63, 0)" clip-path="url(#clip_0)"><clipPath id="clip_0"><rect width="266" height="176"></rect></clipPath><g><g><g><line x1="0" y1="0" x2="0" y2="176" fill="rgb(0, 0, 0)" stroke="rgb(66, 66, 66)" stroke-width="1px" opacity="0.25"></line><line x1="22.16796875" y1="0" x2="22.16796875" y2="176" fill="rgb(0, 0, 0)" stroke="rgb(66, 66, 66)" stroke-width="1px" opacity="0.25"></line><line x1="44.3359375" y1="0" x2="44.3359375" y2="176" fill="rgb(0, 0, 0)" stroke="rgb(66, 66, 66)" stroke-width="1px" opacity="0.25"></line><line x1="66.50390625" y1="0" x2="66.50390625" y2="176" fill="rgb(0, 0, 0)" stroke="rgb(66, 66, 66)" stroke-width="1px" opacity="0.25"></line><line x1="88.671875" y1="0" x2="88.671875" y2="176" fill="rgb(0, 0, 0)" stroke="rgb(66, 66, 66)" stroke-width="1px" opacity="0.25"></line><line x1="110.83984375" y1="0" x2="110.83984375" y2="176" fill="rgb(0, 0, 0)" stroke="rgb(66, 66, 66)" stroke-width="1px" opacity="0.25"></line><line x1="133.0078125" y1="0" x2="133.0078125" y2="176" fill="rgb(0, 0, 0)" stroke="rgb(66, 66, 66)" stroke-width="1px" opacity="0.25"></line><line x1="155.17578125" y1="0" x2="155.17578125" y2="176" fill="rgb(0, 0, 0)" stroke="rgb(66, 66, 66)" stroke-width="1px" opacity="0.25"></line><line x1="177.34375" y1="0" x2="177.34375" y2="176" fill="rgb(0, 0, 0)" stroke="rgb(66, 66, 66)" stroke-width="1px" opacity="0.25"></line><line x1="199.51171875" y1="0" x2="199.51171875" y2="176" fill="rgb(0, 0, 0)" stroke="rgb(66, 66, 66)" stroke-width="1px" opacity="0.25"></line><line x1="221.6796875" y1="0" x2="221.6796875" y2="176" fill="rgb(0, 0, 0)" stroke="rgb(66, 66, 66)" stroke-width="1px" opacity="0.25"></line><line x1="243.84765625" y1="0" x2="243.84765625" y2="176" fill="rgb(0, 0, 0)" stroke="rgb(66, 66, 66)" stroke-width="1px" opacity="0.25"></line><line x1="266.015625" y1="0" x2="266.015625" y2="176" fill="rgb(0, 0, 0)" stroke="rgb(66, 66, 66)" stroke-width="1px" opacity="0.25"></line></g><g><line x1="0" y1="176" x2="266.015625" y2="176" fill="rgb(0, 0, 0)" stroke="rgb(66, 66, 66)" stroke-width="1px" opacity="0.25"></line><line x1="0" y1="162.46153846153848" x2="266.015625" y2="162.46153846153848" fill="rgb(0, 0, 0)" stroke="rgb(66, 66, 66)" stroke-width="1px" opacity="0.25"></line><line x1="0" y1="148.92307692307693" x2="266.015625" y2="148.92307692307693" fill="rgb(0, 0, 0)" stroke="rgb(66, 66, 66)" stroke-width="1px" opacity="0.25"></line><line x1="0" y1="135.3846153846154" x2="266.015625" y2="135.3846153846154" fill="rgb(0, 0, 0)" stroke="rgb(66, 66, 66)" stroke-width="1px" opacity="0.25"></line><line x1="0" y1="121.84615384615384" x2="266.015625" y2="121.84615384615384" fill="rgb(0, 0, 0)" stroke="rgb(66, 66, 66)" stroke-width="1px" opacity="0.25"></line><line x1="0" y1="108.30769230769232" x2="266.015625" y2="108.30769230769232" fill="rgb(0, 0, 0)" stroke="rgb(66, 66, 66)" stroke-width="1px" opacity="0.25"></line><line x1="0" y1="94.76923076923079" x2="266.015625" y2="94.76923076923079" fill="rgb(0, 0, 0)" stroke="rgb(66, 66, 66)" stroke-width="1px" opacity="0.25"></line><line x1="0" y1="81.23076923076924" x2="266.015625" y2="81.23076923076924" fill="rgb(0, 0, 0)" stroke="rgb(66, 66, 66)" stroke-width="1px" opacity="0.25"></line><line x1="0" y1="67.69230769230768" x2="266.015625" y2="67.69230769230768" fill="rgb(0, 0, 0)" stroke="rgb(66, 66, 66)" stroke-width="1px" opacity="0.25"></line><line x1="0" y1="54.153846153846175" x2="266.015625" y2="54.153846153846175" fill="rgb(0, 0, 0)" stroke="rgb(66, 66, 66)" stroke-width="1px" opacity="0.25"></line><line x1="0" y1="40.61538461538463" x2="266.015625" y2="40.61538461538463" fill="rgb(0, 0, 0)" stroke="rgb(66, 66, 66)" stroke-width="1px" opacity="0.25"></line><line x1="0" y1="27.07692307692308" x2="266.015625" y2="27.07692307692308" fill="rgb(0, 0, 0)" stroke="rgb(66, 66, 66)" stroke-width="1px" opacity="0.25"></line><line x1="0" y1="13.538461538461549" x2="266.015625" y2="13.538461538461549" fill="rgb(0, 0, 0)" stroke="rgb(66, 66, 66)" stroke-width="1px" opacity="0.25"></line><line x1="0" y1="0" x2="266.015625" y2="0" fill="rgb(0, 0, 0)" stroke="rgb(66, 66, 66)" stroke-width="1px" opacity="0.25"></line></g></g></g><g><g><line x1="0" y1="135.3846153846154" x2="266.015625" y2="135.3846153846154" fill="rgb(0, 0, 0)" stroke="rgb(153, 153, 153)" stroke-width="1.5px"></line></g></g><g><g><line x1="22.16796875" y1="0" x2="22.16796875" y2="176" fill="rgb(0, 0, 0)" stroke="rgb(153, 153, 153)" stroke-width="1.5px"></line></g></g><g><g><g><g><g><path stroke="rgb(204, 51, 17)" stroke-width="2px" d="M28.523968749999998,194.84653752678759L29.43196875,127.28824664536425L30.33996875,136.52010560639437L31.24796875,80.35280263009092L32.15596875,22.538079536023794L33.06396875,-8.423195084666016L33.97196875,22.763128821217023L34.879968749999996,-6.0529906329181244L36.69596875,-24.099587246949753L37.60396875000001,1.9779039109252352L38.51196875,15.91042859217249L39.419968749999995,36.48489526579882L40.327968750000004,44.61786215692646L41.23596875,30.216868266343972L42.14396875,-9.84778815762521L43.05196875,22.14018659668786L43.95996875,21.581635744303455L44.867968749999996,26.180696886253422L45.775968750000004,38.24944730131706L46.68396875,33.238877753534695L47.59196875,-12.516106024326081L48.49996875,-0.9910495142220306L49.40796875,14.398852908954618L50.315968749999996,14.45422440201889L51.223968750000004,14.577916660708542L52.13196875,-0.0722315803643312L53.03996875,12.589357713003428L53.94796875,-26.328349330921924L54.85596875,-32.55576468644821L55.76396875,11.279098973307134L56.671968750000005,9.501507487171919L57.57996875,-10.67897543077473L59.39596875,-36.84441568252528L60.303968749999996,12.758224060306137L61.21196875,25.702719685376493L62.11996875,77.18107583682084L63.02796875,108.35506861042606L63.935968749999994,92.09713000425911L64.84396875,65.53892586627018L65.75196875,42.669772872952066L66.65996875,11.725797955626001L67.56796875,45.75866321250284L68.47596874999999,60.85375632413442L69.38396875,66.70048621637267L70.29196875,58.66259637035945L71.19996875000001,114.43051258113827L72.10796875,96.69383529149785L73.01596875,86.02841430590429L73.92396875,73.26423486283656L74.83196875,68.08843781523728L75.73996874999999,68.1556039817731L76.64796875,55.528540588244425L77.55596875,58.81069805524546L78.46396875,56.20935314523406L79.37196875,123.76994571188575L80.27996875,113.55450071476659L81.18796875000001,96.0841176182379L82.09596875000001,69.53504193982036L83.00396875,39.409027530178264L83.91196875,64.38018531224007L84.81996875,76.40018596010547L85.72796874999999,55.64929102881268L86.63596875,68.61036694751597L87.54396875,207.37993242061296L88.45196875,226.7420275863822L89.35996875,141.9075394325009L90.26796875,60.21389480959068L91.17596875,55.988950195174475L92.08396875000001,28.942958364550606L92.99196875,52.51061027075859L93.89996875,52.20575451976437L94.80796875,53.61795262265339L95.71596875,90.3515952665007L96.62396874999999,108.84737542913118L97.53196875,52.457011824110324L98.43996875,106.94140539299386L99.34796875,99.13567312612084L100.25596875,84.70759781722899L101.16396875,192.6964482448747L102.07196875,232.883293235161L102.97996875000001,140.0975795365368L103.88796875,144.27355697109576L104.79596875,118.03325626235998L105.70396875,114.3048452087381L106.61196874999999,102.68368438448266L107.51996875,103.72036676331427L108.42796875,96.71232435768059L109.33596875,74.37202023434995L110.24396875,63.94439849972205L111.15196875,48.58161372329325L112.05996875,55.27276748465202L112.96796875000001,43.938700750519274L113.87596875,12.932322810963617L114.78396875,30.768894630275586L115.69196875,17.009669579397343L116.59996875,37.7515270565702L117.50796874999999,18.29542400888202L118.41596875,25.995633029878483L119.32396875,38.46146098059988L120.23196875000001,42.54272096279653L121.13996875,55.59360930919835L122.04796875,86.37510350337509L122.95596875,79.41980509706713L123.86396875000001,77.23531870371052L124.77196875,89.08941650768304L125.67996875,88.90725203520627L126.58796875,103.01471560100659L127.49596874999999,84.74192778683592L128.40396875,70.76311544520102L129.31196875,60.47653956929159L130.21996875,48.66438396543314L131.12796875,44.55836396080286L132.03596875,49.98892345272871L132.94396874999998,75.03479107396595L133.85196875,77.66298033379515L134.75996874999998,72.23096515058506L135.66796875,79.40918561547875L136.57596875000002,76.49596702020372L137.48396875,78.08396925490318L138.39196875000002,74.36817330098876L139.29996875,75.96595508579908L140.20796875,105.76958605666275L141.11596874999998,37.04450474209561L142.02396875,39.71906406070206L142.93196875,63.18653334608921L143.83996875,45.094602338445284L144.74796875,32.33291203313778L145.65596875,12.264959293575581L146.56396875000002,21.0740763780534L147.47196875,55.56515939823379L148.37996875,59.94173564419869L149.28796875,84.13230647159284L150.19596875,84.42403145187848L151.10396875,101.14969803654175L152.01196875,74.17364626614831L152.91996875,56.846270443545656L153.82796875,71.16575270708293L154.73596874999998,98.91636587455025L155.64396875,75.31769390498856L156.55196875,73.61065500641712L157.45996875,63.48049752420784L158.36796875000002,40.73912049375397L159.27596875,58.07334278434585L160.18396875000002,58.094185841693744L161.09196874999998,63.02400547192581L161.99996875,75.8417793113631L162.90796875,67.83052875437345L163.81596875,68.137505109445L164.72396875,60.40163876090439L165.63196875,68.37058202081548L166.53996875,76.30387621819843L167.44796875,73.72560881197376L168.35596875,79.8730758584733L169.26396875,80.26396274953412L170.17196875,80.28898994971296L171.07996875,75.09419381207537L171.98796875,71.94146149645495L172.89596875,63.09105370263558L173.80396875000002,60.09659612163393L174.71196874999998,55.025994618029955L175.61996875,62.594668402616335L176.52796874999999,63.63528814437178L177.43596875,65.6218068071459L178.34396875,71.75948826848224L179.25196875,68.3039974748739L180.15996875000002,75.23210739417914L181.06796875,84.48701282611837L181.97596875,57.46834600133507L182.88396874999998,71.94575510305464L183.79196875,60.41258902938086L184.69996875,58.34106338513905L185.60796875,55.90977413948187L186.51596875,50.655128564030164L187.42396875,43.15168426920234L188.33196875000002,59.32747002948265L189.23996874999997,44.05532847671152L190.14796875,35.33733433061825L191.05596875,44.25598066241091L191.96396875,41.32793731665478L192.87196875,41.268919208089336L193.77996875,42.98794512930821L194.68796875,35.60124932104948L195.59596875000003,45.358499508119465L196.50396874999998,49.748471263427874L197.41196875,61.329302085543205L198.31996875,71.72558441576403L199.22796875,52.77937331228142L200.13596875000002,39.7042327567123L201.04396875,50.39885355314098L201.95196875000002,44.58246293097562L202.85996874999998,89.69242162502168L203.76796875,58.36906883851962L204.67596874999998,56.64469651927012L205.58396875,49.22745781822524L206.49196875,44.30233444153608L207.39996875,38.780071272268415L208.30796875000001,34.59659618320779L209.21596875,19.815279111667472L210.12396875,17.920744357212328L211.03196875,11.215774462321695L211.93996875,23.82222168235095L212.84796875,38.938060863038864L213.75596875,36.081476771917366L214.66396875,50.82360213229857L215.57196875,50.08323739491399L216.47996875,68.8227707591389L217.38796875,57.430377684224325L218.29596875,48.8033205577251L219.20396875,52.98594600425647L220.11196875,48.51754733418697L221.01996875,47.317090149310246L221.92796875000002,44.59792972998579L222.83596875,73.22112672978083L223.74396875,51.47097383778588L224.65196874999998,59.30567002889598L225.55996875,56.837039477899495L226.46796875,48.91239496077816L227.37596875,62.19598762625657L228.28396875,52.9649959993567L229.19196875,29.874396135709276L230.09996875000002,36.34996821027171L231.00796874999997,35.004369682548244L231.91596875,34.59800919497064L232.82396875,45.85200033181111L233.73196875,37.98434883847219L234.63996875,40.13959717586729L235.54796875,25.60014331059096L236.45596875,15.4104141676947L237.36396875000003,47.09531970986414L238.27196874999998,48.9379104679332L239.17996875,45.70487356723076L240.08796875,66.54773340547519L240.99596875,53.145552532956074L241.90396875,73.16385129516428L242.81196875,59.10073974156671L243.71996875000002,66.09994497643794" style="fill: none;" fill="none"></path></g></g></g></g><g opacity="0.2"><g><g><g><path stroke="rgb(204, 51, 17)" stroke-width="2px" d="M24.89196875,841.9511589637169L25.79996875,146.10704862154446L26.70796875,233.96794245793268L27.615968749999997,216.16053948035605L28.523968749999998,54.30803592388447L29.43196875,28.787609980656548L30.33996875,150.1353043776292L31.24796875,-3.0490963275615925L33.06396875,-54.696617126464844L33.97196875,69.44078592153696L34.879968749999996,-49.220716036283065L36.69596875,-20.686958019550012L37.60396875000001,41.08310552743766L38.51196875,36.805678147536064L39.419968749999995,67.34346096332256L40.327968750000004,56.81656910822942L41.23596875,8.61616721520058L42.14396875,-69.94345444899338L43.05196875,70.12151718139648L43.95996875,20.743816082294174L44.867968749999996,33.07925591102013L45.775968750000004,56.35252145620492L46.68396875,25.723036252535316L47.59196875,-81.14851144643931L48.49996875,16.296524634728062L49.40796875,37.48369803795447L50.315968749999996,14.537281623253453L51.223968750000004,14.763455024132359L52.13196875,-22.047452193040108L53.03996875,31.581740746131313L53.94796875,-84.70490822425255L54.85596875,-41.89688755915716L55.76396875,77.0313937847431L56.671968750000005,6.835120274470407L57.57996875,-40.94969969529374L59.39596875,-56.35470023522011L60.303968749999996,87.16218361487755L61.21196875,45.11946311363806L62.11996875,154.3986100416917L63.02796875,155.11605776273288L63.935968749999994,67.71022209754356L64.84396875,25.701619661771325L65.75196875,8.366043384258562L66.65996875,-34.69016441932091L67.56796875,96.8079610971304L68.47596874999999,83.49639599139873L69.38396875,75.4705810546875L70.29196875,46.6057616013747L71.19996875000001,198.08238689716046L72.10796875,70.08881935706505L73.01596875,70.03028282752403L73.92396875,54.11796569824219L74.83196875,60.32474224384014L75.73996874999999,68.25635323157677L76.64796875,36.587945497952965L77.55596875,63.73393425574669L78.46396875,52.307335780217095L79.37196875,225.11083456186145L80.27996875,98.23133321908803L81.18796875000001,69.87854297344502L82.09596875000001,29.711428422194267L83.00396875,-5.779994084284841L83.91196875,101.83692198533278L84.81996875,94.43018693190355L85.72796874999999,24.5229486318735L86.63596875,88.05198082557091L87.54396875,415.53428063025837L88.45196875,255.78517033503607L89.35996875,14.655807201678938L90.26796875,-62.32657212477462L91.17596875,49.65153327355017L92.08396875000001,-11.62602938138522L92.99196875,87.8620881300706L93.89996875,51.74847089327298L94.80796875,55.736249776986924L95.71596875,145.45205923227164L96.62396874999999,136.59104567307693L97.53196875,-32.12853358342097L98.43996875,188.66799574631912L99.34796875,87.4270747258113L100.25596875,63.06548485389122L101.16396875,354.67972388634314L102.07196875,293.16356072059045L102.97996875000001,0.9190089886005168L103.88796875,150.53752312293418L104.79596875,78.67280519925632L105.70396875,108.71222862830528L106.61196874999999,85.25194314809946L107.51996875,105.27539033156174L108.42796875,86.20026074923001L109.33596875,40.86156404935397L110.24396875,48.302965897780204L111.15196875,25.537436558650093L112.05996875,65.3094981266902L112.96796875000001,26.937600649320153L113.87596875,-33.57724409836991L114.78396875,57.52375235924353L115.69196875,-3.62916799692006L116.59996875,68.86431327232947L117.50796874999999,-10.888730562650252L118.41596875,37.545946561373206L119.32396875,57.16020290668194L120.23196875000001,48.6646109360915L121.13996875,75.16994182880107L122.04796875,132.54734479464017L122.95596875,68.98685748760518L123.86396875000001,73.95858911367563L124.77196875,106.87056321364182L125.67996875,88.63400532649115L126.58796875,124.17591094970703L127.49596874999999,57.33274606557992L128.40396875,49.79489693274864L129.31196875,45.04667575542744L130.21996875,30.94615055964544L131.12796875,38.39933395385742L132.03596875,58.134762690617485L132.94396874999998,112.60359250582181L133.85196875,81.60526422353891L134.75996874999998,64.08294237576999L135.66796875,90.17651631281927L136.57596875000002,72.12613912729115L137.48396875,80.46597260695238L138.39196875000002,68.79447937011719L139.29996875,78.36262776301459L140.20796875,150.47503251295822L141.11596874999998,-66.0431172297551L142.02396875,43.730903038611785L142.93196875,98.38773727416992L143.83996875,17.956705826979423L144.74796875,13.190376575176531L145.65596875,-17.836969815767716L146.56396875000002,34.28775200477013L147.47196875,107.30178392850436L148.37996875,66.50660001314603L149.28796875,120.41816271268405L150.19596875,84.86161892230693L151.10396875,126.23819791353665L152.01196875,33.70956861055814L152.91996875,30.85520670964167L153.82796875,92.64497610238881L154.73596874999998,140.5422856257512L155.64396875,39.91968595064603L156.55196875,71.05009665855994L157.45996875,48.28526130089392L158.36796875000002,6.627054948073173L159.27596875,84.07467622023363L160.18396875000002,58.12545042771559L161.09196874999998,70.4187349172739L161.99996875,95.06844007051907L162.90796875,55.81365291888897L163.81596875,68.59796964205228L164.72396875,48.79783923809345L165.63196875,80.3239969106821L166.53996875,88.20381751427284L167.44796875,69.85820770263672L168.35596875,89.09427642822266L169.26396875,80.85029308612529L170.17196875,80.32653074998122L171.07996875,67.30199960561899L171.98796875,67.21236302302435L172.89596875,49.81544201190655L173.80396875000002,55.604909750131455L174.71196874999998,47.420092362623954L175.61996875,73.94767907949594L176.52796874999999,65.19621775700494L177.43596875,68.6015848013071L178.34396875,80.96601046048679L179.25196875,63.120761284461395L180.15996875000002,85.62427227313701L181.06796875,98.36937097402719L181.97596875,16.940345764160156L182.88396874999998,93.66186875563402L183.79196875,43.112839918870186L184.69996875,55.2337749187763L185.60796875,52.262840270996094L186.51596875,42.77316020085261L187.42396875,31.89651782696064L188.33196875000002,83.59114866990309L189.23996874999997,21.147116147554847L190.14796875,22.260343111478356L191.05596875,57.63395016009991L191.96396875,36.93587229802058L192.87196875,41.18039204524114L193.77996875,45.56648401113656L194.68796875,24.52120560866136L195.59596875000003,59.99437478872445L196.50396874999998,56.333428896390465L197.41196875,78.70054831871619L198.31996875,87.32000791109525L199.22796875,24.360056657057548L200.13596875000002,20.091521923358627L201.04396875,66.44078474778395L201.95196875000002,35.85787699772761L202.85996874999998,157.35735966609076L203.76796875,11.384039658766532L204.67596874999998,54.058138040395875L205.58396875,38.101599766657905L206.49196875,36.91464937650241L207.39996875,30.49667651836689L208.30796875000001,28.32138354961689L209.21596875,-2.356696495643032L210.12396875,15.078942225529593L211.03196875,1.1583196199857362L211.93996875,42.73189251239483L212.84796875,61.61181963407077L213.75596875,31.796600635235123L214.66396875,72.93679017287035L215.57196875,48.97269028883714L216.47996875,96.93207080547624L217.38796875,40.34178807185247L218.29596875,35.862734867976265L219.20396875,59.25988417405348L220.11196875,41.81494932908278L221.01996875,45.516404371995186L221.92796875000002,40.51918910099909L222.83596875,116.15592222947342L223.74396875,18.845744499793422L224.65196874999998,71.05771431556114L225.55996875,53.134093651404754L226.46796875,37.02542818509616L227.37596875,82.12137662447415L228.28396875,39.118508559006905L229.19196875,-4.761503659761857L230.09996875000002,46.063326322115394L231.00796874999997,32.98597189096305L231.91596875,33.98846846360426L232.82396875,62.73298703707181L233.73196875,26.182871598463798L234.63996875,43.37246968195989L235.54796875,3.790962512676531L236.45596875,0.12582045335035907L237.36396875000003,94.62267802311823L238.27196874999998,51.70179660503681L239.17996875,40.855318216177125L240.08796875,97.8120231628418L240.99596875,33.04228122417744L241.90396875,103.19129943847656L242.81196875,38.00607241117038L243.71996875000002,76.59875282874474" style="fill: none;" fill="none"></path></g></g></g></g></g></g><g transform="translate(63, 176)" clip-path="url(#clip_1)"><clipPath id="clip_1"><rect width="266" height="24"></rect></clipPath><g><g><line x1="0" y1="0" x2="0" y2="5" style="visibility: inherit;" fill="rgb(0, 0, 0)" stroke="rgb(204, 204, 204)" stroke-width="1px"></line><line x1="22.16796875" y1="0" x2="22.16796875" y2="5" style="visibility: inherit;" fill="rgb(0, 0, 0)" stroke="rgb(204, 204, 204)" stroke-width="1px"></line><line x1="44.3359375" y1="0" x2="44.3359375" y2="5" style="visibility: inherit;" fill="rgb(0, 0, 0)" stroke="rgb(204, 204, 204)" stroke-width="1px"></line><line x1="66.50390625" y1="0" x2="66.50390625" y2="5" style="visibility: inherit;" fill="rgb(0, 0, 0)" stroke="rgb(204, 204, 204)" stroke-width="1px"></line><line x1="88.671875" y1="0" x2="88.671875" y2="5" style="visibility: inherit;" fill="rgb(0, 0, 0)" stroke="rgb(204, 204, 204)" stroke-width="1px"></line><line x1="110.83984375" y1="0" x2="110.83984375" y2="5" style="visibility: inherit;" fill="rgb(0, 0, 0)" stroke="rgb(204, 204, 204)" stroke-width="1px"></line><line x1="133.0078125" y1="0" x2="133.0078125" y2="5" style="visibility: inherit;" fill="rgb(0, 0, 0)" stroke="rgb(204, 204, 204)" stroke-width="1px"></line><line x1="155.17578125" y1="0" x2="155.17578125" y2="5" style="visibility: inherit;" fill="rgb(0, 0, 0)" stroke="rgb(204, 204, 204)" stroke-width="1px"></line><line x1="177.34375" y1="0" x2="177.34375" y2="5" style="visibility: inherit;" fill="rgb(0, 0, 0)" stroke="rgb(204, 204, 204)" stroke-width="1px"></line><line x1="199.51171875" y1="0" x2="199.51171875" y2="5" style="visibility: inherit;" fill="rgb(0, 0, 0)" stroke="rgb(204, 204, 204)" stroke-width="1px"></line><line x1="221.6796875" y1="0" x2="221.6796875" y2="5" style="visibility: inherit;" fill="rgb(0, 0, 0)" stroke="rgb(204, 204, 204)" stroke-width="1px"></line><line x1="243.84765625" y1="0" x2="243.84765625" y2="5" style="visibility: inherit;" fill="rgb(0, 0, 0)" stroke="rgb(204, 204, 204)" stroke-width="1px"></line><line x1="266.015625" y1="0" x2="266.015625" y2="5" style="visibility: inherit;" fill="rgb(0, 0, 0)" stroke="rgb(204, 204, 204)" stroke-width="1px"></line></g><g transform="translate(0, 8)"><text x="0" y="0" dx="0em" dy="0.95em" style="text-anchor: middle; visibility: hidden; font-family: Roboto, sans-serif; font-size: 12px; font-weight: 200;" fill="rgb(33, 33, 33)" stroke="none" stroke-width="1px">-100k</text><text x="22.16796875" y="0" dx="0em" dy="0.95em" style="text-anchor: middle; visibility: inherit; font-family: Roboto, sans-serif; font-size: 12px; font-weight: 200;" fill="rgb(33, 33, 33)" stroke="none" stroke-width="1px">0</text><text x="44.3359375" y="0" dx="0em" dy="0.95em" style="text-anchor: middle; visibility: hidden; font-family: Roboto, sans-serif; font-size: 12px; font-weight: 200;" fill="rgb(33, 33, 33)" stroke="none" stroke-width="1px">100k</text><text x="66.50390625" y="0" dx="0em" dy="0.95em" style="text-anchor: middle; visibility: inherit; font-family: Roboto, sans-serif; font-size: 12px; font-weight: 200;" fill="rgb(33, 33, 33)" stroke="none" stroke-width="1px">200k</text><text x="88.671875" y="0" dx="0em" dy="0.95em" style="text-anchor: middle; visibility: hidden; font-family: Roboto, sans-serif; font-size: 12px; font-weight: 200;" fill="rgb(33, 33, 33)" stroke="none" stroke-width="1px">300k</text><text x="110.83984375" y="0" dx="0em" dy="0.95em" style="text-anchor: middle; visibility: inherit; font-family: Roboto, sans-serif; font-size: 12px; font-weight: 200;" fill="rgb(33, 33, 33)" stroke="none" stroke-width="1px">400k</text><text x="133.0078125" y="0" dx="0em" dy="0.95em" style="text-anchor: middle; visibility: hidden; font-family: Roboto, sans-serif; font-size: 12px; font-weight: 200;" fill="rgb(33, 33, 33)" stroke="none" stroke-width="1px">500k</text><text x="155.17578125" y="0" dx="0em" dy="0.95em" style="text-anchor: middle; visibility: inherit; font-family: Roboto, sans-serif; font-size: 12px; font-weight: 200;" fill="rgb(33, 33, 33)" stroke="none" stroke-width="1px">600k</text><text x="177.34375" y="0" dx="0em" dy="0.95em" style="text-anchor: middle; visibility: hidden; font-family: Roboto, sans-serif; font-size: 12px; font-weight: 200;" fill="rgb(33, 33, 33)" stroke="none" stroke-width="1px">700k</text><text x="199.51171875" y="0" dx="0em" dy="0.95em" style="text-anchor: middle; visibility: inherit; font-family: Roboto, sans-serif; font-size: 12px; font-weight: 200;" fill="rgb(33, 33, 33)" stroke="none" stroke-width="1px">800k</text><text x="221.6796875" y="0" dx="0em" dy="0.95em" style="text-anchor: middle; visibility: hidden; font-family: Roboto, sans-serif; font-size: 12px; font-weight: 200;" fill="rgb(33, 33, 33)" stroke="none" stroke-width="1px">900k</text><text x="243.84765625" y="0" dx="0em" dy="0.95em" style="text-anchor: middle; visibility: inherit; font-family: Roboto, sans-serif; font-size: 12px; font-weight: 200;" fill="rgb(33, 33, 33)" stroke="none" stroke-width="1px">1M</text><text x="266.015625" y="0" dx="0em" dy="0.95em" style="text-anchor: middle; visibility: hidden; font-family: Roboto, sans-serif; font-size: 12px; font-weight: 200;" fill="rgb(33, 33, 33)" stroke="none" stroke-width="1px">1.1M</text></g><line x1="0" y1="0" x2="266.015625" y2="0" fill="rgb(0, 0, 0)" stroke="rgb(204, 204, 204)" stroke-width="1px"></line></g></g></g></g></svg>