<svg viewBox="0 0 330 200" xmlns="http://www.w3.org/2000/svg"><g><g><g><g><g><line x1="61.953125" y1="177" x2="56.953125" y2="177" style="visibility: inherit;" fill="rgb(0, 0, 0)" stroke="rgb(204, 204, 204)" stroke-width="1px"></line><line x1="61.953125" y1="157.33333333333331" x2="56.953125" y2="157.33333333333331" style="visibility: inherit;" fill="rgb(0, 0, 0)" stroke="rgb(204, 204, 204)" stroke-width="1px"></line><line x1="61.953125" y1="137.66666666666666" x2="56.953125" y2="137.66666666666666" style="visibility: inherit;" fill="rgb(0, 0, 0)" stroke="rgb(204, 204, 204)" stroke-width="1px"></line><line x1="61.953125" y1="118.00000000000001" x2="56.953125" y2="118.00000000000001" style="visibility: inherit;" fill="rgb(0, 0, 0)" stroke="rgb(204, 204, 204)" stroke-width="1px"></line><line x1="61.953125" y1="98.33333333333334" x2="56.953125" y2="98.33333333333334" style="visibility: inherit;" fill="rgb(0, 0, 0)" stroke="rgb(204, 204, 204)" stroke-width="1px"></line><line x1="61.953125" y1="78.66666666666669" x2="56.953125" y2="78.66666666666669" style="visibility: inherit;" fill="rgb(0, 0, 0)" stroke="rgb(204, 204, 204)" stroke-width="1px"></line><line x1="61.953125" y1="59.00000000000001" x2="56.953125" y2="59.00000000000001" style="visibility: inherit;" fill="rgb(0, 0, 0)" stroke="rgb(204, 204, 204)" stroke-width="1px"></line><line x1="61.953125" y1="39.33333333333335" x2="56.953125" y2="39.33333333333335" style="visibility: inherit;" fill="rgb(0, 0, 0)" stroke="rgb(204, 204, 204)" stroke-width="1px"></line><line x1="61.953125" y1="19.666666666666675" x2="56.953125" y2="19.666666666666675" style="visibility: inherit;" fill="rgb(0, 0, 0)" stroke="rgb(204, 204, 204)" stroke-width="1px"></line><line x1="61.953125" y1="0" x2="56.953125" y2="0" style="visibility: inherit;" fill="rgb(0, 0, 0)" stroke="rgb(204, 204, 204)" stroke-width="1px"></line></g><g transform="translate(51.953125, 0)"><text x="0" y="177" dx="0em" dy="0.3em" style="text-anchor: end; visibility: hidden; font-family: Roboto, sans-serif; font-size: 12px; font-weight: 200;" fill="rgb(33, 33, 33)" stroke="none" stroke-width="1px">-2e-3</text><text x="0" y="157.33333333333331" dx="0em" dy="0.3em" style="text-anchor: end; visibility: inherit; font-family: Roboto, sans-serif; font-size: 12px; font-weight: 200;" fill="rgb(33, 33, 33)" stroke="none" stroke-width="1px">0</text><text x="0" y="137.66666666666666" dx="0em" dy="0.3em" style="text-anchor: end; visibility: hidden; font-family: Roboto, sans-serif; font-size: 12px; font-weight: 200;" fill="rgb(33, 33, 33)" stroke="none" stroke-width="1px">2e-3</text><text x="0" y="118.00000000000001" dx="0em" dy="0.3em" style="text-anchor: end; visibility: inherit; font-family: Roboto, sans-serif; font-size: 12px; font-weight: 200;" fill="rgb(33, 33, 33)" stroke="none" stroke-width="1px">4e-3</text><text x="0" y="98.33333333333334" dx="0em" dy="0.3em" style="text-anchor: end; visibility: hidden; font-family: Roboto, sans-serif; font-size: 12px; font-weight: 200;" fill="rgb(33, 33, 33)" stroke="none" stroke-width="1px">6e-3</text><text x="0" y="78.66666666666669" dx="0em" dy="0.3em" style="text-anchor: end; visibility: inherit; font-family: Roboto, sans-serif; font-size: 12px; font-weight: 200;" fill="rgb(33, 33, 33)" stroke="none" stroke-width="1px">8e-3</text><text x="0" y="59.00000000000001" dx="0em" dy="0.3em" style="text-anchor: end; visibility: hidden; font-family: Roboto, sans-serif; font-size: 12px; font-weight: 200;" fill="rgb(33, 33, 33)" stroke="none" stroke-width="1px">0.01</text><text x="0" y="39.33333333333335" dx="0em" dy="0.3em" style="text-anchor: end; visibility: inherit; font-family: Roboto, sans-serif; font-size: 12px; font-weight: 200;" fill="rgb(33, 33, 33)" stroke="none" stroke-width="1px">0.012</text><text x="0" y="19.666666666666675" dx="0em" dy="0.3em" style="text-anchor: end; visibility: hidden; font-family: Roboto, sans-serif; font-size: 12px; font-weight: 200;" fill="rgb(33, 33, 33)" stroke="none" stroke-width="1px">0.014</text><text x="0" y="0" dx="0em" dy="0.3em" style="text-anchor: end; visibility: hidden; font-family: Roboto, sans-serif; font-size: 12px; font-weight: 200;" fill="rgb(33, 33, 33)" stroke="none" stroke-width="1px">0.016</text></g><line x1="61.953125" y1="0" x2="61.953125" y2="177" fill="rgb(0, 0, 0)" stroke="rgb(204, 204, 204)" stroke-width="1px"></line></g></g><g transform="translate(61, 0)" clip-path="url(#clip_0)"><clipPath id="clip_0"><rect width="268" height="177"></rect></clipPath><g><g><g><line x1="0" y1="0" x2="0" y2="177" fill="rgb(0, 0, 0)" stroke="rgb(66, 66, 66)" stroke-width="1px" opacity="0.25"></line><line x1="22.337239583333332" y1="0" x2="22.337239583333332" y2="177" fill="rgb(0, 0, 0)" stroke="rgb(66, 66, 66)" stroke-width="1px" opacity="0.25"></line><line x1="44.674479166666664" y1="0" x2="44.674479166666664" y2="177" fill="rgb(0, 0, 0)" stroke="rgb(66, 66, 66)" stroke-width="1px" opacity="0.25"></line><line x1="67.01171875" y1="0" x2="67.01171875" y2="177" fill="rgb(0, 0, 0)" stroke="rgb(66, 66, 66)" stroke-width="1px" opacity="0.25"></line><line x1="89.34895833333333" y1="0" x2="89.34895833333333" y2="177" fill="rgb(0, 0, 0)" stroke="rgb(66, 66, 66)" stroke-width="1px" opacity="0.25"></line><line x1="111.68619791666667" y1="0" x2="111.68619791666667" y2="177" fill="rgb(0, 0, 0)" stroke="rgb(66, 66, 66)" stroke-width="1px" opacity="0.25"></line><line x1="134.0234375" y1="0" x2="134.0234375" y2="177" fill="rgb(0, 0, 0)" stroke="rgb(66, 66, 66)" stroke-width="1px" opacity="0.25"></line><line x1="156.36067708333334" y1="0" x2="156.36067708333334" y2="177" fill="rgb(0, 0, 0)" stroke="rgb(66, 66, 66)" stroke-width="1px" opacity="0.25"></line><line x1="178.69791666666666" y1="0" x2="178.69791666666666" y2="177" fill="rgb(0, 0, 0)" stroke="rgb(66, 66, 66)" stroke-width="1px" opacity="0.25"></line><line x1="201.03515625" y1="0" x2="201.03515625" y2="177" fill="rgb(0, 0, 0)" stroke="rgb(66, 66, 66)" stroke-width="1px" opacity="0.25"></line><line x1="223.37239583333334" y1="0" x2="223.37239583333334" y2="177" fill="rgb(0, 0, 0)" stroke="rgb(66, 66, 66)" stroke-width="1px" opacity="0.25"></line><line x1="245.70963541666666" y1="0" x2="245.70963541666666" y2="177" fill="rgb(0, 0, 0)" stroke="rgb(66, 66, 66)" stroke-width="1px" opacity="0.25"></line><line x1="268.046875" y1="0" x2="268.046875" y2="177" fill="rgb(0, 0, 0)" stroke="rgb(66, 66, 66)" stroke-width="1px" opacity="0.25"></line></g><g><line x1="0" y1="177" x2="268.046875" y2="177" fill="rgb(0, 0, 0)" stroke="rgb(66, 66, 66)" stroke-width="1px" opacity="0.25"></line><line x1="0" y1="157.33333333333331" x2="268.046875" y2="157.33333333333331" fill="rgb(0, 0, 0)" stroke="rgb(66, 66, 66)" stroke-width="1px" opacity="0.25"></line><line x1="0" y1="137.66666666666666" x2="268.046875" y2="137.66666666666666" fill="rgb(0, 0, 0)" stroke="rgb(66, 66, 66)" stroke-width="1px" opacity="0.25"></line><line x1="0" y1="118.00000000000001" x2="268.046875" y2="118.00000000000001" fill="rgb(0, 0, 0)" stroke="rgb(66, 66, 66)" stroke-width="1px" opacity="0.25"></line><line x1="0" y1="98.33333333333334" x2="268.046875" y2="98.33333333333334" fill="rgb(0, 0, 0)" stroke="rgb(66, 66, 66)" stroke-width="1px" opacity="0.25"></line><line x1="0" y1="78.66666666666669" x2="268.046875" y2="78.66666666666669" fill="rgb(0, 0, 0)" stroke="rgb(66, 66, 66)" stroke-width="1px" opacity="0.25"></line><line x1="0" y1="59.00000000000001" x2="268.046875" y2="59.00000000000001" fill="rgb(0, 0, 0)" stroke="rgb(66, 66, 66)" stroke-width="1px" opacity="0.25"></line><line x1="0" y1="39.33333333333335" x2="268.046875" y2="39.33333333333335" fill="rgb(0, 0, 0)" stroke="rgb(66, 66, 66)" stroke-width="1px" opacity="0.25"></line><line x1="0" y1="19.666666666666675" x2="268.046875" y2="19.666666666666675" fill="rgb(0, 0, 0)" stroke="rgb(66, 66, 66)" stroke-width="1px" opacity="0.25"></line><line x1="0" y1="0" x2="268.046875" y2="0" fill="rgb(0, 0, 0)" stroke="rgb(66, 66, 66)" stroke-width="1px" opacity="0.25"></line></g></g></g><g><g><line x1="0" y1="157.33333333333331" x2="268.046875" y2="157.33333333333331" fill="rgb(0, 0, 0)" stroke="rgb(153, 153, 153)" stroke-width="1.5px"></line></g></g><g><g><line x1="22.337239583333332" y1="0" x2="22.337239583333332" y2="177" fill="rgb(0, 0, 0)" stroke="rgb(153, 153, 153)" stroke-width="1.5px"></line></g></g><g><g><g><g><g><path stroke="rgb(204, 51, 17)" stroke-width="2px" d="M25.082039583333334,-111.47930219052289L25.996972916666667,1.6671483393704163L26.91190625,64.01105629718954L27.82683958333333,92.89944196850851L28.741772916666665,114.36837519392263L29.65670625,128.19097726525186L30.571639583333337,134.84948438555287L31.486572916666667,142.15559573593993L32.40150625,146.4912855935153L33.316439583333334,149.59365303089805L34.231372916666665,151.20080362059966L35.146306249999995,152.53464370308663L36.06123958333333,153.01827281015835L36.97617291666666,153.36999256897207L37.89110625000001,131.38844508848186L38.80603958333334,86.89131142931667L39.72097291666667,104.39274742733157L40.635906250000005,124.36783564040766L41.550839583333335,135.21046885009696L42.465772916666666,141.20644328495823L43.38070625,141.77071314077648L44.29563958333333,139.07497392864062L45.21057291666666,143.21370699780485L46.12550625,132.44109275754715L47.04043958333333,138.95851078024347L47.95537291666666,144.21951552747026L48.870306250000006,146.672673862974L49.785239583333336,-38.30129712132797L50.700172916666666,36.44691900371997L51.615106250000004,55.50978391142581L52.530039583333334,94.7442665027649L53.444972916666664,116.67464527099521L54.35990625,131.4062171268927L55.27483958333333,139.78277982600585L56.18977291666666,141.5977137352276L57.10470625,145.21529070210258L58.01963958333333,148.43645652505123L58.93457291666666,149.80936263571837L59.849506250000005,151.6286067786958L60.764439583333335,150.85474942923975L61.679372916666665,150.86342676275558L62.59430625,122.27021654573589L63.50923958333333,133.39100691253066L64.42417291666666,135.77811846605894L65.33910625,142.65190880175686L66.25403958333334,145.85290003751578L67.16897291666668,149.12257427920625L68.08390625,148.26220600779243L68.99883958333334,128.89512721052543L69.91377291666666,138.0638645189258L70.82870625,140.034449274926L71.74363958333333,128.38406458754432L72.65857291666667,136.35682254880376L73.57350625,142.26110168308068L74.48843958333333,144.20913634697422L75.40337291666667,146.35372269318054L76.31830624999999,147.49484870830514L77.23323958333334,145.51665889564498L78.14817291666667,147.65955086710318L79.06310625,73.58372007605661L79.97803958333333,103.12109062799185L80.89297291666666,122.467760984626L81.80790625,134.80330524793553L82.72283958333334,141.8136869761673L83.63777291666666,145.77856365147943L84.55270625,130.06468113345133L85.46763958333334,139.2422199935276L86.38257291666666,144.71708866419496L87.29750625000001,141.48877833177409L88.21243958333334,145.52399893442896L89.12737291666667,148.95966931995315L90.04230625,150.40274752992457L90.95723958333333,152.0690231234788L91.87217291666666,152.32308747943927L92.78710625000001,152.5063054620358L93.70203958333333,148.87747703218008L94.61697291666667,148.60234690289698L95.53190624999999,76.22178836314482L96.44683958333333,103.30201727780613L97.36177291666667,120.80789859243725L98.27670625,133.4031840227703L99.19163958333334,140.23871957269517L100.10657291666666,145.0562658324336L101.02150625,147.17785540883835L101.93643958333332,22.190930453926914L102.85137291666666,74.44255386992728L103.76630625,105.39593151603675L104.68123958333334,123.64048798117635L105.59617291666666,135.62976815527773L106.51110625,143.059716969229L107.42603958333333,146.23594156380577L108.34097291666667,144.66655077522645L109.25590625000001,147.11390233624243L110.17083958333333,150.07890385558352L111.08577291666667,150.51987680431665L112.00070625,138.31752117841816L112.91563958333333,143.46973643405116L113.83057291666667,146.95682031605244L114.74550625,150.0226801697218L115.66043958333333,151.22276148462367L116.57537291666667,152.25770679821576L117.49030625,83.61763048893216L118.40523958333333,111.45170432546155L119.32017291666668,127.16185516329904L120.23510625,134.61341332410652L121.15003958333334,140.0907582858533L122.06497291666666,33.218445057829044L122.97990625,78.20195317035756L123.89483958333332,103.59456535388533L124.80977291666667,117.34538555717174L125.72470625,130.3650328100204L126.63963958333333,119.63611589081962L127.55457291666667,131.42372450818968L128.46950625,139.14335358119095L129.38443958333332,141.08839778084956L130.29937291666667,144.0537419674311L131.21430625,147.79134246983028L132.12923958333334,141.60674073551334L133.04417291666667,52.59049265635554L133.95910625,89.96948121395238L134.87403958333334,107.47598320388711L135.78897291666667,37.99747054960679L136.70390625,78.57143139304527L137.61883958333334,107.16373584421562L138.53377291666666,118.37357203998916L139.44870625000001,110.24479075996331L140.36363958333334,51.329848934580404L141.27857291666666,92.21471959830248L142.19350624999998,117.21723680011424L143.10843958333334,131.87409108589722L144.0233729166667,21.029245590432303L144.93830624999998,73.17099488275329L145.85323958333333,102.96451630627858L146.76817291666666,123.39401852734274L147.68310625,133.43846545006144L148.59803958333336,138.9555554006863L149.51297291666666,124.8990726938964L150.42790625,131.7554748324228L151.34283958333333,137.48129310073742L152.25777291666668,34.47302130577339L153.17270624999998,76.42919899814252L154.08763958333333,102.24235142942027L155.00257291666668,120.3659507030542L155.91750625,130.62638104610912L156.83243958333333,10.275410840828853L157.74737291666665,65.41043130452613L158.66230625,92.75841503180175L159.57723958333335,115.51952675741553L160.49217291666668,56.34346468803273L161.40710625,93.09242724409765L162.32203958333332,116.36186355169134L163.23697291666667,129.59036633883227L164.15190625000002,137.91285381716824L165.06683958333332,142.37142629780024L165.98177291666667,145.20949779822396L166.89670625,142.56395515879623L167.81163958333335,145.86620949958393L168.72657291666664,146.6897770794074L169.64150625,145.6369416453917L170.55643958333334,145.83955985388036L171.47137291666667,24.66597687054203L172.38630625000002,16.66130670765159L173.3012395833333,65.34618770526568L174.21617291666666,97.4953917931694L175.13110625000002,108.01060050392718L176.04603958333334,123.86992308303705L176.96097291666666,129.17750522527095L177.87590624999999,96.74752426514821L178.79083958333334,117.25066406053185L179.70577291666666,129.21554066849873L180.62070625,134.86819896194214L181.53563958333334,124.6932842106196L182.45057291666666,118.57950337949829L183.36550625,125.1251692005402L184.28043958333333,134.41109778792722L185.19537291666666,140.7253346001023L186.11030625,136.7739170612592L187.02523958333333,-83.7645417399189L187.94017291666668,6.832145238102647L188.85510624999998,61.56371520919968L189.77003958333333,-57.2290514530935L190.68497291666665,25.201072017270462L191.59990625,74.5286729135373L192.51483958333336,59.263600570853086L193.42977291666665,38.23892530176772L194.34470625,78.6768300361235L195.25963958333332,106.304153513581L196.17457291666668,113.50674991421626L197.08950625,126.99937788203493L198.00443958333332,117.50110861170373L198.91937291666667,129.49981145410337L199.83430625,138.0769672450588L200.74923958333335,140.84131070039416L201.66417291666667,57.33446158902892L202.57910625,31.732089826089446L203.49403958333335,69.67197758696813L204.40897291666667,100.08417167820436L205.32390625,115.59295789758109L206.23883958333332,128.19765655302353L207.15377291666667,137.88961009969447L208.06870625000002,142.63554298010672L208.98363958333331,145.72315577797664L209.89857291666667,111.91179172525351L210.81350625,127.82230526045188L211.72843958333334,134.58478627820696L212.6433729166667,140.330016509947L213.55830625,141.15828428479938L214.47323958333334,142.82721000084277L215.38817291666666,144.03078059847303L216.30310625,84.96146335598915L217.2180395833333,108.53393884581331L218.13297291666666,123.35805900027803L219.04790625,128.3299215970265L219.96283958333333,-132.82834101093843L220.87777291666666,-20.430025127580468L221.79270624999998,47.12565753778526L222.70763958333333,8.769360382879057L223.62257291666668,61.7113501281436L224.53750625,95.52915197572734L225.45243958333333,116.87240361744017L226.36737291666665,129.49530141583892L227.28230625,130.44317013156004L228.19723958333336,136.41795256390125L229.11217291666665,135.70497653861713L230.02710625,139.3706553718738L230.94203958333333,143.7353505407237L231.85697291666668,-83.37489049745821L232.77190625,8.035046637935599L233.68683958333332,62.00929823036483L234.60177291666668,91.74179616306517L235.51670625,111.58960153028941L236.43163958333335,86.77543621728171L237.34657291666664,112.506873300582L238.26150625,126.20855832992336L239.17643958333335,112.81270726188026L240.09137291666667,120.3239886523376L241.00630625,124.01976757835887L241.92123958333332,127.94218811025148L242.83617291666667,12.506202093541203L243.75110625,-24.597874402932618L244.66603958333334,42.30968837965592L245.58097291666667,82.52029189956625" style="fill: none;" fill="none"></path></g></g></g></g><g opacity="0.2"><g><g><g><path stroke="rgb(204, 51, 17)" stroke-width="2px" d="M23.252172916666666,-1069.1187540292738L24.16710625,81.42792974536619L25.082039583333334,117.52656130989394L25.996972916666667,134.72737416252494L26.91190625,145.4072625269182L27.82683958333333,132.86247917078435L28.741772916666665,145.06929320919636L29.65670625,148.34446378222978L30.571639583333337,144.66948903957382L31.486572916666667,153.00431960782348L32.40150625,152.95549599197693L33.316439583333334,154.23032124037854L34.231372916666665,153.60628187962962L35.146306249999995,154.53279069523947L36.06123958333333,153.74314798290533L36.97617291666666,153.89732414716855L37.89110625000001,98.42542572195332L38.80603958333334,20.156908757984645L39.72097291666667,130.6422352567315L40.635906250000005,154.32864215783775L41.550839583333335,151.47382402885705L42.465772916666666,150.2002076371573L43.38070625,142.6171067839799L44.29563958333333,135.0313970440378L45.21057291666666,149.42177718520784L46.12550625,116.28221733743945L47.04043958333333,148.73462113800147L47.95537291666666,152.1110145714289L48.870306250000006,150.35240910652405L49.785239583333336,-315.76215136547876L50.700172916666666,148.5692184039702L51.615106250000004,84.10407748011254L52.530039583333334,153.59598570596427L53.444972916666664,149.5702118525126L54.35990625,153.50357427762356L55.27483958333333,152.34762365867692L56.18977291666666,144.32011457098028L57.10470625,150.64165611883314L58.01963958333333,153.268205241533L58.93457291666666,151.868721797131L59.849506250000005,154.35747298951418L60.764439583333335,149.6939634059866L61.679372916666665,150.87644276302308L62.59430625,79.38040123259029L63.50923958333333,150.07219245983288L64.42417291666666,139.3587857959792L65.33910625,152.96259430466066L66.25403958333334,150.65438689097454L67.16897291666668,154.02708564163186L68.08390625,146.97165360068902L68.99883958333334,99.8445090148598L69.91377291666666,151.8169704814597L70.82870625,142.99032640891772L71.74363958333333,110.90848755650222L72.65857291666667,148.31595949068043L73.57350625,151.1175203844905L74.48843958333333,147.1311883428134L75.40337291666667,149.57060221248926L76.31830624999999,149.20653773099184L77.23323958333334,142.54937417665496L78.14817291666667,150.87388882429028L79.06310625,-37.53002611051004L79.97803958333333,147.42714645589393L80.89297291666666,151.48776651957695L81.80790625,153.3066216428997L82.72283958333334,152.32925956851494L83.63777291666666,151.72587866444763L84.55270625,106.49385735640922L85.46763958333334,153.008528283642L86.38257291666666,152.929391670196L87.29750625000001,136.6463128331428L88.21243958333334,151.57682983841127L89.12737291666667,154.11317489823946L90.04230625,152.5673648448816L90.95723958333333,154.5684365138101L91.87217291666666,152.70418401338003L92.78710625000001,152.78113243593057L93.70203958333333,143.43423438739651L94.61697291666667,148.18965170897232L95.53190624999999,-32.349049446483455L96.44683958333333,143.92236064979807L97.36177291666667,147.066720564384L98.27670625,152.29611216826984L99.19163958333334,150.4920228975825L100.10657291666666,152.28258522204123L101.02150625,150.36023977344544L101.93643958333332,-165.28945697844026L102.85137291666666,152.81998899392784L103.76630625,151.82599798520096L104.68123958333334,151.0073226788857L105.59617291666666,153.6136884164298L106.51110625,154.20464019015586L107.42603958333333,151.00027845567092L108.34097291666667,142.3124645923575L109.25590625000001,150.78492967776643L110.17083958333333,154.52640613459516L111.08577291666667,151.18133622741635L112.00070625,120.01398773957044L112.91563958333333,151.19805931750065L113.83057291666667,152.18744613905437L114.74550625,154.62146995022582L115.66043958333333,153.02288345697647L116.57537291666667,153.8101247686039L117.49030625,-19.342483974993215L118.40523958333333,153.2028150802556L119.32017291666668,150.72708142005527L120.23510625,145.79075056531778L121.15003958333334,148.30677572847344L122.06497291666666,-127.09002478420733L122.97990625,145.67721533915028L123.89483958333332,141.68348362917703L124.80977291666667,137.97161586210132L125.72470625,149.89450368929343L126.63963958333333,103.54274051201843L127.55457291666667,149.10513743424477L128.46950625,150.72279719069292L129.38443958333332,144.00596408033744L130.29937291666667,148.50175824730346L131.21430625,153.39774322342905L132.12923958333334,132.32983813403797L133.04417291666667,-80.93387946238121L133.95910625,146.03796405034763L134.87403958333334,133.73573618878922L135.78897291666667,-66.22029843181372L136.70390625,139.43237265820306L137.61883958333334,150.0521925209711L138.53377291666666,135.18832633364946L139.44870625000001,98.05161883992456L140.36363958333334,-37.04256380349398L141.27857291666666,153.54202559388554L142.19350624999998,154.72101260283185L143.10843958333334,153.85937251457167L144.0233729166667,-145.2380226527651L144.93830624999998,151.38361882123476L145.85323958333333,147.65479844156653L146.76817291666666,154.03827185893897L147.68310625,148.50513583413945L148.59803958333336,147.23119032662362L149.51297291666666,103.81434863371155L150.42790625,142.0400780402124L151.34283958333333,146.07002050320926L152.25777291666668,-120.03938638667263L153.17270624999998,139.36346553669622L154.08763958333333,140.96208007633686L155.00257291666668,147.5513496135051L155.91750625,146.0170265606915L156.83243958333333,-170.25104446709153L157.74737291666665,148.112962000072L158.66230625,133.78039062271515L159.57723958333335,149.6611943458362L160.49217291666668,-32.42062841604152L161.40710625,148.21587107819505L162.32203958333332,151.26601801308183L163.23697291666667,149.43312051954368L164.15190625000002,150.39658503467217L165.06683958333332,149.05928501874828L165.98177291666667,149.4666050488595L166.89670625,138.59564119965458L167.81163958333335,150.81959101076546L168.72657291666664,147.9251284491426L169.64150625,144.05768849436814L170.55643958333334,146.14348716661334L171.47137291666667,-157.09439760446546L172.38630625000002,4.654301463315886L173.3012395833333,138.37350920168683L174.21617291666666,145.719197925025L175.13110625000002,123.78341357006381L176.04603958333334,147.6589069517019L176.96097291666666,137.13887843862176L177.87590624999999,48.10255282496415L178.79083958333334,148.00537375360727L179.70577291666666,147.1628555804491L180.62070625,143.34718640210727L181.53563958333334,109.43091208363573L182.45057291666666,109.40883213281633L183.36550625,134.9436679321031L184.28043958333333,148.3399906690077L185.19537291666666,150.1966898183649L186.11030625,130.8467907529945L187.02523958333333,-414.572229941686L187.94017291666668,142.72717570513487L188.85510624999998,143.66107016584525L189.77003958333333,-235.41820144653317L190.68497291666665,148.84625722281635L191.59990625,148.52007425793758L192.51483958333336,36.36599205682676L193.42977291666665,6.701912398139638L194.34470625,139.33368713765717L195.25963958333332,147.74513872976726L196.17457291666668,124.31064451516919L197.08950625,147.23831983376294L198.00443958333332,103.25370470620692L198.91937291666667,147.49786571770287L199.83430625,150.94270093149194L200.74923958333335,144.98782588339722L201.66417291666667,-67.92581207801896L202.57910625,-6.671467818319811L203.49403958333335,126.58180922828615L204.40897291666667,145.70246281505874L205.32390625,138.85613722664615L206.23883958333332,147.10470453618714L207.15377291666667,152.42754041970088L208.06870625000002,149.75444230072512L208.98363958333331,150.3545749747815L209.89857291666667,61.194745646168805L210.81350625,151.6880755632495L211.72843958333334,144.72850780483955L212.6433729166667,148.94786185755706L213.55830625,142.40068594707796L214.47323958333334,145.33059857490784L215.38817291666666,145.8361364949184L216.30310625,-3.642512507736683L217.2180395833333,143.89265208054957L218.13297291666666,145.5942392319751L219.04790625,135.7877154921492L219.96283958333333,-524.5657349228859L220.87777291666666,148.16744869745648L221.79270624999998,148.45918153583384L222.70763958333333,-48.765085349480294L223.62257291666668,141.1243347460404L224.53750625,146.25585474710292L225.45243958333333,148.88728108000942L226.36737291666665,148.429648113437L227.28230625,131.86497320514172L228.19723958333336,145.3801262124131L229.11217291666665,134.63551250069094L230.02710625,144.86917362175882L230.94203958333333,150.28239329399852L231.85697291666668,-424.040252054731L232.77190625,145.1499523410263L233.68683958333332,142.97067561900863L234.60177291666668,136.3405430621157L235.51670625,141.36130958112577L236.43163958333335,49.554188247770085L237.34657291666664,151.10402892553248L238.26150625,146.76108587393537L239.17643958333335,92.71893065981567L240.09137291666667,131.5909107380236L241.00630625,129.56343596739075L241.92123958333332,133.8258189080904L242.83617291666667,-160.64777693152425L243.75110625,-80.25398914764322L244.66603958333334,142.67103255353868L245.58097291666667,142.83619717943174" style="fill: none;" fill="none"></path></g></g></g></g></g></g><g transform="translate(61, 177)" clip-path="url(#clip_1)"><clipPath id="clip_1"><rect width="268" height="23"></rect></clipPath><g><g><line x1="0" y1="0" x2="0" y2="5" style="visibility: inherit;" fill="rgb(0, 0, 0)" stroke="rgb(204, 204, 204)" stroke-width="1px"></line><line x1="22.337239583333332" y1="0" x2="22.337239583333332" y2="5" style="visibility: inherit;" fill="rgb(0, 0, 0)" stroke="rgb(204, 204, 204)" stroke-width="1px"></line><line x1="44.674479166666664" y1="0" x2="44.674479166666664" y2="5" style="visibility: inherit;" fill="rgb(0, 0, 0)" stroke="rgb(204, 204, 204)" stroke-width="1px"></line><line x1="67.01171875" y1="0" x2="67.01171875" y2="5" style="visibility: inherit;" fill="rgb(0, 0, 0)" stroke="rgb(204, 204, 204)" stroke-width="1px"></line><line x1="89.34895833333333" y1="0" x2="89.34895833333333" y2="5" style="visibility: inherit;" fill="rgb(0, 0, 0)" stroke="rgb(204, 204, 204)" stroke-width="1px"></line><line x1="111.68619791666667" y1="0" x2="111.68619791666667" y2="5" style="visibility: inherit;" fill="rgb(0, 0, 0)" stroke="rgb(204, 204, 204)" stroke-width="1px"></line><line x1="134.0234375" y1="0" x2="134.0234375" y2="5" style="visibility: inherit;" fill="rgb(0, 0, 0)" stroke="rgb(204, 204, 204)" stroke-width="1px"></line><line x1="156.36067708333334" y1="0" x2="156.36067708333334" y2="5" style="visibility: inherit;" fill="rgb(0, 0, 0)" stroke="rgb(204, 204, 204)" stroke-width="1px"></line><line x1="178.69791666666666" y1="0" x2="178.69791666666666" y2="5" style="visibility: inherit;" fill="rgb(0, 0, 0)" stroke="rgb(204, 204, 204)" stroke-width="1px"></line><line x1="201.03515625" y1="0" x2="201.03515625" y2="5" style="visibility: inherit;" fill="rgb(0, 0, 0)" stroke="rgb(204, 204, 204)" stroke-width="1px"></line><line x1="223.37239583333334" y1="0" x2="223.37239583333334" y2="5" style="visibility: inherit;" fill="rgb(0, 0, 0)" stroke="rgb(204, 204, 204)" stroke-width="1px"></line><line x1="245.70963541666666" y1="0" x2="245.70963541666666" y2="5" style="visibility: inherit;" fill="rgb(0, 0, 0)" stroke="rgb(204, 204, 204)" stroke-width="1px"></line><line x1="268.046875" y1="0" x2="268.046875" y2="5" style="visibility: inherit;" fill="rgb(0, 0, 0)" stroke="rgb(204, 204, 204)" stroke-width="1px"></line></g><g transform="translate(0, 8)"><text x="0" y="0" dx="0em" dy="0.95em" style="text-anchor: middle; visibility: hidden; font-family: Roboto, sans-serif; font-size: 12px; font-weight: 200;" fill="rgb(33, 33, 33)" stroke="none" stroke-width="1px">-100k</text><text x="22.337239583333332" y="0" dx="0em" dy="0.95em" style="text-anchor: middle; visibility: inherit; font-family: Roboto, sans-serif; font-size: 12px; font-weight: 200;" fill="rgb(33, 33, 33)" stroke="none" stroke-width="1px">0</text><text x="44.674479166666664" y="0" dx="0em" dy="0.95em" style="text-anchor: middle; visibility: hidden; font-family: Roboto, sans-serif; font-size: 12px; font-weight: 200;" fill="rgb(33, 33, 33)" stroke="none" stroke-width="1px">100k</text><text x="67.01171875" y="0" dx="0em" dy="0.95em" style="text-anchor: middle; visibility: inherit; font-family: Roboto, sans-serif; font-size: 12px; font-weight: 200;" fill="rgb(33, 33, 33)" stroke="none" stroke-width="1px">200k</text><text x="89.34895833333333" y="0" dx="0em" dy="0.95em" style="text-anchor: middle; visibility: hidden; font-family: Roboto, sans-serif; font-size: 12px; font-weight: 200;" fill="rgb(33, 33, 33)" stroke="none" stroke-width="1px">300k</text><text x="111.68619791666667" y="0" dx="0em" dy="0.95em" style="text-anchor: middle; visibility: inherit; font-family: Roboto, sans-serif; font-size: 12px; font-weight: 200;" fill="rgb(33, 33, 33)" stroke="none" stroke-width="1px">400k</text><text x="134.0234375" y="0" dx="0em" dy="0.95em" style="text-anchor: middle; visibility: hidden; font-family: Roboto, sans-serif; font-size: 12px; font-weight: 200;" fill="rgb(33, 33, 33)" stroke="none" stroke-width="1px">500k</text><text x="156.36067708333334" y="0" dx="0em" dy="0.95em" style="text-anchor: middle; visibility: inherit; font-family: Roboto, sans-serif; font-size: 12px; font-weight: 200;" fill="rgb(33, 33, 33)" stroke="none" stroke-width="1px">600k</text><text x="178.69791666666666" y="0" dx="0em" dy="0.95em" style="text-anchor: middle; visibility: hidden; font-family: Roboto, sans-serif; font-size: 12px; font-weight: 200;" fill="rgb(33, 33, 33)" stroke="none" stroke-width="1px">700k</text><text x="201.03515625" y="0" dx="0em" dy="0.95em" style="text-anchor: middle; visibility: inherit; font-family: Roboto, sans-serif; font-size: 12px; font-weight: 200;" fill="rgb(33, 33, 33)" stroke="none" stroke-width="1px">800k</text><text x="223.37239583333334" y="0" dx="0em" dy="0.95em" style="text-anchor: middle; visibility: hidden; font-family: Roboto, sans-serif; font-size: 12px; font-weight: 200;" fill="rgb(33, 33, 33)" stroke="none" stroke-width="1px">900k</text><text x="245.70963541666666" y="0" dx="0em" dy="0.95em" style="text-anchor: middle; visibility: inherit; font-family: Roboto, sans-serif; font-size: 12px; font-weight: 200;" fill="rgb(33, 33, 33)" stroke="none" stroke-width="1px">1M</text><text x="268.046875" y="0" dx="0em" dy="0.95em" style="text-anchor: middle; visibility: hidden; font-family: Roboto, sans-serif; font-size: 12px; font-weight: 200;" fill="rgb(33, 33, 33)" stroke="none" stroke-width="1px">1.1M</text></g><line x1="0" y1="0" x2="268.046875" y2="0" fill="rgb(0, 0, 0)" stroke="rgb(204, 204, 204)" stroke-width="1px"></line></g></g></g></g></svg>