<svg viewBox="0 0 330 200" xmlns="http://www.w3.org/2000/svg"><g><g><g><g><g><line x1="72.34375" y1="177" x2="67.34375" y2="177" style="visibility: inherit;" fill="rgb(0, 0, 0)" stroke="rgb(204, 204, 204)" stroke-width="1px"></line><line x1="72.34375" y1="159.3" x2="67.34375" y2="159.3" style="visibility: inherit;" fill="rgb(0, 0, 0)" stroke="rgb(204, 204, 204)" stroke-width="1px"></line><line x1="72.34375" y1="141.6" x2="67.34375" y2="141.6" style="visibility: inherit;" fill="rgb(0, 0, 0)" stroke="rgb(204, 204, 204)" stroke-width="1px"></line><line x1="72.34375" y1="123.89999999999999" x2="67.34375" y2="123.89999999999999" style="visibility: inherit;" fill="rgb(0, 0, 0)" stroke="rgb(204, 204, 204)" stroke-width="1px"></line><line x1="72.34375" y1="106.20000000000002" x2="67.34375" y2="106.20000000000002" style="visibility: inherit;" fill="rgb(0, 0, 0)" stroke="rgb(204, 204, 204)" stroke-width="1px"></line><line x1="72.34375" y1="88.49999999999999" x2="67.34375" y2="88.49999999999999" style="visibility: inherit;" fill="rgb(0, 0, 0)" stroke="rgb(204, 204, 204)" stroke-width="1px"></line><line x1="72.34375" y1="70.8" x2="67.34375" y2="70.8" style="visibility: inherit;" fill="rgb(0, 0, 0)" stroke="rgb(204, 204, 204)" stroke-width="1px"></line><line x1="72.34375" y1="53.09999999999999" x2="67.34375" y2="53.09999999999999" style="visibility: inherit;" fill="rgb(0, 0, 0)" stroke="rgb(204, 204, 204)" stroke-width="1px"></line><line x1="72.34375" y1="35.39999999999997" x2="67.34375" y2="35.39999999999997" style="visibility: inherit;" fill="rgb(0, 0, 0)" stroke="rgb(204, 204, 204)" stroke-width="1px"></line><line x1="72.34375" y1="17.699999999999957" x2="67.34375" y2="17.699999999999957" style="visibility: inherit;" fill="rgb(0, 0, 0)" stroke="rgb(204, 204, 204)" stroke-width="1px"></line><line x1="72.34375" y1="0" x2="67.34375" y2="0" style="visibility: inherit;" fill="rgb(0, 0, 0)" stroke="rgb(204, 204, 204)" stroke-width="1px"></line></g><g transform="translate(62.34375, 0)"><text x="0" y="177" dx="0em" dy="0.3em" style="text-anchor: end; visibility: hidden; font-family: Roboto, sans-serif; font-size: 12px; font-weight: 200;" fill="rgb(33, 33, 33)" stroke="none" stroke-width="1px">2.5e-3</text><text x="0" y="159.3" dx="0em" dy="0.3em" style="text-anchor: end; visibility: inherit; font-family: Roboto, sans-serif; font-size: 12px; font-weight: 200;" fill="rgb(33, 33, 33)" stroke="none" stroke-width="1px">3e-3</text><text x="0" y="141.6" dx="0em" dy="0.3em" style="text-anchor: end; visibility: hidden; font-family: Roboto, sans-serif; font-size: 12px; font-weight: 200;" fill="rgb(33, 33, 33)" stroke="none" stroke-width="1px">3.5e-3</text><text x="0" y="123.89999999999999" dx="0em" dy="0.3em" style="text-anchor: end; visibility: inherit; font-family: Roboto, sans-serif; font-size: 12px; font-weight: 200;" fill="rgb(33, 33, 33)" stroke="none" stroke-width="1px">4e-3</text><text x="0" y="106.20000000000002" dx="0em" dy="0.3em" style="text-anchor: end; visibility: hidden; font-family: Roboto, sans-serif; font-size: 12px; font-weight: 200;" fill="rgb(33, 33, 33)" stroke="none" stroke-width="1px">4.5e-3</text><text x="0" y="88.49999999999999" dx="0em" dy="0.3em" style="text-anchor: end; visibility: inherit; font-family: Roboto, sans-serif; font-size: 12px; font-weight: 200;" fill="rgb(33, 33, 33)" stroke="none" stroke-width="1px">5e-3</text><text x="0" y="70.8" dx="0em" dy="0.3em" style="text-anchor: end; visibility: hidden; font-family: Roboto, sans-serif; font-size: 12px; font-weight: 200;" fill="rgb(33, 33, 33)" stroke="none" stroke-width="1px">5.5e-3</text><text x="0" y="53.09999999999999" dx="0em" dy="0.3em" style="text-anchor: end; visibility: inherit; font-family: Roboto, sans-serif; font-size: 12px; font-weight: 200;" fill="rgb(33, 33, 33)" stroke="none" stroke-width="1px">6e-3</text><text x="0" y="35.39999999999997" dx="0em" dy="0.3em" style="text-anchor: end; visibility: hidden; font-family: Roboto, sans-serif; font-size: 12px; font-weight: 200;" fill="rgb(33, 33, 33)" stroke="none" stroke-width="1px">6.5e-3</text><text x="0" y="17.699999999999957" dx="0em" dy="0.3em" style="text-anchor: end; visibility: inherit; font-family: Roboto, sans-serif; font-size: 12px; font-weight: 200;" fill="rgb(33, 33, 33)" stroke="none" stroke-width="1px">7e-3</text><text x="0" y="0" dx="0em" dy="0.3em" style="text-anchor: end; visibility: hidden; font-family: Roboto, sans-serif; font-size: 12px; font-weight: 200;" fill="rgb(33, 33, 33)" stroke="none" stroke-width="1px">7.5e-3</text></g><line x1="72.34375" y1="0" x2="72.34375" y2="177" fill="rgb(0, 0, 0)" stroke="rgb(204, 204, 204)" stroke-width="1px"></line></g></g><g transform="translate(72, 0)" clip-path="url(#clip_0)"><clipPath id="clip_0"><rect width="257" height="177"></rect></clipPath><g><g><g><line x1="0" y1="0" x2="0" y2="177" fill="rgb(0, 0, 0)" stroke="rgb(66, 66, 66)" stroke-width="1px" opacity="0.25"></line><line x1="21.471354166666664" y1="0" x2="21.471354166666664" y2="177" fill="rgb(0, 0, 0)" stroke="rgb(66, 66, 66)" stroke-width="1px" opacity="0.25"></line><line x1="42.94270833333333" y1="0" x2="42.94270833333333" y2="177" fill="rgb(0, 0, 0)" stroke="rgb(66, 66, 66)" stroke-width="1px" opacity="0.25"></line><line x1="64.4140625" y1="0" x2="64.4140625" y2="177" fill="rgb(0, 0, 0)" stroke="rgb(66, 66, 66)" stroke-width="1px" opacity="0.25"></line><line x1="85.88541666666666" y1="0" x2="85.88541666666666" y2="177" fill="rgb(0, 0, 0)" stroke="rgb(66, 66, 66)" stroke-width="1px" opacity="0.25"></line><line x1="107.35677083333334" y1="0" x2="107.35677083333334" y2="177" fill="rgb(0, 0, 0)" stroke="rgb(66, 66, 66)" stroke-width="1px" opacity="0.25"></line><line x1="128.828125" y1="0" x2="128.828125" y2="177" fill="rgb(0, 0, 0)" stroke="rgb(66, 66, 66)" stroke-width="1px" opacity="0.25"></line><line x1="150.29947916666669" y1="0" x2="150.29947916666669" y2="177" fill="rgb(0, 0, 0)" stroke="rgb(66, 66, 66)" stroke-width="1px" opacity="0.25"></line><line x1="171.77083333333331" y1="0" x2="171.77083333333331" y2="177" fill="rgb(0, 0, 0)" stroke="rgb(66, 66, 66)" stroke-width="1px" opacity="0.25"></line><line x1="193.2421875" y1="0" x2="193.2421875" y2="177" fill="rgb(0, 0, 0)" stroke="rgb(66, 66, 66)" stroke-width="1px" opacity="0.25"></line><line x1="214.71354166666669" y1="0" x2="214.71354166666669" y2="177" fill="rgb(0, 0, 0)" stroke="rgb(66, 66, 66)" stroke-width="1px" opacity="0.25"></line><line x1="236.18489583333331" y1="0" x2="236.18489583333331" y2="177" fill="rgb(0, 0, 0)" stroke="rgb(66, 66, 66)" stroke-width="1px" opacity="0.25"></line><line x1="257.65625" y1="0" x2="257.65625" y2="177" fill="rgb(0, 0, 0)" stroke="rgb(66, 66, 66)" stroke-width="1px" opacity="0.25"></line></g><g><line x1="0" y1="177" x2="257.65625" y2="177" fill="rgb(0, 0, 0)" stroke="rgb(66, 66, 66)" stroke-width="1px" opacity="0.25"></line><line x1="0" y1="159.3" x2="257.65625" y2="159.3" fill="rgb(0, 0, 0)" stroke="rgb(66, 66, 66)" stroke-width="1px" opacity="0.25"></line><line x1="0" y1="141.6" x2="257.65625" y2="141.6" fill="rgb(0, 0, 0)" stroke="rgb(66, 66, 66)" stroke-width="1px" opacity="0.25"></line><line x1="0" y1="123.89999999999999" x2="257.65625" y2="123.89999999999999" fill="rgb(0, 0, 0)" stroke="rgb(66, 66, 66)" stroke-width="1px" opacity="0.25"></line><line x1="0" y1="106.20000000000002" x2="257.65625" y2="106.20000000000002" fill="rgb(0, 0, 0)" stroke="rgb(66, 66, 66)" stroke-width="1px" opacity="0.25"></line><line x1="0" y1="88.49999999999999" x2="257.65625" y2="88.49999999999999" fill="rgb(0, 0, 0)" stroke="rgb(66, 66, 66)" stroke-width="1px" opacity="0.25"></line><line x1="0" y1="70.8" x2="257.65625" y2="70.8" fill="rgb(0, 0, 0)" stroke="rgb(66, 66, 66)" stroke-width="1px" opacity="0.25"></line><line x1="0" y1="53.09999999999999" x2="257.65625" y2="53.09999999999999" fill="rgb(0, 0, 0)" stroke="rgb(66, 66, 66)" stroke-width="1px" opacity="0.25"></line><line x1="0" y1="35.39999999999997" x2="257.65625" y2="35.39999999999997" fill="rgb(0, 0, 0)" stroke="rgb(66, 66, 66)" stroke-width="1px" opacity="0.25"></line><line x1="0" y1="17.699999999999957" x2="257.65625" y2="17.699999999999957" fill="rgb(0, 0, 0)" stroke="rgb(66, 66, 66)" stroke-width="1px" opacity="0.25"></line><line x1="0" y1="0" x2="257.65625" y2="0" fill="rgb(0, 0, 0)" stroke="rgb(66, 66, 66)" stroke-width="1px" opacity="0.25"></line></g></g></g><g><g><line x1="0" y1="265.5" x2="257.65625" y2="265.5" fill="rgb(0, 0, 0)" stroke="rgb(153, 153, 153)" stroke-width="1.5px"></line></g></g><g><g><line x1="21.471354166666664" y1="0" x2="21.471354166666664" y2="177" fill="rgb(0, 0, 0)" stroke="rgb(153, 153, 153)" stroke-width="1.5px"></line></g></g><g><g><g><g><g><path stroke="rgb(204, 51, 17)" stroke-width="2px" d="M22.350820833333334,6.854437731206417L23.2302875,55.71675187395881L24.109754166666665,24.418239712258938L24.989220833333334,41.80020423436207L25.8686875,29.687056631157485L26.748154166666666,41.16856496412678L27.62762083333333,19.97092784592262L28.5070875,36.16602828856554L29.38655416666667,35.868305457216316L30.266020833333332,48.295809506698525L31.1454875,47.492314732335196L32.02495416666667,15.287471007147635L32.90442083333333,68.35960813406832L33.7838875,59.014483287043774L34.663354166666664,59.65219793833318L35.54282083333333,77.72434379292739L36.4222875,74.25388023339526L37.30175416666667,82.03276648227427L38.181220833333334,98.56723120146363L39.0606875,110.36767096918565L39.940154166666666,46.858266118043026L40.81962083333333,80.21621062205257L41.699087500000005,36.69439409211899L42.57855416666667,54.610700578596685L43.45802083333333,48.69553484134967L44.3374875,-20.57918285444284L45.21695416666667,-39.55391722218438L46.09642083333333,5.688203429609965L46.975887500000006,12.571051704992897L47.855354166666665,22.76683189107774L48.73482083333333,37.0772226413945L49.6142875,25.199009268019925L50.49375416666667,50.28796723098981L51.37322083333333,53.56532048949741L52.2526875,0.5518142930967543L53.132154166666666,15.544638415978596L54.01162083333333,42.283399673360854L54.891087500000005,40.81894729014347L55.77055416666666,19.712546960037418L56.65002083333333,59.238096999624496L57.5294875,24.17111697811626L58.40895416666667,15.085983279557421L59.28842083333333,17.655366167101892L60.1678875,62.44438510399561L61.047354166666665,52.532440874508914L61.92682083333333,69.55990586448523L62.8062875,73.94255890426834L63.68575416666666,48.29478136230222L64.56522083333334,65.43582227717312L65.4446875,82.68744406201756L66.32415416666666,84.70846913218477L67.20362083333333,106.44311249387617L68.08308749999999,78.10218841358454L68.96255416666668,58.08479161572999L69.84202083333334,68.98013957449012L70.7214875,98.9339071146256L71.60095416666667,64.206090492396L72.48042083333333,94.43641336554013L73.3598875,72.85639810588016L74.23935416666667,85.60022483036613L75.11882083333333,94.99913010308588L75.9982875,82.15606094336155L76.87775416666666,73.06646535805244L77.75722083333334,91.75448188639518L78.63668750000001,98.08306015406153L79.51615416666667,94.5960498385078L80.39562083333334,90.46948947652854L81.2750875,75.78981516596478L82.15455416666667,63.54696293823004L83.03402083333333,56.124988129151326L83.9134875,78.2757544743493L84.79295416666668,65.2984856621906L85.67242083333333,87.48842974045782L86.55188749999999,99.40169612490482L87.43135416666667,66.74618960573282L88.31082083333332,77.52163869532353L89.19028750000001,88.57094551260714L90.06975416666667,92.51769194534684L90.94922083333333,60.27254805881538L91.8286875,66.19292956095191L92.70815416666666,96.6024486929253L93.58762083333333,79.55545468837468L94.4670875,97.34444432384042L95.34655416666666,99.79129350886505L96.22602083333334,114.99005900297023L97.1054875,121.47798453106554L97.98495416666667,102.86198411186976L98.86442083333333,73.14333495974802L99.7438875,89.75767098802484L100.62335416666667,87.59190090708825L101.50282083333333,71.40000784524017L102.3822875,54.045080079899606L103.26175416666666,20.212254586378563L104.14122083333334,61.23910599652517L105.02068750000001,85.62637367518893L105.90015416666667,34.37121519847006L106.77962083333334,77.65880179496583L107.6590875,93.88809181953653L108.53855416666666,78.12756792280187L109.41802083333334,83.28510467006627L110.2974875,79.56049463626069L111.17695416666668,88.11757702962353L112.05642083333333,88.49564570984721L112.93588749999999,120.49740621180226L113.81535416666667,66.83234116870693L114.69482083333334,82.93314968608935L115.5742875,102.09280218668653L116.45375416666667,91.47146795980854L117.33322083333333,100.28593858654929L118.2126875,96.26601994082712L119.09215416666666,82.8698340925299L119.97162083333333,66.48896727399362L120.8510875,65.76645481101471L121.73055416666666,51.86149220622657L122.61002083333334,44.589427607995724L123.4894875,77.6256414385095L124.36895416666665,87.63946254291858L125.24842083333334,66.43817995481925L126.1278875,83.01110296096348L127.00735416666667,81.20951713261572L127.88682083333333,82.911180127487L128.7662875,107.26016925354325L129.64575416666668,95.66121095317318L130.52522083333332,89.08292255340643L131.4046875,95.27399986856358L132.28415416666667,106.45423753931033L133.16362083333334,108.26993925645294L134.0430875,84.10554813757147L134.92255416666666,96.25324941077594L135.80202083333333,108.62804243504267L136.68148749999997,120.09666919880667L137.56095416666668,78.1721769030306L138.44042083333335,38.06556157502015L139.3198875,21.965091954067237L140.19935416666667,35.18579047941858L141.0788208333333,48.09611884667688L141.9582875,43.118936433876826L142.83775416666668,69.219341298631L143.71722083333333,112.46376437884042L144.5966875,58.7769390341131L145.47615416666665,63.54482753702926L146.35562083333335,77.36078273879842L147.2350875,83.04564770983075L148.11455416666666,105.68022357032547L148.99402083333334,82.24146895024687L149.87348749999998,110.97294348873803L150.75295416666668,106.54903918742005L151.63242083333333,60.68881515257873L152.5118875,53.632226545174845L153.39135416666667,105.06125830326076L154.27082083333332,71.41146382518765L155.15028750000002,88.88425618605707L156.02975416666666,93.7306591552311L156.90922083333334,95.47795234661181L157.7886875,71.49214779162931L158.66815416666665,91.13936194374877L159.54762083333335,112.88553981837462L160.4270875,99.84819815073507L161.30655416666667,119.43813982614334L162.18602083333332,94.87656151508365L163.0654875,62.40376133325741L163.9449541666667,73.02334291847374L164.82442083333333,67.7906280017604L165.7038875,85.69001142422614L166.58335416666665,99.32081569725429L167.46282083333332,75.76648674305767L168.34228750000003,54.74171157268577L169.22175416666667,80.4727019821876L170.10122083333334,84.19887266488513L170.9806875,87.16038362790134L171.86015416666666,91.76908098822226L172.73962083333333,109.27245612541074L173.6190875,93.90218719899197L174.49855416666668,91.62655603623116L175.37802083333332,90.48403996220661L176.2574875,82.14773339773079L177.13695416666667,85.09331409481084L178.01642083333334,98.39639298675606L178.89588750000001,100.42231105004637L179.77535416666666,106.21489008060031L180.65482083333333,74.8333885850962L181.5342875,75.12719404145811L182.41375416666668,81.13856267747123L183.29322083333332,90.72680462191606L184.1726875,122.02501948648755L185.05215416666667,127.19564630373755L185.9316208333333,104.61245058944486L186.8110875,112.26402246785561L187.69055416666666,96.60005064804791L188.57002083333333,104.55810239314697L189.4494875,114.7291576632837L190.32895416666665,112.49357424491522L191.20842083333335,128.7767416868441L192.0878875,131.52628158532576L192.96735416666667,125.51638614835142L193.84682083333334,107.75131694198726L194.72628749999998,122.03972811234644L195.60575416666669,111.46418134410767L196.48522083333333,102.82787641608469L197.3646875,103.1578799872026L198.24415416666665,102.05000039121063L199.12362083333332,107.2879045124683L200.00308750000002,120.7438672701021L200.88255416666667,103.97246591416L201.76202083333334,109.41217708091139L202.64148749999998,93.04214885532973L203.52095416666666,87.18345873177121L204.40042083333336,102.01660576236291L205.2798875,105.18806934220815L206.15935416666667,98.37638524540202L207.03882083333332,129.93297400693854L207.9182875,123.7921753652141L208.79775416666666,115.94891042722733L209.67722083333334,134.23879512824695L210.5566875,106.93585439430524L211.43615416666665,112.69344985280544L212.31562083333333,121.3234985130674L213.1950875,146.52372894928732L214.07455416666667,130.27427317348648L214.95402083333335,139.95076755745725L215.8334875,148.44259432070564L216.71295416666666,123.63870678462452L217.59242083333334,149.64024200360694L218.4718875,148.53682516557407L219.35135416666668,149.35971705193776L220.23082083333333,169.14521604821363L221.1102875,131.27846910533472L221.98975416666667,138.78712899075248L222.86922083333334,143.22873466364322L223.7486875,155.24175946877466L224.62815416666666,162.64507615248004L225.50762083333333,170.94040569695613L226.3870875,176.00672473554482L227.26655416666668,173.11888072740834L228.14602083333332,175.82102448255898L229.0254875,186.99283035851167" style="fill: none;" fill="none"></path></g></g></g></g><g opacity="0.2"><g><g><g><path stroke="rgb(204, 51, 17)" stroke-width="2px" d="M22.350820833333334,6.854437731206417L23.2302875,85.0341403596103L24.109754166666665,-5.628331962972879L24.989220833333334,62.241394512355306L25.8686875,13.872131120413542L26.748154166666666,57.051624331623294L27.62762083333333,-10.34203239530325L28.5070875,59.7786402069032L29.38655416666667,35.429222110658884L30.266020833333332,66.74920466914772L31.1454875,46.29436020925639L32.02495416666667,-32.84453724324703L32.90442083333333,147.79452408850193L33.7838875,45.015104088932254L34.663354166666664,60.608020305633524L35.54282083333333,104.81981669738889L36.4222875,69.04965347796677L37.30175416666667,93.69912079721689L38.181220833333334,123.3664094209671L39.0606875,128.06725201383233L39.940154166666666,-48.402358151972294L40.81962083333333,130.25202972069383L41.699087500000005,-28.587471440434456L42.57855416666667,81.48494807258247L43.45802083333333,39.8228282779455L44.3374875,-124.490963973105L45.21695416666667,-68.015970222652L46.09642083333333,73.5513149499893L46.975887500000006,22.895317777991295L47.855354166666665,38.0604965351522L48.73482083333333,58.54280402138827L49.6142875,7.381691571325064L50.49375416666667,87.92140118032692L51.37322083333333,58.481350142508724L52.2526875,-78.96844272315506L53.132154166666666,38.033874213695526L54.01162083333333,82.39154114574193L54.891087500000005,38.62226872891188L55.77055416666666,-11.947053417563438L56.65002083333333,118.52642192691565L57.5294875,-28.42935298383236L58.40895416666667,1.4582827426493168L59.28842083333333,21.50944049656391L60.1678875,129.62791348993778L61.047354166666665,37.66452453285456L61.92682083333333,95.10110334679484L62.8062875,80.51653846353291L63.68575416666666,9.823115050792694L64.56522083333334,91.14738364890218L65.4446875,108.56487673893571L66.32415416666666,87.74000673741101L67.20362083333333,139.04507753625512L68.08308749999999,35.590802293270826L68.96255416666668,28.058696419000626L69.84202083333334,85.32316151261328L70.7214875,143.86455842480063L71.60095416666667,12.114365559071302L72.48042083333333,139.781897675246L73.3598875,40.48637521639464L74.23935416666667,104.71596491709352L75.11882083333333,109.09748801216483L75.9982875,62.89145720377562L76.87775416666666,59.43207198008893L77.75722083333334,119.78650667890906L78.63668750000001,107.57592755556107L79.51615416666667,89.36553436517715L80.39562083333334,84.27964893355964L81.2750875,53.770303700119236L82.15455416666667,45.18268459662793L83.03402083333333,44.99202591553328L83.9134875,111.50190399214625L84.79295416666668,45.83258244395254L85.67242083333333,120.77334585785866L86.55188749999999,117.27159570157528L87.43135416666667,17.76292982697487L88.31082083333332,93.68481232970953L89.19028750000001,105.14490573853254L90.06975416666667,98.43781159445643L90.94922083333333,11.904832229018211L91.8286875,75.07350181415676L92.70815416666666,142.21672739088535L93.58762083333333,53.98496368154881L94.4670875,124.02792877703905L95.34655416666666,103.46156728640199L96.22602083333334,137.788207244128L97.1054875,131.20987282320857L97.98495416666667,74.93798348307608L98.86442083333333,28.565361231565475L99.7438875,114.67917503044009L100.62335416666667,84.34324578568338L101.50282083333333,47.11216825246809L102.3822875,28.01268843188882L103.26175416666666,-30.536983653903008L104.14122083333334,122.77938311174512L105.02068750000001,122.20727519318461L105.90015416666667,-42.51152251660824L106.77962083333334,142.59018168970942L107.6590875,118.23202685639262L108.53855416666666,54.48678207769988L109.41802083333334,91.02140979096293L110.2974875,73.9735795855522L111.17695416666668,100.95320061966777L112.05642083333333,89.06274873018265L112.93588749999999,168.5000469647348L113.81535416666667,-13.665256395936012L114.69482083333334,107.08436246216297L115.5742875,130.83228093758225L116.45375416666667,75.53946661949156L117.33322083333333,113.50764452666044L118.2126875,90.23614197224379L119.09215416666666,62.775555320084074L119.97162083333333,41.91766704618929L120.8510875,64.68268611654638L121.73055416666666,31.00404829904437L122.61002083333334,33.68133071064949L123.4894875,127.17996218428016L124.36895416666665,102.66019419953227L125.24842083333334,34.63625607267022L126.1278875,107.8704874701798L127.00735416666667,78.50713839009403L127.88682083333333,85.46367461979388L128.7662875,143.78365294262767L129.64575416666668,78.26277350261806L130.52522083333332,79.21548995375632L131.4046875,104.5606158412993L132.28415416666667,123.22459404543042L133.16362083333334,110.99349183216691L134.0430875,47.85896145924924L134.92255416666666,114.47480132058263L135.80202083333333,127.1902319714427L136.68148749999997,137.29960934445262L137.56095416666668,15.28543845936656L138.44042083333335,-22.094361416995525L139.3198875,-2.185612477362156L140.19935416666667,55.01683826744554L141.0788208333333,67.4616113975644L141.9582875,35.65316281467676L142.83775416666668,108.36994859576225L143.71722083333333,177.33039899915457L144.5966875,-21.753298982977867L145.47615416666665,70.69666029140352L146.35562083333335,98.08471554145217L147.2350875,91.57294516637921L148.11455416666666,139.63208736106753L148.99402083333334,47.083337020128944L149.87348749999998,154.0701552964747L150.75295416666668,99.91318273544312L151.63242083333333,-8.101520899683237L152.5118875,43.047343634068945L153.39135416666667,182.20480594038963L154.27082083333332,20.936772108078003L155.15028750000002,115.0934447273612L156.02975416666666,101.0002636089921L156.90922083333334,98.09889213368297L157.7886875,35.51344095915556L158.66815416666665,120.61018317192793L159.54762083333335,145.5048066303134L160.4270875,80.29218564927577L161.30655416666667,148.8230523392558L162.18602083333332,58.03419404849408L163.0654875,13.694561060518026L163.9449541666667,88.95271529629827L164.82442083333333,59.941555626690366L165.7038875,112.53908655792475L166.58335416666665,119.7670221067965L167.46282083333332,40.43499331176279L168.34228750000003,23.204548817127943L169.22175416666667,119.06918759644032L170.10122083333334,89.78812868893147L170.9806875,91.6026500724256L171.86015416666666,98.68212702870369L172.73962083333333,135.52751883119345L173.6190875,70.84678380936383L174.49855416666668,88.21310929208992L175.37802083333332,88.77026585116982L176.2574875,69.64327355101703L177.13695416666667,89.51168514043093L178.01642083333334,118.35101132467389L178.89588750000001,103.46118814498186L179.77535416666666,114.90375862643123L180.65482083333333,27.76113634184003L181.5342875,75.56790222600101L182.41375416666668,90.15561563149095L183.29322083333332,105.10916753858328L184.1726875,168.97234178334475L185.05215416666667,134.95158652961254L185.9316208333333,70.73765701800583L186.8110875,123.74138028547168L187.69055416666666,73.10409291833638L188.57002083333333,116.4951800107956L189.4494875,129.98574056848884L190.32895416666665,109.1401991173625L191.20842083333335,153.2014928497374L192.0878875,135.65059143304825L192.96735416666667,116.50154299288988L193.84682083333334,81.10371313244103L194.72628749999998,143.4723448678851L195.60575416666669,95.60086119174957L196.48522083333333,89.87341902405024L197.3646875,103.65288534387946L198.24415416666665,100.38818099722266L199.12362083333332,115.14476069435477L200.00308750000002,140.9278114065528L200.88255416666667,78.81536388024686L201.76202083333334,117.57174383103848L202.64148749999998,68.48710651695727L203.52095416666666,78.39542354643343L204.40042083333336,124.26632630825043L205.2798875,109.94526471197605L206.15935416666667,88.15885910019277L207.03882083333332,177.26785714924335L207.9182875,114.58097740262747L208.79775416666666,104.18401302024722L209.67722083333334,161.67362217977643L210.5566875,65.98144329339264L211.43615416666665,121.32984304055572L212.31562083333333,134.2685715034604L213.1950875,184.3240746036172L214.07455416666667,105.90008950978518L214.95402083333335,154.46550913341343L215.8334875,161.1803344655782L216.71295416666666,86.43287548050283L217.59242083333334,188.6425448320806L218.4718875,146.88169990852475L219.35135416666668,150.59405488148332L220.23082083333333,198.82346454262733L221.1102875,74.47834869101642L221.98975416666667,150.05011881887913L222.86922083333334,149.89114317297935L223.7486875,173.26129667647183L224.62815416666666,173.75005117803812L225.50762083333333,183.38340001367033L226.3870875,183.60620329342782L227.26655416666668,168.78711471520364L228.14602083333332,179.87424011528492L229.0254875,203.75053917244077L229.90495416666667,172.2716716323048L230.78442083333334,234.4248438924551" style="fill: none;" fill="none"></path></g></g></g></g></g><g><g opacity="0.42212"><span fill="rgb(0, 0, 0)" stroke="none" stroke-width="1px">Alt + Scroll to Zoom</span></g></g></g><g transform="translate(72, 177)" clip-path="url(#clip_1)"><clipPath id="clip_1"><rect width="257" height="23"></rect></clipPath><g><g><line x1="0" y1="0" x2="0" y2="5" style="visibility: inherit;" fill="rgb(0, 0, 0)" stroke="rgb(204, 204, 204)" stroke-width="1px"></line><line x1="21.471354166666664" y1="0" x2="21.471354166666664" y2="5" style="visibility: inherit;" fill="rgb(0, 0, 0)" stroke="rgb(204, 204, 204)" stroke-width="1px"></line><line x1="42.94270833333333" y1="0" x2="42.94270833333333" y2="5" style="visibility: inherit;" fill="rgb(0, 0, 0)" stroke="rgb(204, 204, 204)" stroke-width="1px"></line><line x1="64.4140625" y1="0" x2="64.4140625" y2="5" style="visibility: inherit;" fill="rgb(0, 0, 0)" stroke="rgb(204, 204, 204)" stroke-width="1px"></line><line x1="85.88541666666666" y1="0" x2="85.88541666666666" y2="5" style="visibility: inherit;" fill="rgb(0, 0, 0)" stroke="rgb(204, 204, 204)" stroke-width="1px"></line><line x1="107.35677083333334" y1="0" x2="107.35677083333334" y2="5" style="visibility: inherit;" fill="rgb(0, 0, 0)" stroke="rgb(204, 204, 204)" stroke-width="1px"></line><line x1="128.828125" y1="0" x2="128.828125" y2="5" style="visibility: inherit;" fill="rgb(0, 0, 0)" stroke="rgb(204, 204, 204)" stroke-width="1px"></line><line x1="150.29947916666669" y1="0" x2="150.29947916666669" y2="5" style="visibility: inherit;" fill="rgb(0, 0, 0)" stroke="rgb(204, 204, 204)" stroke-width="1px"></line><line x1="171.77083333333331" y1="0" x2="171.77083333333331" y2="5" style="visibility: inherit;" fill="rgb(0, 0, 0)" stroke="rgb(204, 204, 204)" stroke-width="1px"></line><line x1="193.2421875" y1="0" x2="193.2421875" y2="5" style="visibility: inherit;" fill="rgb(0, 0, 0)" stroke="rgb(204, 204, 204)" stroke-width="1px"></line><line x1="214.71354166666669" y1="0" x2="214.71354166666669" y2="5" style="visibility: inherit;" fill="rgb(0, 0, 0)" stroke="rgb(204, 204, 204)" stroke-width="1px"></line><line x1="236.18489583333331" y1="0" x2="236.18489583333331" y2="5" style="visibility: inherit;" fill="rgb(0, 0, 0)" stroke="rgb(204, 204, 204)" stroke-width="1px"></line><line x1="257.65625" y1="0" x2="257.65625" y2="5" style="visibility: inherit;" fill="rgb(0, 0, 0)" stroke="rgb(204, 204, 204)" stroke-width="1px"></line></g><g transform="translate(0, 8)"><text x="0" y="0" dx="0em" dy="0.95em" style="text-anchor: middle; visibility: hidden; font-family: Roboto, sans-serif; font-size: 12px; font-weight: 200;" fill="rgb(33, 33, 33)" stroke="none" stroke-width="1px">-100k</text><text x="21.471354166666664" y="0" dx="0em" dy="0.95em" style="text-anchor: middle; visibility: inherit; font-family: Roboto, sans-serif; font-size: 12px; font-weight: 200;" fill="rgb(33, 33, 33)" stroke="none" stroke-width="1px">0</text><text x="42.94270833333333" y="0" dx="0em" dy="0.95em" style="text-anchor: middle; visibility: hidden; font-family: Roboto, sans-serif; font-size: 12px; font-weight: 200;" fill="rgb(33, 33, 33)" stroke="none" stroke-width="1px">100k</text><text x="64.4140625" y="0" dx="0em" dy="0.95em" style="text-anchor: middle; visibility: inherit; font-family: Roboto, sans-serif; font-size: 12px; font-weight: 200;" fill="rgb(33, 33, 33)" stroke="none" stroke-width="1px">200k</text><text x="85.88541666666666" y="0" dx="0em" dy="0.95em" style="text-anchor: middle; visibility: hidden; font-family: Roboto, sans-serif; font-size: 12px; font-weight: 200;" fill="rgb(33, 33, 33)" stroke="none" stroke-width="1px">300k</text><text x="107.35677083333334" y="0" dx="0em" dy="0.95em" style="text-anchor: middle; visibility: inherit; font-family: Roboto, sans-serif; font-size: 12px; font-weight: 200;" fill="rgb(33, 33, 33)" stroke="none" stroke-width="1px">400k</text><text x="128.828125" y="0" dx="0em" dy="0.95em" style="text-anchor: middle; visibility: hidden; font-family: Roboto, sans-serif; font-size: 12px; font-weight: 200;" fill="rgb(33, 33, 33)" stroke="none" stroke-width="1px">500k</text><text x="150.29947916666669" y="0" dx="0em" dy="0.95em" style="text-anchor: middle; visibility: inherit; font-family: Roboto, sans-serif; font-size: 12px; font-weight: 200;" fill="rgb(33, 33, 33)" stroke="none" stroke-width="1px">600k</text><text x="171.77083333333331" y="0" dx="0em" dy="0.95em" style="text-anchor: middle; visibility: hidden; font-family: Roboto, sans-serif; font-size: 12px; font-weight: 200;" fill="rgb(33, 33, 33)" stroke="none" stroke-width="1px">700k</text><text x="193.2421875" y="0" dx="0em" dy="0.95em" style="text-anchor: middle; visibility: inherit; font-family: Roboto, sans-serif; font-size: 12px; font-weight: 200;" fill="rgb(33, 33, 33)" stroke="none" stroke-width="1px">800k</text><text x="214.71354166666669" y="0" dx="0em" dy="0.95em" style="text-anchor: middle; visibility: hidden; font-family: Roboto, sans-serif; font-size: 12px; font-weight: 200;" fill="rgb(33, 33, 33)" stroke="none" stroke-width="1px">900k</text><text x="236.18489583333331" y="0" dx="0em" dy="0.95em" style="text-anchor: middle; visibility: inherit; font-family: Roboto, sans-serif; font-size: 12px; font-weight: 200;" fill="rgb(33, 33, 33)" stroke="none" stroke-width="1px">1M</text><text x="257.65625" y="0" dx="0em" dy="0.95em" style="text-anchor: middle; visibility: hidden; font-family: Roboto, sans-serif; font-size: 12px; font-weight: 200;" fill="rgb(33, 33, 33)" stroke="none" stroke-width="1px">1.1M</text></g><line x1="0" y1="0" x2="257.65625" y2="0" fill="rgb(0, 0, 0)" stroke="rgb(204, 204, 204)" stroke-width="1px"></line></g></g></g></g></svg>