<svg viewBox="0 0 330 200" xmlns="http://www.w3.org/2000/svg"><g><g><g><g><g><line x1="61.953125" y1="177" x2="56.953125" y2="177" style="visibility: inherit;" fill="rgb(0, 0, 0)" stroke="rgb(204, 204, 204)" stroke-width="1px"></line><line x1="61.953125" y1="164.35714285714286" x2="56.953125" y2="164.35714285714286" style="visibility: inherit;" fill="rgb(0, 0, 0)" stroke="rgb(204, 204, 204)" stroke-width="1px"></line><line x1="61.953125" y1="151.71428571428572" x2="56.953125" y2="151.71428571428572" style="visibility: inherit;" fill="rgb(0, 0, 0)" stroke="rgb(204, 204, 204)" stroke-width="1px"></line><line x1="61.953125" y1="139.07142857142856" x2="56.953125" y2="139.07142857142856" style="visibility: inherit;" fill="rgb(0, 0, 0)" stroke="rgb(204, 204, 204)" stroke-width="1px"></line><line x1="61.953125" y1="126.42857142857142" x2="56.953125" y2="126.42857142857142" style="visibility: inherit;" fill="rgb(0, 0, 0)" stroke="rgb(204, 204, 204)" stroke-width="1px"></line><line x1="61.953125" y1="113.78571428571428" x2="56.953125" y2="113.78571428571428" style="visibility: inherit;" fill="rgb(0, 0, 0)" stroke="rgb(204, 204, 204)" stroke-width="1px"></line><line x1="61.953125" y1="101.14285714285714" x2="56.953125" y2="101.14285714285714" style="visibility: inherit;" fill="rgb(0, 0, 0)" stroke="rgb(204, 204, 204)" stroke-width="1px"></line><line x1="61.953125" y1="88.49999999999999" x2="56.953125" y2="88.49999999999999" style="visibility: inherit;" fill="rgb(0, 0, 0)" stroke="rgb(204, 204, 204)" stroke-width="1px"></line><line x1="61.953125" y1="75.85714285714285" x2="56.953125" y2="75.85714285714285" style="visibility: inherit;" fill="rgb(0, 0, 0)" stroke="rgb(204, 204, 204)" stroke-width="1px"></line><line x1="61.953125" y1="63.21428571428569" x2="56.953125" y2="63.21428571428569" style="visibility: inherit;" fill="rgb(0, 0, 0)" stroke="rgb(204, 204, 204)" stroke-width="1px"></line><line x1="61.953125" y1="50.57142857142855" x2="56.953125" y2="50.57142857142855" style="visibility: inherit;" fill="rgb(0, 0, 0)" stroke="rgb(204, 204, 204)" stroke-width="1px"></line><line x1="61.953125" y1="37.92857142857141" x2="56.953125" y2="37.92857142857141" style="visibility: inherit;" fill="rgb(0, 0, 0)" stroke="rgb(204, 204, 204)" stroke-width="1px"></line><line x1="61.953125" y1="25.285714285714256" x2="56.953125" y2="25.285714285714256" style="visibility: inherit;" fill="rgb(0, 0, 0)" stroke="rgb(204, 204, 204)" stroke-width="1px"></line><line x1="61.953125" y1="12.642857142857117" x2="56.953125" y2="12.642857142857117" style="visibility: inherit;" fill="rgb(0, 0, 0)" stroke="rgb(204, 204, 204)" stroke-width="1px"></line><line x1="61.953125" y1="0" x2="56.953125" y2="0" style="visibility: inherit;" fill="rgb(0, 0, 0)" stroke="rgb(204, 204, 204)" stroke-width="1px"></line></g><g transform="translate(51.953125, 0)"><text x="0" y="177" dx="0em" dy="0.3em" style="text-anchor: end; visibility: hidden; font-family: Roboto, sans-serif; font-size: 12px; font-weight: 200;" fill="rgb(33, 33, 33)" stroke="none" stroke-width="1px">5e-3</text><text x="0" y="164.35714285714286" dx="0em" dy="0.3em" style="text-anchor: end; visibility: inherit; font-family: Roboto, sans-serif; font-size: 12px; font-weight: 200;" fill="rgb(33, 33, 33)" stroke="none" stroke-width="1px">0.01</text><text x="0" y="151.71428571428572" dx="0em" dy="0.3em" style="text-anchor: end; visibility: hidden; font-family: Roboto, sans-serif; font-size: 12px; font-weight: 200;" fill="rgb(33, 33, 33)" stroke="none" stroke-width="1px">0.015</text><text x="0" y="139.07142857142856" dx="0em" dy="0.3em" style="text-anchor: end; visibility: inherit; font-family: Roboto, sans-serif; font-size: 12px; font-weight: 200;" fill="rgb(33, 33, 33)" stroke="none" stroke-width="1px">0.02</text><text x="0" y="126.42857142857142" dx="0em" dy="0.3em" style="text-anchor: end; visibility: hidden; font-family: Roboto, sans-serif; font-size: 12px; font-weight: 200;" fill="rgb(33, 33, 33)" stroke="none" stroke-width="1px">0.025</text><text x="0" y="113.78571428571428" dx="0em" dy="0.3em" style="text-anchor: end; visibility: inherit; font-family: Roboto, sans-serif; font-size: 12px; font-weight: 200;" fill="rgb(33, 33, 33)" stroke="none" stroke-width="1px">0.03</text><text x="0" y="101.14285714285714" dx="0em" dy="0.3em" style="text-anchor: end; visibility: hidden; font-family: Roboto, sans-serif; font-size: 12px; font-weight: 200;" fill="rgb(33, 33, 33)" stroke="none" stroke-width="1px">0.035</text><text x="0" y="88.49999999999999" dx="0em" dy="0.3em" style="text-anchor: end; visibility: inherit; font-family: Roboto, sans-serif; font-size: 12px; font-weight: 200;" fill="rgb(33, 33, 33)" stroke="none" stroke-width="1px">0.04</text><text x="0" y="75.85714285714285" dx="0em" dy="0.3em" style="text-anchor: end; visibility: hidden; font-family: Roboto, sans-serif; font-size: 12px; font-weight: 200;" fill="rgb(33, 33, 33)" stroke="none" stroke-width="1px">0.045</text><text x="0" y="63.21428571428569" dx="0em" dy="0.3em" style="text-anchor: end; visibility: inherit; font-family: Roboto, sans-serif; font-size: 12px; font-weight: 200;" fill="rgb(33, 33, 33)" stroke="none" stroke-width="1px">0.05</text><text x="0" y="50.57142857142855" dx="0em" dy="0.3em" style="text-anchor: end; visibility: hidden; font-family: Roboto, sans-serif; font-size: 12px; font-weight: 200;" fill="rgb(33, 33, 33)" stroke="none" stroke-width="1px">0.055</text><text x="0" y="37.92857142857141" dx="0em" dy="0.3em" style="text-anchor: end; visibility: inherit; font-family: Roboto, sans-serif; font-size: 12px; font-weight: 200;" fill="rgb(33, 33, 33)" stroke="none" stroke-width="1px">0.06</text><text x="0" y="25.285714285714256" dx="0em" dy="0.3em" style="text-anchor: end; visibility: hidden; font-family: Roboto, sans-serif; font-size: 12px; font-weight: 200;" fill="rgb(33, 33, 33)" stroke="none" stroke-width="1px">0.065</text><text x="0" y="12.642857142857117" dx="0em" dy="0.3em" style="text-anchor: end; visibility: inherit; font-family: Roboto, sans-serif; font-size: 12px; font-weight: 200;" fill="rgb(33, 33, 33)" stroke="none" stroke-width="1px">0.07</text><text x="0" y="0" dx="0em" dy="0.3em" style="text-anchor: end; visibility: hidden; font-family: Roboto, sans-serif; font-size: 12px; font-weight: 200;" fill="rgb(33, 33, 33)" stroke="none" stroke-width="1px">0.075</text></g><line x1="61.953125" y1="0" x2="61.953125" y2="177" fill="rgb(0, 0, 0)" stroke="rgb(204, 204, 204)" stroke-width="1px"></line></g></g><g transform="translate(61, 0)" clip-path="url(#clip_0)"><clipPath id="clip_0"><rect width="268" height="177"></rect></clipPath><g><g><g><line x1="0" y1="0" x2="0" y2="177" fill="rgb(0, 0, 0)" stroke="rgb(66, 66, 66)" stroke-width="1px" opacity="0.25"></line><line x1="22.337239583333332" y1="0" x2="22.337239583333332" y2="177" fill="rgb(0, 0, 0)" stroke="rgb(66, 66, 66)" stroke-width="1px" opacity="0.25"></line><line x1="44.674479166666664" y1="0" x2="44.674479166666664" y2="177" fill="rgb(0, 0, 0)" stroke="rgb(66, 66, 66)" stroke-width="1px" opacity="0.25"></line><line x1="67.01171875" y1="0" x2="67.01171875" y2="177" fill="rgb(0, 0, 0)" stroke="rgb(66, 66, 66)" stroke-width="1px" opacity="0.25"></line><line x1="89.34895833333333" y1="0" x2="89.34895833333333" y2="177" fill="rgb(0, 0, 0)" stroke="rgb(66, 66, 66)" stroke-width="1px" opacity="0.25"></line><line x1="111.68619791666667" y1="0" x2="111.68619791666667" y2="177" fill="rgb(0, 0, 0)" stroke="rgb(66, 66, 66)" stroke-width="1px" opacity="0.25"></line><line x1="134.0234375" y1="0" x2="134.0234375" y2="177" fill="rgb(0, 0, 0)" stroke="rgb(66, 66, 66)" stroke-width="1px" opacity="0.25"></line><line x1="156.36067708333334" y1="0" x2="156.36067708333334" y2="177" fill="rgb(0, 0, 0)" stroke="rgb(66, 66, 66)" stroke-width="1px" opacity="0.25"></line><line x1="178.69791666666666" y1="0" x2="178.69791666666666" y2="177" fill="rgb(0, 0, 0)" stroke="rgb(66, 66, 66)" stroke-width="1px" opacity="0.25"></line><line x1="201.03515625" y1="0" x2="201.03515625" y2="177" fill="rgb(0, 0, 0)" stroke="rgb(66, 66, 66)" stroke-width="1px" opacity="0.25"></line><line x1="223.37239583333334" y1="0" x2="223.37239583333334" y2="177" fill="rgb(0, 0, 0)" stroke="rgb(66, 66, 66)" stroke-width="1px" opacity="0.25"></line><line x1="245.70963541666666" y1="0" x2="245.70963541666666" y2="177" fill="rgb(0, 0, 0)" stroke="rgb(66, 66, 66)" stroke-width="1px" opacity="0.25"></line><line x1="268.046875" y1="0" x2="268.046875" y2="177" fill="rgb(0, 0, 0)" stroke="rgb(66, 66, 66)" stroke-width="1px" opacity="0.25"></line></g><g><line x1="0" y1="177" x2="268.046875" y2="177" fill="rgb(0, 0, 0)" stroke="rgb(66, 66, 66)" stroke-width="1px" opacity="0.25"></line><line x1="0" y1="164.35714285714286" x2="268.046875" y2="164.35714285714286" fill="rgb(0, 0, 0)" stroke="rgb(66, 66, 66)" stroke-width="1px" opacity="0.25"></line><line x1="0" y1="151.71428571428572" x2="268.046875" y2="151.71428571428572" fill="rgb(0, 0, 0)" stroke="rgb(66, 66, 66)" stroke-width="1px" opacity="0.25"></line><line x1="0" y1="139.07142857142856" x2="268.046875" y2="139.07142857142856" fill="rgb(0, 0, 0)" stroke="rgb(66, 66, 66)" stroke-width="1px" opacity="0.25"></line><line x1="0" y1="126.42857142857142" x2="268.046875" y2="126.42857142857142" fill="rgb(0, 0, 0)" stroke="rgb(66, 66, 66)" stroke-width="1px" opacity="0.25"></line><line x1="0" y1="113.78571428571428" x2="268.046875" y2="113.78571428571428" fill="rgb(0, 0, 0)" stroke="rgb(66, 66, 66)" stroke-width="1px" opacity="0.25"></line><line x1="0" y1="101.14285714285714" x2="268.046875" y2="101.14285714285714" fill="rgb(0, 0, 0)" stroke="rgb(66, 66, 66)" stroke-width="1px" opacity="0.25"></line><line x1="0" y1="88.49999999999999" x2="268.046875" y2="88.49999999999999" fill="rgb(0, 0, 0)" stroke="rgb(66, 66, 66)" stroke-width="1px" opacity="0.25"></line><line x1="0" y1="75.85714285714285" x2="268.046875" y2="75.85714285714285" fill="rgb(0, 0, 0)" stroke="rgb(66, 66, 66)" stroke-width="1px" opacity="0.25"></line><line x1="0" y1="63.21428571428569" x2="268.046875" y2="63.21428571428569" fill="rgb(0, 0, 0)" stroke="rgb(66, 66, 66)" stroke-width="1px" opacity="0.25"></line><line x1="0" y1="50.57142857142855" x2="268.046875" y2="50.57142857142855" fill="rgb(0, 0, 0)" stroke="rgb(66, 66, 66)" stroke-width="1px" opacity="0.25"></line><line x1="0" y1="37.92857142857141" x2="268.046875" y2="37.92857142857141" fill="rgb(0, 0, 0)" stroke="rgb(66, 66, 66)" stroke-width="1px" opacity="0.25"></line><line x1="0" y1="25.285714285714256" x2="268.046875" y2="25.285714285714256" fill="rgb(0, 0, 0)" stroke="rgb(66, 66, 66)" stroke-width="1px" opacity="0.25"></line><line x1="0" y1="12.642857142857117" x2="268.046875" y2="12.642857142857117" fill="rgb(0, 0, 0)" stroke="rgb(66, 66, 66)" stroke-width="1px" opacity="0.25"></line><line x1="0" y1="0" x2="268.046875" y2="0" fill="rgb(0, 0, 0)" stroke="rgb(66, 66, 66)" stroke-width="1px" opacity="0.25"></line></g></g></g><g><g><line x1="0" y1="189.64285714285714" x2="268.046875" y2="189.64285714285714" fill="rgb(0, 0, 0)" stroke="rgb(153, 153, 153)" stroke-width="1.5px"></line></g></g><g><g><line x1="22.337239583333332" y1="0" x2="22.337239583333332" y2="177" fill="rgb(0, 0, 0)" stroke="rgb(153, 153, 153)" stroke-width="1.5px"></line></g></g><g><g><g><g><g><path stroke="rgb(204, 51, 17)" stroke-width="2px" d="M23.252172916666666,32.90353334375788L24.16710625,46.13747638783283L25.082039583333334,-7.984932499446263L25.996972916666667,-29.280820285290975L26.91190625,3.0987587073675766L27.82683958333333,16.19985095578828L28.741772916666665,20.914388972030434L29.65670625,36.76718823610713L30.571639583333337,42.58955181430525L31.486572916666667,34.24462597384611L32.40150625,24.610874449534812L33.316439583333334,21.649450728811065L34.231372916666665,71.87418483642236L35.146306249999995,59.95585200352617L36.06123958333333,60.395173484120534L36.97617291666666,78.34387037763712L37.89110625000001,66.38836739323733L38.80603958333334,71.95928225531124L39.72097291666667,92.76054187855868L40.635906250000005,88.79429395411267L41.550839583333335,49.818687102211875L42.465772916666666,42.682135460964446L43.38070625,1.0640292236694333L44.29563958333333,30.07270677409229L45.21057291666666,49.82367463666872L46.12550625,24.066596895139202L47.04043958333333,25.403690198449063L47.95537291666666,45.96041795354986L48.870306250000006,48.812301683640975L49.785239583333336,45.239108623813024L50.700172916666666,28.82259396816161L51.615106250000004,36.82578207319754L52.530039583333334,55.57928559657488L53.444972916666664,59.22592118385706L54.35990625,27.288061814848103L55.27483958333333,19.805178195662116L56.18977291666666,24.945745704566008L57.10470625,47.88332513112873L58.01963958333333,3.468973774368686L58.93457291666666,34.67625113133907L59.849506250000005,28.732227961532885L60.764439583333335,13.905767907278491L61.679372916666665,29.752361418585416L62.59430625,61.68163524418434L63.50923958333333,52.12114632408826L64.42417291666666,65.79361564173742L65.33910625,69.52764817982502L66.25403958333334,44.38344309304791L67.16897291666668,68.87992484008417L68.08390625,70.21885967549147L68.99883958333334,72.99766700530994L69.91377291666666,89.82650123537618L70.82870625,70.61311614297786L71.74363958333333,87.65497830723157L72.65857291666667,89.70668826827195L73.57350625,94.78983251989206L74.48843958333333,86.48090210657463L75.40337291666667,84.68095348537626L76.31830624999999,63.00695680194458L77.23323958333334,76.4735364133071L78.14817291666667,81.51623831048757L79.06310625,74.19545651843369L79.97803958333333,61.777736327129915L80.89297291666666,73.8099468748526L81.80790625,74.36214150705757L82.72283958333334,72.15007025602179L83.63777291666666,71.04506372146865L84.55270625,55.19581914895892L85.46763958333334,58.427899609019775L86.38257291666666,56.58910583684043L87.29750625000001,83.68532658781699L88.21243958333334,75.66976029375842L89.12737291666667,73.79889934054232L90.04230625,66.10802188646667L90.95723958333333,38.77586525331488L91.87217291666666,45.73622303056195L92.78710625000001,59.320499052262576L93.70203958333333,87.62061974385753L94.61697291666667,77.2160675498891L95.53190624999999,73.1957134656509L96.44683958333333,78.90752294546196L97.36177291666667,71.09925707084861L98.27670625,81.77339277465045L99.19163958333334,92.77078865050612L100.10657291666666,96.75175815101639L101.02150625,104.74567022275347L101.93643958333332,90.4048783050775L102.85137291666666,51.180983511614755L103.76630625,62.488584526611696L104.68123958333334,62.45785344989242L105.59617291666666,74.09455174672433L106.51110625,72.11298180160759L107.42603958333333,59.046666675605834L108.34097291666667,67.15860901786509L109.25590625000001,74.56916245357937L110.17083958333333,38.93862057392699L111.08577291666667,58.575503426495885L112.00070625,68.99951371839437L112.91563958333333,66.85827257210488L113.83057291666667,78.61147506647565L114.74550625,70.3536867416695L115.66043958333333,63.769272703933424L116.57537291666667,74.7085487223569L117.49030625,96.35958793877127L118.40523958333333,67.8658364686199L119.32017291666668,69.68448664724652L120.23510625,73.02274480620348L121.15003958333334,79.69269414979668L122.06497291666666,69.37267714880971L122.97990625,64.06961558035566L123.89483958333332,74.6418236446388L124.80977291666667,87.33127314928645L125.72470625,82.91940970385441L126.63963958333333,41.65231546516979L127.55457291666667,54.721857275528855L128.46950625,79.42895699924588L129.38443958333332,79.93123022633323L130.29937291666667,86.99849667329677L131.21430625,88.89301390754635L132.12923958333334,93.31390468916908L133.04417291666667,84.73108759564269L133.95910625,100.15073403059992L134.87403958333334,95.94479309693138L135.78897291666667,100.5328364331604L136.70390625,82.93856195989308L137.61883958333334,79.27136895629457L138.53377291666666,80.08360820413387L139.44870625000001,84.37368462069144L140.36363958333334,86.72549425455772L141.27857291666666,88.82798703845047L142.19350624999998,90.33641351235758L143.10843958333334,76.0799157966971L144.0233729166667,62.01946326194998L144.93830624999998,71.9054566125287L145.85323958333333,77.21972561394736L146.76817291666666,62.579883750514426L147.68310625,51.47482681816421L148.59803958333336,64.49217694982394L149.51297291666666,91.81012239489516L150.42790625,77.03822112086408L151.34283958333333,51.976421902878755L152.25777291666668,68.91688143458754L153.17270624999998,93.47722187146759L154.08763958333333,86.03904110324088L155.00257291666668,65.9207174351572L155.91750625,73.08563509324034L156.83243958333333,70.24828320415692L157.74737291666665,69.73114068142272L158.66230625,51.49367732135044L159.57723958333335,71.34347352495627L160.49217291666668,69.77092786497376L161.40710625,90.38446037434296L162.32203958333332,102.87604528175025L163.23697291666667,88.81393632083585L164.15190625000002,73.26506304785707L165.06683958333332,73.6648150055031L165.98177291666667,85.21409396937013L166.89670625,90.2669895012665L167.81163958333335,82.28561147397261L168.72657291666664,81.07728130938199L169.64150625,74.25309311598632L170.55643958333334,56.355149787452085L171.47137291666667,79.1989711921133L172.38630625000002,81.57113977419496L173.3012395833333,89.34056182165665L174.21617291666666,87.58201415727655L175.13110625000002,101.61435916400879L176.04603958333334,99.04534540911955L176.96097291666666,99.08429279189714L177.87590624999999,89.23042907870655L178.79083958333334,90.3556387525779L179.70577291666666,105.25398034976102L180.62070625,94.58668101164548L181.53563958333334,87.0257236176984L182.45057291666666,89.50198626347775L183.36550625,96.00043991701838L184.28043958333333,92.7879042127126L185.19537291666666,96.21878047405612L186.11030625,92.67197774336384L187.02523958333333,91.28468851566274L187.94017291666668,79.63674502904047L188.85510624999998,89.66150979599254L189.77003958333333,90.49082178116382L190.68497291666665,95.01338182405385L191.59990625,104.69036764086167L192.51483958333336,119.7317715613043L193.42977291666665,123.17597624570956L194.34470625,125.85982606528131L195.25963958333332,117.0249622123799L196.17457291666668,128.54003313099938L197.08950625,113.64508497324091L198.00443958333332,91.0528418875128L198.91937291666667,96.63463331286165L199.83430625,111.73761592521699L200.74923958333335,117.53991963906034L201.66417291666667,117.39141792450687L202.57910625,129.64885707434618L203.49403958333335,113.49550693389024L204.40897291666667,103.11209361390873L205.32390625,102.70961032548651L206.23883958333332,92.54150280243474L207.15377291666667,91.99658136896085L208.06870625000002,96.58354999280192L208.98363958333331,106.00286474746765L209.89857291666667,113.11134571812504L210.81350625,103.67177470230517L211.72843958333334,101.36628876066567L212.6433729166667,104.69937705104225L213.55830625,112.94658010919836L214.47323958333334,111.5981664530206L215.38817291666666,126.88900589859809L216.30310625,135.00170635701443L217.2180395833333,137.325940485638L218.13297291666666,147.5852962458467L219.04790625,139.023833243935L219.96283958333333,136.2574926642197L220.87777291666666,129.0417452360334L221.79270624999998,142.14561113447797L222.70763958333333,141.51351065390108L223.62257291666668,146.0728664369835L224.53750625,144.4624981407623L225.45243958333333,145.5211089987423L226.36737291666665,157.4903997742454L227.28230625,153.90579158061945L228.19723958333336,154.76758171444231L229.11217291666665,154.46978433134356L230.02710625,151.96995691309263L230.94203958333333,150.4206731710683L231.85697291666668,156.75086892764017L232.77190625,167.95691084196352L233.68683958333332,167.86524583553526L234.60177291666668,176.05773569451316L235.51670625,176.92356440777934L236.43163958333335,174.8009018491315L237.34657291666664,172.56427474519398L238.26150625,178.67960835035294" style="fill: none;" fill="none"></path></g></g></g></g><g opacity="0.2"><g><g><g><path stroke="rgb(204, 51, 17)" stroke-width="2px" d="M23.252172916666666,32.90353334375788L24.16710625,54.07784221427779L25.082039583333334,-59.9424450312342L25.996972916666667,-54.32478432144438L26.91190625,45.373537040182505L27.82683958333333,34.32337792856351L28.741772916666665,27.656253767865017L29.65670625,59.88072175000394L30.571639583333337,51.17640715624602L31.486572916666667,21.853383651801504L32.40150625,10.247624580349239L33.316439583333334,17.22343108483723L34.231372916666665,147.04729352678572L35.146306249999995,42.10170200892855L36.06123958333333,61.053639299103175L36.97617291666666,105.25425690625394L37.89110625000001,48.46017208482535L38.80603958333334,80.31424009374209L39.72097291666667,123.95926245089089L40.635906250000005,82.84528459821428L41.550839583333335,-8.642585660730113L42.465772916666666,31.977542830365017L43.38070625,-61.36230845536505L44.29563958333333,73.58537946428571L45.21057291666666,79.44998604910712L46.12550625,-14.568909874984202L47.04043958333333,27.40932673215864L47.95537291666666,76.79547802678175L48.870306250000006,53.090124651789644L49.785239583333336,39.87932100892065L50.700172916666666,4.1978274285793304L51.615106250000004,48.83056263838495L52.530039583333334,83.70953864284922L53.444972916666664,64.69587430357932L54.35990625,-20.61872586607933L55.27483958333333,8.58085295983723L56.18977291666666,32.65659688838888L57.10470625,82.28969405804361L58.01963958333333,-63.15255301339286L58.93457291666666,81.48716706250394L59.849506250000005,19.816193218742082L60.764439583333335,-8.333922156265798L61.679372916666665,53.52225167410712L62.59430625,109.57554596875394L63.50923958333333,37.78041294642855L64.42417291666666,86.30231961607932L65.33910625,75.12869698660712L66.25403958333334,6.6671354642936045L67.16897291666668,105.62464745981353L68.08390625,72.22726192857537L68.99883958333334,77.16587800000394L69.91377291666666,115.0697525803532L70.82870625,41.79303850446428L71.74363958333333,113.21777155356747L72.65857291666667,92.78425320982932L73.57350625,102.41454889731747L74.48843958333333,74.01750648660318L75.40337291666667,81.98103055357932L76.31830624999999,30.495961776801504L77.23323958333334,96.67340583034922L78.14817291666667,89.08029115625789L79.06310625,63.214283830353175L79.97803958333333,43.15115604017461L80.89297291666666,91.85826269643647L81.80790625,75.19043345536504L82.72283958333334,68.83196337946822L83.63777291666666,69.38755391963889L84.55270625,31.421952290194348L85.46763958333334,63.276020299111075L86.38257291666666,53.83091517857141L87.29750625000001,124.32965771428175L88.21243958333334,63.64641085267065L89.12737291666667,70.99260791071822L90.04230625,54.571705705353175L90.95723958333333,-2.22236969641279L91.87217291666666,56.176759696432505L92.78710625000001,79.69691308481352L93.70203958333333,130.07080078125L94.61697291666667,61.60923925893645L95.53190624999999,67.16518233929361L96.44683958333333,87.47523716517856L97.36177291666667,59.38685825892855L98.27670625,97.78459633035318L99.19163958333334,109.26688246428967L100.10657291666666,102.72321240178175L101.02150625,116.73653833035911L101.93643958333332,68.89369042856352L102.85137291666666,-7.6548586785793304L103.76630625,79.44998604910712L104.68123958333334,62.41175683481351L105.59617291666666,91.54959919197218L106.51110625,69.14062688393251L107.42603958333333,39.447193986603175L108.34097291666667,79.32652253125394L109.25590625000001,85.68499260715075L110.17083958333333,-14.507192245551524L111.08577291666667,88.03082770534922L112.00070625,84.63552915624209L112.91563958333333,63.64641085267065L113.83057291666667,96.24127880803175L114.74550625,57.96700425446031L115.66043958333333,53.89265164732931L116.57537291666667,91.11746274999209L117.49030625,128.83614676339286L118.40523958333333,25.125209263392843L119.32017291666668,72.41246191518646L120.23510625,78.03013204463889L121.15003958333334,89.69761816518647L122.06497291666666,53.89265164732931L122.97990625,56.11502322767461L123.89483958333332,90.50013574106352L124.80977291666667,106.3654474062579L125.72470625,76.30161453570638L126.63963958333333,-20.24832589285714L127.55457291666667,74.32616999106746L128.46950625,116.48960658482142L129.38443958333332,80.68464006696428L130.29937291666667,97.59939634374209L131.21430625,91.73478975892066L132.12923958333334,99.9452408616032L133.04417291666667,71.85686195535318L133.95910625,123.28020368303572L134.87403958333334,89.63588169642856L135.78897291666667,107.41490143750394L136.70390625,56.54715024999208L137.61883958333334,73.77057945089679L138.53377291666666,81.30196707589285L139.44870625000001,90.80879924552781L140.36363958333334,90.25320870535714L141.27857291666666,91.98172621428965L142.19350624999998,92.59905322321822L143.10843958333334,54.695169223206356L144.0233729166667,40.92878445982931L144.93830624999998,86.73444663839679L145.85323958333333,85.19112911607537L146.76817291666666,40.62012095536502L147.68310625,34.81724141963888L148.59803958333336,84.01820214731352L149.51297291666666,132.78704056250197L150.42790625,54.88036920981745L151.34283958333333,14.383723075900761L152.25777291666668,94.32757073215075L153.17270624999998,130.3177325267877L154.08763958333333,74.88176995090075L155.00257291666668,35.743231933031744L155.91750625,83.83301158036504L156.83243958333333,65.99225537053175L157.74737291666665,68.95542689732142L158.66230625,24.137482281242082L159.57723958333335,101.11816783036504L160.49217291666668,67.41210937499999L161.40710625,121.3047591383968L162.32203958333332,121.61342264286108L163.23697291666667,67.72077287946428L164.15190625000002,49.94175313838888L165.06683958333332,74.26444294197218L165.98177291666667,102.53801241517067L166.89670625,97.84633279911108L167.81163958333335,70.31354443303175L168.72657291666664,79.26478606249604L169.64150625,64.01681082589285L170.55643958333334,29.508234794650743L171.47137291666667,113.46470329910517L172.38630625000002,85.12939264731746L173.3012395833333,100.99469489284924L174.21617291666666,84.94419266070638L175.13110625000002,122.66287667410714L176.04603958333334,95.19182477678568L176.96097291666666,99.14271386606353L177.87590624999999,74.44963350892066L178.79083958333334,92.04345326338495L179.70577291666666,127.60149274553572L180.62070625,78.58573200447218L181.53563958333334,75.6842875267778L182.45057291666666,93.2163802321468L183.36550625,105.74812039732933L184.28043958333333,87.96910065625394L185.19537291666666,101.36509486607142L186.11030625,87.35177364732537L187.02523958333333,89.20375467411108L187.94017291666668,62.16482979910712L188.85510624999998,104.69865694642067L189.77003958333333,91.73478975892066L190.68497291666665,101.7972218883889L191.59990625,119.2058463660734L192.51483958333336,142.29387744196822L193.42977291666665,128.34228327231747L194.34470625,129.8856007946389L195.25963958333332,103.77266643302781L196.17457291666668,145.81263950892856L197.08950625,91.30266273660318L198.00443958333332,57.16447725892065L198.91937291666667,105.00732045088495L199.83430625,134.39208984375L200.74923958333335,126.24337520982539L201.66417291666667,117.16866535267658L202.57910625,148.03501579910517L203.49403958333335,89.26548172320635L204.40897291666667,87.53697363393646L205.32390625,102.1058853928532L206.23883958333332,77.28934151785712L207.15377291666667,91.17919921874999L208.06870625000002,103.46400292856353L208.98363958333331,120.13183687946625L209.89857291666667,123.77406717411108L210.81350625,89.51241817857534L211.72843958333334,97.90805984820635L212.6433729166667,109.69900948660714L213.55830625,125.31738469643253L214.47323958333334,109.57554596875394L215.38817291666666,149.82526506696428L216.30310625,147.1707570446389L217.2180395833333,140.8122916785734L218.13297291666666,162.97432988615972L219.04790625,126.18163874106747L219.96283958333333,132.1079817946468L220.87777291666666,118.21812409375394L221.79270624999998,161.80140998214483L222.70763958333333,140.5653599330357L223.62257291666668,152.91190011160714L224.53750625,142.04694569643053L225.45243958333333,147.1090252857123L226.36737291666665,175.4443359375L227.28230625,148.52887929018056L228.19723958333336,156.0602669151766L229.11217291666665,154.02308825669544L230.02710625,148.22021578571628L230.94203958333333,148.09674755803178L231.85697291666668,166.24616256249803L232.77190625,184.76597371344855L233.68683958333332,167.72774832589286L234.60177291666668,188.34647048298004L235.51670625,178.22230747767858L236.43163958333335,171.61690801115972L237.34657291666664,169.2093340892877L238.26150625,187.8526087580914" style="fill: none;" fill="none"></path></g></g></g></g></g></g><g transform="translate(61, 177)" clip-path="url(#clip_1)"><clipPath id="clip_1"><rect width="268" height="23"></rect></clipPath><g><g><line x1="0" y1="0" x2="0" y2="5" style="visibility: inherit;" fill="rgb(0, 0, 0)" stroke="rgb(204, 204, 204)" stroke-width="1px"></line><line x1="22.337239583333332" y1="0" x2="22.337239583333332" y2="5" style="visibility: inherit;" fill="rgb(0, 0, 0)" stroke="rgb(204, 204, 204)" stroke-width="1px"></line><line x1="44.674479166666664" y1="0" x2="44.674479166666664" y2="5" style="visibility: inherit;" fill="rgb(0, 0, 0)" stroke="rgb(204, 204, 204)" stroke-width="1px"></line><line x1="67.01171875" y1="0" x2="67.01171875" y2="5" style="visibility: inherit;" fill="rgb(0, 0, 0)" stroke="rgb(204, 204, 204)" stroke-width="1px"></line><line x1="89.34895833333333" y1="0" x2="89.34895833333333" y2="5" style="visibility: inherit;" fill="rgb(0, 0, 0)" stroke="rgb(204, 204, 204)" stroke-width="1px"></line><line x1="111.68619791666667" y1="0" x2="111.68619791666667" y2="5" style="visibility: inherit;" fill="rgb(0, 0, 0)" stroke="rgb(204, 204, 204)" stroke-width="1px"></line><line x1="134.0234375" y1="0" x2="134.0234375" y2="5" style="visibility: inherit;" fill="rgb(0, 0, 0)" stroke="rgb(204, 204, 204)" stroke-width="1px"></line><line x1="156.36067708333334" y1="0" x2="156.36067708333334" y2="5" style="visibility: inherit;" fill="rgb(0, 0, 0)" stroke="rgb(204, 204, 204)" stroke-width="1px"></line><line x1="178.69791666666666" y1="0" x2="178.69791666666666" y2="5" style="visibility: inherit;" fill="rgb(0, 0, 0)" stroke="rgb(204, 204, 204)" stroke-width="1px"></line><line x1="201.03515625" y1="0" x2="201.03515625" y2="5" style="visibility: inherit;" fill="rgb(0, 0, 0)" stroke="rgb(204, 204, 204)" stroke-width="1px"></line><line x1="223.37239583333334" y1="0" x2="223.37239583333334" y2="5" style="visibility: inherit;" fill="rgb(0, 0, 0)" stroke="rgb(204, 204, 204)" stroke-width="1px"></line><line x1="245.70963541666666" y1="0" x2="245.70963541666666" y2="5" style="visibility: inherit;" fill="rgb(0, 0, 0)" stroke="rgb(204, 204, 204)" stroke-width="1px"></line><line x1="268.046875" y1="0" x2="268.046875" y2="5" style="visibility: inherit;" fill="rgb(0, 0, 0)" stroke="rgb(204, 204, 204)" stroke-width="1px"></line></g><g transform="translate(0, 8)"><text x="0" y="0" dx="0em" dy="0.95em" style="text-anchor: middle; visibility: hidden; font-family: Roboto, sans-serif; font-size: 12px; font-weight: 200;" fill="rgb(33, 33, 33)" stroke="none" stroke-width="1px">-100k</text><text x="22.337239583333332" y="0" dx="0em" dy="0.95em" style="text-anchor: middle; visibility: inherit; font-family: Roboto, sans-serif; font-size: 12px; font-weight: 200;" fill="rgb(33, 33, 33)" stroke="none" stroke-width="1px">0</text><text x="44.674479166666664" y="0" dx="0em" dy="0.95em" style="text-anchor: middle; visibility: hidden; font-family: Roboto, sans-serif; font-size: 12px; font-weight: 200;" fill="rgb(33, 33, 33)" stroke="none" stroke-width="1px">100k</text><text x="67.01171875" y="0" dx="0em" dy="0.95em" style="text-anchor: middle; visibility: inherit; font-family: Roboto, sans-serif; font-size: 12px; font-weight: 200;" fill="rgb(33, 33, 33)" stroke="none" stroke-width="1px">200k</text><text x="89.34895833333333" y="0" dx="0em" dy="0.95em" style="text-anchor: middle; visibility: hidden; font-family: Roboto, sans-serif; font-size: 12px; font-weight: 200;" fill="rgb(33, 33, 33)" stroke="none" stroke-width="1px">300k</text><text x="111.68619791666667" y="0" dx="0em" dy="0.95em" style="text-anchor: middle; visibility: inherit; font-family: Roboto, sans-serif; font-size: 12px; font-weight: 200;" fill="rgb(33, 33, 33)" stroke="none" stroke-width="1px">400k</text><text x="134.0234375" y="0" dx="0em" dy="0.95em" style="text-anchor: middle; visibility: hidden; font-family: Roboto, sans-serif; font-size: 12px; font-weight: 200;" fill="rgb(33, 33, 33)" stroke="none" stroke-width="1px">500k</text><text x="156.36067708333334" y="0" dx="0em" dy="0.95em" style="text-anchor: middle; visibility: inherit; font-family: Roboto, sans-serif; font-size: 12px; font-weight: 200;" fill="rgb(33, 33, 33)" stroke="none" stroke-width="1px">600k</text><text x="178.69791666666666" y="0" dx="0em" dy="0.95em" style="text-anchor: middle; visibility: hidden; font-family: Roboto, sans-serif; font-size: 12px; font-weight: 200;" fill="rgb(33, 33, 33)" stroke="none" stroke-width="1px">700k</text><text x="201.03515625" y="0" dx="0em" dy="0.95em" style="text-anchor: middle; visibility: inherit; font-family: Roboto, sans-serif; font-size: 12px; font-weight: 200;" fill="rgb(33, 33, 33)" stroke="none" stroke-width="1px">800k</text><text x="223.37239583333334" y="0" dx="0em" dy="0.95em" style="text-anchor: middle; visibility: hidden; font-family: Roboto, sans-serif; font-size: 12px; font-weight: 200;" fill="rgb(33, 33, 33)" stroke="none" stroke-width="1px">900k</text><text x="245.70963541666666" y="0" dx="0em" dy="0.95em" style="text-anchor: middle; visibility: inherit; font-family: Roboto, sans-serif; font-size: 12px; font-weight: 200;" fill="rgb(33, 33, 33)" stroke="none" stroke-width="1px">1M</text><text x="268.046875" y="0" dx="0em" dy="0.95em" style="text-anchor: middle; visibility: hidden; font-family: Roboto, sans-serif; font-size: 12px; font-weight: 200;" fill="rgb(33, 33, 33)" stroke="none" stroke-width="1px">1.1M</text></g><line x1="0" y1="0" x2="268.046875" y2="0" fill="rgb(0, 0, 0)" stroke="rgb(204, 204, 204)" stroke-width="1px"></line></g></g></g></g></svg>