<svg viewBox="0 0 330 200" xmlns="http://www.w3.org/2000/svg"><g><g><g><g><g><line x1="72.34375" y1="177" x2="67.34375" y2="177" style="visibility: inherit;" fill="rgb(0, 0, 0)" stroke="rgb(204, 204, 204)" stroke-width="1px"></line><line x1="72.34375" y1="154.875" x2="67.34375" y2="154.875" style="visibility: inherit;" fill="rgb(0, 0, 0)" stroke="rgb(204, 204, 204)" stroke-width="1px"></line><line x1="72.34375" y1="132.75" x2="67.34375" y2="132.75" style="visibility: inherit;" fill="rgb(0, 0, 0)" stroke="rgb(204, 204, 204)" stroke-width="1px"></line><line x1="72.34375" y1="110.625" x2="67.34375" y2="110.625" style="visibility: inherit;" fill="rgb(0, 0, 0)" stroke="rgb(204, 204, 204)" stroke-width="1px"></line><line x1="72.34375" y1="88.5" x2="67.34375" y2="88.5" style="visibility: inherit;" fill="rgb(0, 0, 0)" stroke="rgb(204, 204, 204)" stroke-width="1px"></line><line x1="72.34375" y1="66.375" x2="67.34375" y2="66.375" style="visibility: inherit;" fill="rgb(0, 0, 0)" stroke="rgb(204, 204, 204)" stroke-width="1px"></line><line x1="72.34375" y1="44.25" x2="67.34375" y2="44.25" style="visibility: inherit;" fill="rgb(0, 0, 0)" stroke="rgb(204, 204, 204)" stroke-width="1px"></line><line x1="72.34375" y1="22.125" x2="67.34375" y2="22.125" style="visibility: inherit;" fill="rgb(0, 0, 0)" stroke="rgb(204, 204, 204)" stroke-width="1px"></line><line x1="72.34375" y1="0" x2="67.34375" y2="0" style="visibility: inherit;" fill="rgb(0, 0, 0)" stroke="rgb(204, 204, 204)" stroke-width="1px"></line></g><g transform="translate(62.34375, 0)"><text x="0" y="177" dx="0em" dy="0.3em" style="text-anchor: end; visibility: hidden; font-family: Roboto, sans-serif; font-size: 12px; font-weight: 200;" fill="rgb(33, 33, 33)" stroke="none" stroke-width="1px">-0.012</text><text x="0" y="154.875" dx="0em" dy="0.3em" style="text-anchor: end; visibility: inherit; font-family: Roboto, sans-serif; font-size: 12px; font-weight: 200;" fill="rgb(33, 33, 33)" stroke="none" stroke-width="1px">-0.01</text><text x="0" y="132.75" dx="0em" dy="0.3em" style="text-anchor: end; visibility: hidden; font-family: Roboto, sans-serif; font-size: 12px; font-weight: 200;" fill="rgb(33, 33, 33)" stroke="none" stroke-width="1px">-8e-3</text><text x="0" y="110.625" dx="0em" dy="0.3em" style="text-anchor: end; visibility: inherit; font-family: Roboto, sans-serif; font-size: 12px; font-weight: 200;" fill="rgb(33, 33, 33)" stroke="none" stroke-width="1px">-6e-3</text><text x="0" y="88.5" dx="0em" dy="0.3em" style="text-anchor: end; visibility: hidden; font-family: Roboto, sans-serif; font-size: 12px; font-weight: 200;" fill="rgb(33, 33, 33)" stroke="none" stroke-width="1px">-4e-3</text><text x="0" y="66.375" dx="0em" dy="0.3em" style="text-anchor: end; visibility: inherit; font-family: Roboto, sans-serif; font-size: 12px; font-weight: 200;" fill="rgb(33, 33, 33)" stroke="none" stroke-width="1px">-2e-3</text><text x="0" y="44.25" dx="0em" dy="0.3em" style="text-anchor: end; visibility: hidden; font-family: Roboto, sans-serif; font-size: 12px; font-weight: 200;" fill="rgb(33, 33, 33)" stroke="none" stroke-width="1px">0</text><text x="0" y="22.125" dx="0em" dy="0.3em" style="text-anchor: end; visibility: inherit; font-family: Roboto, sans-serif; font-size: 12px; font-weight: 200;" fill="rgb(33, 33, 33)" stroke="none" stroke-width="1px">2e-3</text><text x="0" y="0" dx="0em" dy="0.3em" style="text-anchor: end; visibility: hidden; font-family: Roboto, sans-serif; font-size: 12px; font-weight: 200;" fill="rgb(33, 33, 33)" stroke="none" stroke-width="1px">4e-3</text></g><line x1="72.34375" y1="0" x2="72.34375" y2="177" fill="rgb(0, 0, 0)" stroke="rgb(204, 204, 204)" stroke-width="1px"></line></g></g><g transform="translate(72, 0)" clip-path="url(#clip_0)"><clipPath id="clip_0"><rect width="257" height="177"></rect></clipPath><g><g><g><line x1="0" y1="0" x2="0" y2="177" fill="rgb(0, 0, 0)" stroke="rgb(66, 66, 66)" stroke-width="1px" opacity="0.25"></line><line x1="21.471354166666664" y1="0" x2="21.471354166666664" y2="177" fill="rgb(0, 0, 0)" stroke="rgb(66, 66, 66)" stroke-width="1px" opacity="0.25"></line><line x1="42.94270833333333" y1="0" x2="42.94270833333333" y2="177" fill="rgb(0, 0, 0)" stroke="rgb(66, 66, 66)" stroke-width="1px" opacity="0.25"></line><line x1="64.4140625" y1="0" x2="64.4140625" y2="177" fill="rgb(0, 0, 0)" stroke="rgb(66, 66, 66)" stroke-width="1px" opacity="0.25"></line><line x1="85.88541666666666" y1="0" x2="85.88541666666666" y2="177" fill="rgb(0, 0, 0)" stroke="rgb(66, 66, 66)" stroke-width="1px" opacity="0.25"></line><line x1="107.35677083333334" y1="0" x2="107.35677083333334" y2="177" fill="rgb(0, 0, 0)" stroke="rgb(66, 66, 66)" stroke-width="1px" opacity="0.25"></line><line x1="128.828125" y1="0" x2="128.828125" y2="177" fill="rgb(0, 0, 0)" stroke="rgb(66, 66, 66)" stroke-width="1px" opacity="0.25"></line><line x1="150.29947916666669" y1="0" x2="150.29947916666669" y2="177" fill="rgb(0, 0, 0)" stroke="rgb(66, 66, 66)" stroke-width="1px" opacity="0.25"></line><line x1="171.77083333333331" y1="0" x2="171.77083333333331" y2="177" fill="rgb(0, 0, 0)" stroke="rgb(66, 66, 66)" stroke-width="1px" opacity="0.25"></line><line x1="193.2421875" y1="0" x2="193.2421875" y2="177" fill="rgb(0, 0, 0)" stroke="rgb(66, 66, 66)" stroke-width="1px" opacity="0.25"></line><line x1="214.71354166666669" y1="0" x2="214.71354166666669" y2="177" fill="rgb(0, 0, 0)" stroke="rgb(66, 66, 66)" stroke-width="1px" opacity="0.25"></line><line x1="236.18489583333331" y1="0" x2="236.18489583333331" y2="177" fill="rgb(0, 0, 0)" stroke="rgb(66, 66, 66)" stroke-width="1px" opacity="0.25"></line><line x1="257.65625" y1="0" x2="257.65625" y2="177" fill="rgb(0, 0, 0)" stroke="rgb(66, 66, 66)" stroke-width="1px" opacity="0.25"></line></g><g><line x1="0" y1="177" x2="257.65625" y2="177" fill="rgb(0, 0, 0)" stroke="rgb(66, 66, 66)" stroke-width="1px" opacity="0.25"></line><line x1="0" y1="154.875" x2="257.65625" y2="154.875" fill="rgb(0, 0, 0)" stroke="rgb(66, 66, 66)" stroke-width="1px" opacity="0.25"></line><line x1="0" y1="132.75" x2="257.65625" y2="132.75" fill="rgb(0, 0, 0)" stroke="rgb(66, 66, 66)" stroke-width="1px" opacity="0.25"></line><line x1="0" y1="110.625" x2="257.65625" y2="110.625" fill="rgb(0, 0, 0)" stroke="rgb(66, 66, 66)" stroke-width="1px" opacity="0.25"></line><line x1="0" y1="88.5" x2="257.65625" y2="88.5" fill="rgb(0, 0, 0)" stroke="rgb(66, 66, 66)" stroke-width="1px" opacity="0.25"></line><line x1="0" y1="66.375" x2="257.65625" y2="66.375" fill="rgb(0, 0, 0)" stroke="rgb(66, 66, 66)" stroke-width="1px" opacity="0.25"></line><line x1="0" y1="44.25" x2="257.65625" y2="44.25" fill="rgb(0, 0, 0)" stroke="rgb(66, 66, 66)" stroke-width="1px" opacity="0.25"></line><line x1="0" y1="22.125" x2="257.65625" y2="22.125" fill="rgb(0, 0, 0)" stroke="rgb(66, 66, 66)" stroke-width="1px" opacity="0.25"></line><line x1="0" y1="0" x2="257.65625" y2="0" fill="rgb(0, 0, 0)" stroke="rgb(66, 66, 66)" stroke-width="1px" opacity="0.25"></line></g></g></g><g><g><line x1="0" y1="44.25" x2="257.65625" y2="44.25" fill="rgb(0, 0, 0)" stroke="rgb(153, 153, 153)" stroke-width="1.5px"></line></g></g><g><g><line x1="21.471354166666664" y1="0" x2="21.471354166666664" y2="177" fill="rgb(0, 0, 0)" stroke="rgb(153, 153, 153)" stroke-width="1.5px"></line></g></g><g><g><g><g><g><path stroke="rgb(204, 51, 17)" stroke-width="2px" d="M22.350820833333334,37.993342347443104L23.2302875,60.15363033756148L24.109754166666665,158.92902855805062L24.989220833333334,143.40924311773028L25.8686875,70.21350747133467L26.748154166666666,149.02593111612174L27.62762083333333,77.80149605641316L28.5070875,125.52262984347259L29.38655416666667,128.01531869363657L30.266020833333332,142.45685387222957L31.1454875,62.22797357801487L32.02495416666667,45.33640891783002L32.90442083333333,6.909367826196098L33.7838875,-19.19388139020728L34.663354166666664,71.55264453140832L35.54282083333333,89.76156805651324L36.4222875,124.20836275287355L37.30175416666667,87.7175401689161L38.181220833333334,47.819834988940165L39.0606875,107.6201888182495L39.940154166666666,181.04667423518674L40.81962083333333,183.00474378392667L41.699087500000005,149.2604756071024L42.57855416666667,146.14025634475107L43.45802083333333,154.1170488622513L44.3374875,187.34791785815236L45.21695416666667,161.89339448451383L46.09642083333333,135.65485728539602L46.975887500000006,119.1909724463597L47.855354166666665,104.53929922280145L48.73482083333333,86.46672871625374L49.6142875,-37.8968641986023L50.49375416666667,11.126664812029135L51.37322083333333,88.08483181011083L52.2526875,103.3596466309031L53.132154166666666,150.98459195636627L54.01162083333333,126.50310985743516L54.891087500000005,80.43703711883256L55.77055416666666,152.2807808393088L56.65002083333333,128.12217520759515L57.5294875,95.54817659603238L58.40895416666667,132.2385109538373L59.28842083333333,135.87451943540725L60.1678875,160.19530474631367L61.047354166666665,128.625243352728L61.92682083333333,117.81261673204334L62.8062875,154.9384778126497L63.68575416666666,60.185986568330335L64.56522083333334,116.69310723327888L65.4446875,129.77288465038558L66.32415416666666,138.68096238653578L67.20362083333333,208.19229640924723L68.08308749999999,207.93664757006596L68.96255416666668,102.28433928236163L69.84202083333334,94.96700600851491L70.7214875,132.1030797536076L71.60095416666667,134.23553758412058L72.48042083333333,129.3485738034507L73.3598875,96.63136701593791L74.23935416666667,136.14267841911504L75.11882083333333,158.3699276855144L75.9982875,161.10055017906748L76.87775416666666,154.15587075315898L77.75722083333334,188.93788204573409L78.63668750000001,153.6138713258224L79.51615416666667,162.5813435001801L80.39562083333334,116.25829485780773L81.2750875,136.68583918386267L82.15455416666667,139.3802955308471L83.03402083333333,130.3766494491794L83.9134875,59.513000414466745L84.79295416666668,108.609909103108L85.67242083333333,103.03346254183653L86.55188749999999,137.40888551010224L87.43135416666667,67.18926285547633L88.31082083333332,135.21067414040934L89.19028750000001,88.16310149643165L90.06975416666667,83.68872088586483L90.94922083333333,152.5123763569903L91.8286875,80.9106819104194L92.70815416666666,128.4221732897186L93.58762083333333,160.29333005555708L94.4670875,70.66580260929905L95.34655416666666,111.42913061909344L96.22602083333334,128.7033453671334L97.1054875,117.45875018690218L97.98495416666667,83.69266110199206L98.86442083333333,17.509338294193224L99.7438875,55.54159221893554L100.62335416666667,68.34465466161672L101.50282083333333,108.31623189524622L102.3822875,151.21821558774002L103.26175416666666,69.07496197253755L104.14122083333334,110.56250462445792L105.02068750000001,104.24475140281423L105.90015416666667,106.62169185747446L106.77962083333334,112.92322740946557L107.6590875,182.41262900378914L108.53855416666666,154.25772199136978L109.41802083333334,144.24823862599115L110.2974875,131.3575711990105L111.17695416666668,121.18973395979147L112.05642083333333,150.7353721931919L112.93588749999999,113.98765819410052L113.81535416666667,163.79501619235913L114.69482083333334,170.7186842839196L115.5742875,106.49529873126892L116.45375416666667,108.45388427291303L117.33322083333333,178.21788619854445L118.2126875,169.2751449556553L119.09215416666666,77.02934269451521L119.97162083333333,12.907498600518238L120.8510875,61.89030887480707L121.73055416666666,98.03362467167456L122.61002083333334,138.0845074688803L123.4894875,109.933177087704L124.36895416666665,27.39756138563135L125.24842083333334,91.10196363741146L126.1278875,59.53695042842023L127.00735416666667,86.76772409476872L127.88682083333333,101.48846603474341L128.7662875,57.791489726737545L129.64575416666668,84.23144392605747L130.52522083333332,74.57955534652918L131.4046875,-5.324801188581903L132.28415416666667,91.94673247672695L133.16362083333334,56.23707939315634L134.0430875,96.86350515785097L134.92255416666666,100.56282969576733L135.80202083333333,23.529854598716575L136.68148749999997,86.81893654350979L137.56095416666668,53.49877524793249L138.44042083333335,50.6189235669455L139.3198875,106.36529533808415L140.19935416666667,78.80095576007655L141.0788208333333,81.13100064663286L141.9582875,116.15095078494068L142.83775416666668,76.64929622588109L143.71722083333333,14.840498513110296L144.5966875,151.96259622492065L145.47615416666665,99.87327869515222L146.35562083333335,122.07487821187439L147.2350875,193.15576667178192L148.11455416666666,165.3127444145889L148.99402083333334,158.57381719695394L149.87348749999998,73.60158731622614L150.75295416666668,65.98757705961536L151.63242083333333,140.00307949893102L152.5118875,122.25721408881202L153.39135416666667,130.1570953023878L154.27082083333332,31.048227413293542L155.15028750000002,60.870496822176484L156.02975416666666,53.552033757956686L156.90922083333334,84.1778887701284L157.7886875,104.76198297171301L158.66815416666665,101.5429805907816L159.54762083333335,122.93885259531947L160.4270875,102.56277553783663L161.30655416666667,73.12833708068315L162.18602083333332,116.70535161221376L163.0654875,123.90555036365599L163.9449541666667,73.13169024467236L164.82442083333333,142.9355757032619L165.7038875,122.08883538550353L166.58335416666665,151.42222839679548L167.46282083333332,117.26044132379056L168.34228750000003,29.822285636170886L169.22175416666667,94.93380059460054L170.10122083333334,88.7472303683117L170.9806875,98.3188293326381L171.86015416666666,38.152928086466076L172.73962083333333,14.133496481461208L173.6190875,60.71304023237996L174.49855416666668,69.77672038075572L175.37802083333332,110.98071610873788L176.2574875,135.985343121787L177.13695416666667,116.46402911405269L178.01642083333334,117.41841325125397L178.89588750000001,143.11599560468676L179.77535416666666,132.00210480325984L180.65482083333333,154.75817353443693L181.5342875,102.6867305884742L182.41375416666668,23.088843958823876L183.29322083333332,51.988791956696055L184.1726875,100.64901324611495L185.05215416666667,111.92814235092156L185.9316208333333,139.31888548628064L186.8110875,137.93298815527152L187.69055416666666,88.59219251644517L188.57002083333333,69.79341045083495L189.4494875,114.69269582461204L190.32895416666665,162.28177178028756L191.20842083333335,124.998352387725L192.0878875,84.14905096280795L192.96735416666667,86.55024812650365L193.84682083333334,86.33509924114009L194.72628749999998,105.53205557674325L195.60575416666669,39.59026904037687L196.48522083333333,61.689375853202314L197.3646875,82.21522537509294L198.24415416666665,108.151122734597L199.12362083333332,90.5208532795463L200.00308750000002,57.967399387666816L200.88255416666667,61.76829997024492L201.76202083333334,78.41806523972932L202.64148749999998,32.20723534732569L203.52095416666666,21.152784895618307L204.40042083333336,71.19912354899618L205.2798875,49.14964377583963L206.15935416666667,85.45266008367037L207.03882083333332,35.71052481153543L207.9182875,116.77902742575965L208.79775416666666,87.24705309853769L209.67722083333334,87.83499632905165L210.5566875,53.9050656244471L211.43615416666665,76.30867117704837L212.31562083333333,113.41552320010594L213.1950875,72.75379666618782L214.07455416666667,32.34097821262346L214.95402083333335,31.327427780609533L215.8334875,24.569195092309243L216.71295416666666,43.973045653083155L217.59242083333334,58.26234829856649L218.4718875,97.90232865081695L219.35135416666668,124.19112701753657L220.23082083333333,112.3748123961084L221.1102875,166.90443894370753L221.98975416666667,84.33847181300435L222.86922083333334,101.04396405585179L223.7486875,98.73274224485499L224.62815416666666,94.67328468589808L225.50762083333333,81.62878813634114L226.3870875,38.48194312626001L227.26655416666668,-3.336730257726483L228.14602083333332,30.53856257807807L229.0254875,49.4626170403829L229.90495416666667,29.58726572734539L230.78442083333334,38.50134879942192L231.66388750000002,33.678390436443415L232.54335416666666,52.53806869570776L233.42282083333333,113.20109312539913L234.30228749999998,83.87497750721495L235.18175416666668,66.4370598147936L236.06122083333335,55.30934460166854" style="fill: none;" fill="none"></path></g></g></g></g><g opacity="0.2"><g><g><g><path stroke="rgb(204, 51, 17)" stroke-width="2px" d="M22.350820833333334,37.993342347443104L23.2302875,73.4498031316325L24.109754166666665,253.75341084972024L24.989220833333334,125.15797543991357L25.8686875,-25.35084498859942L28.5070875,195.10050102788955L29.38655416666667,131.69155056774616L30.266020833333332,163.90085053816438L31.1454875,-57.38767682388425L32.02495416666667,20.090985076501966L32.90442083333333,-50.605722854845226L34.663354166666664,207.56576427910477L35.54282083333333,117.06211100053042L36.4222875,175.8639780683443L37.30175416666667,32.990571308881044L38.181220833333334,-12.020644767209888L40.81962083333333,185.94178367592394L41.699087500000005,98.64473956357688L42.57855416666667,141.45996441319585L43.45802083333333,166.0821809428744L44.3374875,237.19407963752747L45.21695416666667,123.71167455520481L46.09642083333333,96.29709176905453L46.975887500000006,94.49516035337001L47.855354166666665,82.56179748522118L48.73482083333333,59.35787894949317L49.6142875,-224.4422288266941L50.49375416666667,84.66195247555152L51.37322083333333,203.52207679487765L52.2526875,126.27186820562929L53.132154166666666,222.4220087165013L54.01162083333333,89.78088708780706L54.891087500000005,11.337928438559175L55.77055416666666,260.04639601986855L56.65002083333333,91.88426684075966L57.5294875,46.68717874400318L58.40895416666667,187.2740124464035L59.28842083333333,141.3285321551375L60.1678875,196.67648270213977L61.047354166666665,81.27015127055347L61.92682083333333,101.59367680270225L62.8062875,210.62726943008602L64.56522083333334,201.45378822879866L65.4446875,149.39255077578127L66.32415416666666,152.04307899065316L67.20362083333333,312.45929744280875L68.96255416666668,-56.19412314891815L69.84202083333334,83.99100609775633L70.7214875,187.80719037121162L71.60095416666667,137.43422432988882L72.48042083333333,122.0181281324476L73.3598875,47.55555683467537L74.23935416666667,195.40964552387595L75.11882083333333,191.71080158511177L75.9982875,165.196483919397L76.87775416666666,143.73885161429644L77.75722083333334,241.11089898459613L78.63668750000001,100.62785524595529L79.51615416666667,176.0325517617166L80.39562083333334,46.77372189424932L81.2750875,167.32715567294508L82.15455416666667,143.42198005132377L83.03402083333333,116.87118032667786L83.9134875,-46.78247313760221L84.79295416666668,182.25527213606983L85.67242083333333,94.66879269992933L86.55188749999999,188.97201996250078L88.31082083333332,237.24279106780887L89.19028750000001,17.591742530465126L90.06975416666667,76.97714997001458L90.94922083333333,255.7478595636785L94.4670875,-63.77548856008798L95.34655416666666,172.574122633785L96.22602083333334,154.61466748919338L97.1054875,100.59185741655529L97.98495416666667,33.0435274746269L98.86442083333333,-81.76564591750503L99.7438875,112.589973106049L100.62335416666667,87.54924832563847L101.50282083333333,168.2735977456905L102.3822875,215.5711911264807L103.26175416666666,-54.13991845026612L104.14122083333334,172.79381860233843L105.02068750000001,94.76812157034874L105.90015416666667,110.18710253946483L106.77962083333334,122.37553073745221L107.6590875,286.6467313952744L108.53855416666666,112.02536147274077L109.41802083333334,129.23401357792318L110.2974875,112.02157005853951L111.17695416666668,105.93797810096294L112.05642083333333,195.05382954329252L112.93588749999999,58.86608719546348L113.81535416666667,238.50605318974704L114.69482083333334,181.10418642126024L115.5742875,10.160220402292907L116.45375416666667,111.39176258537918L117.33322083333333,282.86388908699155L118.2126875,155.8610330913216L119.09215416666666,-61.339360697194934L119.97162083333333,-83.27526754047722L120.8510875,135.36452428624034L121.73055416666666,152.24859836697578L122.61002083333334,198.16083166468889L123.4894875,67.70618151593953L124.36895416666665,-96.40586216747761L125.24842083333334,186.65856701508164L126.1278875,12.189430614933372L127.00735416666667,127.61388459429145L127.88682083333333,123.56957894470543L128.7662875,-7.753974735271186L129.64575416666668,123.89137522503734L130.52522083333332,60.10172247723676L131.4046875,-125.18133599124849L132.28415416666667,237.8540329746902L133.16362083333334,2.6725997678004205L134.0430875,157.8031438048929L134.92255416666666,106.11181650264189L135.80202083333333,-92.0196080468595L136.68148749999997,181.75255946069956L137.56095416666668,3.5185333045665175L138.44042083333335,46.29914604546502L139.3198875,189.98485299479216L140.19935416666667,37.454446393065155L141.0788208333333,84.62606797646731L141.9582875,168.68087599240243L142.83775416666668,17.39681438729167L143.71722083333333,-77.87269805604592L144.5966875,357.64574279263616L145.47615416666665,21.739302400499582L146.35562083333335,155.3772774869576L147.2350875,299.7770993616432L148.11455416666666,123.54821102879941L148.99402083333334,148.46542637050152L149.87348749999998,-53.85675750486553L150.75295416666668,54.56656167469919L151.63242083333333,251.02633315790445L152.5118875,95.63841597363353L153.39135416666667,142.00691712275147L154.27082083333332,-117.61507442034781L155.15028750000002,105.60390093550086L156.02975416666666,42.574339161626995L156.90922083333334,130.116671288386L157.7886875,135.63812427408993L158.66815416666665,96.7144770193845L159.54762083333335,155.03266060212627L160.4270875,71.99865995161235L161.30655416666667,28.976679394952953L162.18602083333332,182.07087340950966L163.0654875,134.70584849081933L163.9449541666667,-3.0290999338030815L164.82442083333333,247.64140389114618L165.7038875,90.81872490886599L166.58335416666665,195.42231791373342L167.46282083333332,66.01776071428321L168.34228750000003,-101.33494789525867L169.22175416666667,192.60107303224504L170.10122083333334,79.46737502887845L170.9806875,112.67622777912766L171.86015416666666,-52.09592378279194L172.73962083333333,-21.895650926046073L173.6190875,130.5823558587581L174.49855416666668,83.37224060331937L175.37802083333332,172.78670970071107L176.2574875,173.4922836413607L177.13695416666667,87.18205810245126L178.01642083333334,118.84998945705593L178.89588750000001,181.6623691348359L179.77535416666666,115.33126860111952L180.65482083333333,188.89227663120255L181.5342875,24.579566169530153L182.41375416666668,-96.30798598565161L183.29322083333332,95.33871395350434L184.1726875,173.63934518024325L185.05215416666667,128.8468360081315L185.9316208333333,180.40500018931925L186.8110875,135.8541421587579L187.69055416666666,14.580999058205634L188.57002083333333,41.595237352419645L189.4494875,182.04162388527766L190.32895416666665,233.6653857138008L191.20842083333335,69.0732232988812L192.0878875,22.87509882543236L192.96735416666667,90.15204387204722L193.84682083333334,86.01237591309473L194.72628749999998,134.32749008014798L195.60575416666669,-59.32241076417267L196.48522083333333,94.83803607244045L197.3646875,113.00399965792894L198.24415416666665,147.05496877385303L199.12362083333332,64.07544909697026L200.00308750000002,9.137218549847603L200.88255416666667,67.46965084411204L201.76202083333334,103.39271314395592L202.64148749999998,-37.10900949127972L203.52095416666666,4.571109218057245L204.40042083333336,146.268631529063L205.2798875,16.07542411610484L206.15935416666667,139.90718454541638L207.03882083333332,-38.90267809666693L207.9182875,238.38178134709597L208.79775416666666,42.94909160770476L209.67722083333334,88.7169111748226L210.5566875,3.010169567540288L211.43615416666665,109.91407950595021L212.31562083333333,169.07580123469234L213.1950875,11.761206865310669L214.07455416666667,-28.27824946772307L214.95402083333335,29.807102132588625L215.8334875,14.431846059858799L216.71295416666666,73.07882149424404L217.59242083333334,79.69630226679146L218.4718875,157.36229917919263L219.35135416666668,163.624324567616L220.23082083333333,94.65034046396613L221.1102875,248.6988787651062L221.98975416666667,-39.51047888305038L222.86922083333334,126.10220242012292L223.7486875,95.26590952835977L224.62815416666666,88.58409834746271L225.50762083333333,62.0620433120057L226.3870875,-26.238324388861656L227.26655416666668,-66.06474033370614L228.14602083333332,81.35150183178484L229.0254875,77.84869873384014L229.90495416666667,-0.22576124221086502L230.78442083333334,51.872473407536745L231.66388750000002,26.44395289197564L232.54335416666666,80.82758608460426L233.42282083333333,204.1956297699362L234.30228749999998,39.88580407993868L235.18175416666668,40.28018327616155L236.06122083333335,38.61777178198099" style="fill: none;" fill="none"></path></g></g></g></g></g></g><g transform="translate(72, 177)" clip-path="url(#clip_1)"><clipPath id="clip_1"><rect width="257" height="23"></rect></clipPath><g><g><line x1="0" y1="0" x2="0" y2="5" style="visibility: inherit;" fill="rgb(0, 0, 0)" stroke="rgb(204, 204, 204)" stroke-width="1px"></line><line x1="21.471354166666664" y1="0" x2="21.471354166666664" y2="5" style="visibility: inherit;" fill="rgb(0, 0, 0)" stroke="rgb(204, 204, 204)" stroke-width="1px"></line><line x1="42.94270833333333" y1="0" x2="42.94270833333333" y2="5" style="visibility: inherit;" fill="rgb(0, 0, 0)" stroke="rgb(204, 204, 204)" stroke-width="1px"></line><line x1="64.4140625" y1="0" x2="64.4140625" y2="5" style="visibility: inherit;" fill="rgb(0, 0, 0)" stroke="rgb(204, 204, 204)" stroke-width="1px"></line><line x1="85.88541666666666" y1="0" x2="85.88541666666666" y2="5" style="visibility: inherit;" fill="rgb(0, 0, 0)" stroke="rgb(204, 204, 204)" stroke-width="1px"></line><line x1="107.35677083333334" y1="0" x2="107.35677083333334" y2="5" style="visibility: inherit;" fill="rgb(0, 0, 0)" stroke="rgb(204, 204, 204)" stroke-width="1px"></line><line x1="128.828125" y1="0" x2="128.828125" y2="5" style="visibility: inherit;" fill="rgb(0, 0, 0)" stroke="rgb(204, 204, 204)" stroke-width="1px"></line><line x1="150.29947916666669" y1="0" x2="150.29947916666669" y2="5" style="visibility: inherit;" fill="rgb(0, 0, 0)" stroke="rgb(204, 204, 204)" stroke-width="1px"></line><line x1="171.77083333333331" y1="0" x2="171.77083333333331" y2="5" style="visibility: inherit;" fill="rgb(0, 0, 0)" stroke="rgb(204, 204, 204)" stroke-width="1px"></line><line x1="193.2421875" y1="0" x2="193.2421875" y2="5" style="visibility: inherit;" fill="rgb(0, 0, 0)" stroke="rgb(204, 204, 204)" stroke-width="1px"></line><line x1="214.71354166666669" y1="0" x2="214.71354166666669" y2="5" style="visibility: inherit;" fill="rgb(0, 0, 0)" stroke="rgb(204, 204, 204)" stroke-width="1px"></line><line x1="236.18489583333331" y1="0" x2="236.18489583333331" y2="5" style="visibility: inherit;" fill="rgb(0, 0, 0)" stroke="rgb(204, 204, 204)" stroke-width="1px"></line><line x1="257.65625" y1="0" x2="257.65625" y2="5" style="visibility: inherit;" fill="rgb(0, 0, 0)" stroke="rgb(204, 204, 204)" stroke-width="1px"></line></g><g transform="translate(0, 8)"><text x="0" y="0" dx="0em" dy="0.95em" style="text-anchor: middle; visibility: hidden; font-family: Roboto, sans-serif; font-size: 12px; font-weight: 200;" fill="rgb(33, 33, 33)" stroke="none" stroke-width="1px">-100k</text><text x="21.471354166666664" y="0" dx="0em" dy="0.95em" style="text-anchor: middle; visibility: inherit; font-family: Roboto, sans-serif; font-size: 12px; font-weight: 200;" fill="rgb(33, 33, 33)" stroke="none" stroke-width="1px">0</text><text x="42.94270833333333" y="0" dx="0em" dy="0.95em" style="text-anchor: middle; visibility: hidden; font-family: Roboto, sans-serif; font-size: 12px; font-weight: 200;" fill="rgb(33, 33, 33)" stroke="none" stroke-width="1px">100k</text><text x="64.4140625" y="0" dx="0em" dy="0.95em" style="text-anchor: middle; visibility: inherit; font-family: Roboto, sans-serif; font-size: 12px; font-weight: 200;" fill="rgb(33, 33, 33)" stroke="none" stroke-width="1px">200k</text><text x="85.88541666666666" y="0" dx="0em" dy="0.95em" style="text-anchor: middle; visibility: hidden; font-family: Roboto, sans-serif; font-size: 12px; font-weight: 200;" fill="rgb(33, 33, 33)" stroke="none" stroke-width="1px">300k</text><text x="107.35677083333334" y="0" dx="0em" dy="0.95em" style="text-anchor: middle; visibility: inherit; font-family: Roboto, sans-serif; font-size: 12px; font-weight: 200;" fill="rgb(33, 33, 33)" stroke="none" stroke-width="1px">400k</text><text x="128.828125" y="0" dx="0em" dy="0.95em" style="text-anchor: middle; visibility: hidden; font-family: Roboto, sans-serif; font-size: 12px; font-weight: 200;" fill="rgb(33, 33, 33)" stroke="none" stroke-width="1px">500k</text><text x="150.29947916666669" y="0" dx="0em" dy="0.95em" style="text-anchor: middle; visibility: inherit; font-family: Roboto, sans-serif; font-size: 12px; font-weight: 200;" fill="rgb(33, 33, 33)" stroke="none" stroke-width="1px">600k</text><text x="171.77083333333331" y="0" dx="0em" dy="0.95em" style="text-anchor: middle; visibility: hidden; font-family: Roboto, sans-serif; font-size: 12px; font-weight: 200;" fill="rgb(33, 33, 33)" stroke="none" stroke-width="1px">700k</text><text x="193.2421875" y="0" dx="0em" dy="0.95em" style="text-anchor: middle; visibility: inherit; font-family: Roboto, sans-serif; font-size: 12px; font-weight: 200;" fill="rgb(33, 33, 33)" stroke="none" stroke-width="1px">800k</text><text x="214.71354166666669" y="0" dx="0em" dy="0.95em" style="text-anchor: middle; visibility: hidden; font-family: Roboto, sans-serif; font-size: 12px; font-weight: 200;" fill="rgb(33, 33, 33)" stroke="none" stroke-width="1px">900k</text><text x="236.18489583333331" y="0" dx="0em" dy="0.95em" style="text-anchor: middle; visibility: inherit; font-family: Roboto, sans-serif; font-size: 12px; font-weight: 200;" fill="rgb(33, 33, 33)" stroke="none" stroke-width="1px">1M</text><text x="257.65625" y="0" dx="0em" dy="0.95em" style="text-anchor: middle; visibility: hidden; font-family: Roboto, sans-serif; font-size: 12px; font-weight: 200;" fill="rgb(33, 33, 33)" stroke="none" stroke-width="1px">1.1M</text></g><line x1="0" y1="0" x2="257.65625" y2="0" fill="rgb(0, 0, 0)" stroke="rgb(204, 204, 204)" stroke-width="1px"></line></g></g></g></g></svg>